<svg width="33" height="16" viewBox="0 0 33 16" fill="none" xmlns="http://www.w3.org/2000/svg">
<path d="M21.0804 16V7.89565H11.8978L14.7848 10.9565H17.7065V12.487L8.45432 12.6957C6.99346 12.8464 3.41085 12.2435 3.41085 7.89565C3.60795 6.35362 4.89259 3.26261 8.45432 3.23478H28.5239L25.4282 0H6.71519C4.24563 0.173913 0.113455 2.49739 0.00215049 7.89565C-0.0674147 10.4928 1.52563 15.7496 8.45432 16H21.0804Z" fill="white"/>
<path d="M9.18476 4.55652L11.5848 7.13043H21.8456V16H24.8022V7.13043H25.5674C25.2311 6.57391 24.8022 5.56522 25.5674 4.55652H9.18476Z" fill="#ECAE00"/>
<path d="M28.5239 7.13043C28.9065 6.5971 29.3935 5.66956 28.5239 4.55652H29.7065L32.2804 7.13043H28.5239Z" fill="#ECAE00"/>
<path d="M25.5674 7.89565H28.5239V16H25.5674V7.89565Z" fill="white"/>
<circle cx="27.1142" cy="5.79049" r="1.12936" fill="white"/>
</svg>
