<svg width="20" height="20" viewBox="0 0 20 20" fill="none" xmlns="http://www.w3.org/2000/svg">
<path d="M10 0C15.5228 0 20 4.47715 20 10C20 15.5228 15.5228 20 10 20C4.47715 20 0 15.5228 0 10C0 4.47715 4.47715 0 10 0ZM10 1.5C5.30558 1.5 1.5 5.30558 1.5 10C1.5 14.6944 5.30558 18.5 10 18.5C14.6944 18.5 18.5 14.6944 18.5 10C18.5 5.30558 14.6944 1.5 10 1.5ZM9.64702 5.55308L9.71962 5.46897C9.98592 5.2027 10.4026 5.17849 10.6962 5.39635L10.7803 5.46897L14.7811 9.4698C15.0474 9.7361 15.0716 10.1528 14.8537 10.4464L14.781 10.5306L10.7795 14.5306C10.4866 14.8234 10.0117 14.8233 9.71882 14.5303C9.45262 14.264 9.42852 13.8474 9.64642 13.5538L9.71902 13.4697L12.441 10.749L5.74929 10.7493C5.3696 10.7493 5.0558 10.4671 5.00614 10.1011L4.99929 9.9993C4.99929 9.6196 5.28145 9.3058 5.64752 9.2561L5.74929 9.2493L12.439 9.249L9.71962 6.52963C9.45342 6.26336 9.42922 5.8467 9.64702 5.55308Z" fill="#1A1300"/>
</svg>
