<svg width="14" height="11" viewBox="0 0 14 11" fill="none" xmlns="http://www.w3.org/2000/svg">
<path d="M6.04953 10.3833C6.27445 10.5705 6.63055 10.5629 6.84483 10.3664C7.0591 10.1699 7.0504 9.85885 6.82547 9.67166L2.1369 5.77016H13.1875C13.4981 5.77016 13.75 5.55014 13.75 5.27876C13.75 5.00737 13.4981 4.78735 13.1875 4.78735H2.13683L6.82547 0.885801C7.0504 0.698615 7.05903 0.387568 6.84483 0.191052C6.63055 -0.00545773 6.27445 -0.0130255 6.04953 0.174161L0.485343 4.80432C0.358645 4.90974 0.283683 5.04419 0.260448 5.18401C0.253593 5.21468 0.25 5.24639 0.25 5.27876C0.25 5.31125 0.253607 5.34297 0.260485 5.3737C0.283765 5.51345 0.35872 5.64783 0.485343 5.75319L6.04953 10.3833Z" fill="white"/>
</svg>
