<svg width="9" height="10" viewBox="0 0 9 10" fill="none" xmlns="http://www.w3.org/2000/svg">
<path d="M4.47369 0.526367C6.94442 0.526367 8.94738 2.5293 8.94738 5.00005C8.94738 7.47078 6.94442 9.47374 4.47369 9.47374C2.00294 9.47374 0 7.47078 0 5.00005C0 2.5293 2.00294 0.526367 4.47369 0.526367ZM4.47369 1.19742C2.37355 1.19742 0.671053 2.89992 0.671053 5.00005C0.671053 7.10018 2.37355 8.80268 4.47369 8.80268C6.57382 8.80268 8.27632 7.10018 8.27632 5.00005C8.27632 2.89992 6.57382 1.19742 4.47369 1.19742ZM4.31577 3.01064L4.34825 2.97301C4.46739 2.85389 4.6538 2.84306 4.78515 2.94052L4.82277 2.97301L6.61261 4.76286C6.73174 4.88199 6.74257 5.06841 6.64509 5.19976L6.61256 5.23743L4.82242 7.0269C4.69138 7.15789 4.47893 7.15784 4.34789 7.02676C4.2288 6.90763 4.21802 6.72126 4.3155 6.58991L4.34798 6.55229L5.56572 5.33513L2.57205 5.33526C2.40219 5.33526 2.26181 5.20902 2.23959 5.04528L2.23652 4.99974C2.23652 4.82987 2.36275 4.68949 2.52652 4.66725L2.57205 4.66421L5.56483 4.66408L4.34825 3.44752C4.22916 3.3284 4.21834 3.142 4.31577 3.01064Z" fill="#5C5C5C"/>
</svg>
