<svg width="18" height="18" viewBox="0 0 18 18" fill="none" xmlns="http://www.w3.org/2000/svg">
<path d="M8.04953 14.8429C8.27445 15.0572 8.63055 15.0484 8.84483 14.8235C9.0591 14.5986 9.0504 14.2425 8.82547 14.0282L4.1369 9.56227H15.1875C15.4981 9.56227 15.75 9.31042 15.75 8.99977C15.75 8.68912 15.4981 8.43727 15.1875 8.43727H4.13683L8.82547 3.97126C9.0504 3.757 9.05903 3.40095 8.84483 3.176C8.63055 2.95106 8.27445 2.9424 8.04953 3.15667L2.48534 8.4567C2.35865 8.57738 2.28368 8.73127 2.26045 8.89132C2.25359 8.92642 2.25 8.96272 2.25 8.99977C2.25 9.03697 2.25361 9.07328 2.26048 9.10845C2.28376 9.26842 2.35872 9.42225 2.48534 9.54285L8.04953 14.8429Z" fill="#1A1300"/>
</svg>
