<svg width="306" height="85" viewBox="0 0 306 85" fill="none" xmlns="http://www.w3.org/2000/svg">
<path d="M11.7393 14.0126C11.1939 13.052 9.97317 12.7154 9.0126 13.2607C8.05203 13.8061 7.71541 15.0268 8.26073 15.9874L11.7393 14.0126ZM8.26073 15.9874C26.3758 47.8966 52.1681 100.878 70.6284 156.035C79.8578 183.611 87.2396 211.687 90.9226 237.916C94.6084 264.165 94.5707 288.437 89.0714 308.471L92.9286 309.529C98.6293 288.763 98.6082 263.885 94.8837 237.359C91.1562 210.813 83.7005 182.489 74.4216 154.765C55.8652 99.3216 29.9575 46.1034 11.7393 14.0126L8.26073 15.9874Z" fill="#ECAE00"/>
<path d="M288 15C251.667 79 184.6 227.4 207 309" stroke="#ECAE00" stroke-width="4" stroke-linecap="round"/>
<g opacity="0.2">
<path d="M0 0C38.7364 59.8304 109.075 207.335 80.541 318.712H146.124L146.124 0L0 0Z" fill="#ECAE00"/>
<path d="M163.383 0L163.383 318.712H208.256C203.27 256.197 215.39 104.933 303.754 0L163.383 0Z" fill="#ECAE00"/>
<path d="M146.124 0L146.124 318.712H163.383L163.383 0L146.124 0Z" fill="#FFD970"/>
</g>
<line x1="151.461" y1="343.921" x2="155.461" y2="0.79523" stroke="#ECAE00" stroke-width="3" stroke-dasharray="1.66 1.66"/>
</svg>
