<svg width="21" height="21" viewBox="0 0 21 21" fill="none" xmlns="http://www.w3.org/2000/svg">
<circle cx="10.791" cy="10.4179" r="9.67164" fill="white" stroke="#ECAE00" stroke-width="1.07463"/>
<g clip-path="url(#clip0_149_957)">
<path d="M13.4644 10.4177C14.9411 10.4177 16.1382 11.6147 16.1382 13.0914C16.1382 14.5681 14.9411 15.7652 13.4644 15.7652C11.9877 15.7652 10.7906 14.5681 10.7906 13.0914C10.7906 11.6147 11.9877 10.4177 13.4644 10.4177ZM13.4644 11.3895L13.4207 11.3934C13.3215 11.4115 13.2432 11.4897 13.2252 11.5889L13.2213 11.6326L13.2211 12.848L12.0048 12.8484L11.9611 12.8522C11.8619 12.8703 11.7836 12.9485 11.7657 13.0477L11.7618 13.0914L11.7657 13.1351C11.7836 13.2343 11.8619 13.3126 11.9611 13.3306L12.0048 13.3345L13.2217 13.3341L13.2218 14.5515L13.2258 14.5952C13.2438 14.6944 13.322 14.7726 13.4212 14.7907L13.4649 14.7946L13.5086 14.7907C13.6078 14.7726 13.6861 14.6944 13.7041 14.5952L13.708 14.5515L13.7078 13.3341L14.925 13.3345L14.9687 13.3306C15.0679 13.3126 15.1462 13.2343 15.1642 13.1351L15.1681 13.0914L15.1642 13.0477C15.1462 12.9485 15.0679 12.8703 14.9687 12.8522L14.925 12.8484L13.7073 12.848L13.7075 11.6326L13.7035 11.5889C13.6855 11.4897 13.6073 11.4115 13.5081 11.3934L13.4644 11.3895ZM11.7263 5.80078C12.1141 5.80078 12.473 6.00616 12.6694 6.34058L13.0654 7.01465H14.0721C14.9446 7.01465 15.652 7.72202 15.652 8.59461L15.6524 10.8116C15.4365 10.6043 15.1912 10.4274 14.9233 10.2877L14.9228 8.59461C14.9228 8.12475 14.5419 7.74386 14.0721 7.74386H12.8567C12.7274 7.74386 12.6078 7.6754 12.5423 7.56393L12.0407 6.70992C11.9752 6.59845 11.8555 6.52999 11.7263 6.52999H9.87783C9.76919 6.52999 9.66723 6.57834 9.59856 6.66018L9.56711 6.70381L9.03522 7.57004C8.9689 7.67804 8.85125 7.74386 8.72451 7.74386H7.50916C7.0393 7.74386 6.65841 8.12475 6.65841 8.59461V13.213C6.65841 13.6828 7.0393 14.0637 7.50916 14.0637L10.4568 14.0634C10.5406 14.3229 10.657 14.5677 10.8013 14.793L7.50916 14.7929C6.63657 14.7929 5.9292 14.0855 5.9292 13.213V8.59461C5.9292 7.72202 6.63657 7.01465 7.50916 7.01465H8.52053L8.9457 6.32224C9.14466 5.99823 9.4976 5.80078 9.87783 5.80078H11.7263ZM10.7906 8.47307C11.7638 8.47307 12.5885 9.10848 12.8726 9.98703C12.6292 10.0329 12.3959 10.1069 12.176 10.2052C11.9851 9.62277 11.437 9.20228 10.7906 9.20228C9.98512 9.20228 9.33218 9.85524 9.33218 10.6607C9.33218 11.3556 9.81815 11.9369 10.4688 12.0835C10.3923 12.3104 10.3408 12.5496 10.318 12.7971C9.33702 12.5812 8.60297 11.7067 8.60297 10.6607C8.60297 9.45252 9.58241 8.47307 10.7906 8.47307Z" fill="#ECAE00"/>
</g>
<defs>
<clipPath id="clip0_149_957">
<rect width="11.6674" height="11.6674" fill="white" transform="translate(4.95752 4.58398)"/>
</clipPath>
</defs>
</svg>
