<svg width="77" height="85" viewBox="0 0 77 85" fill="none" xmlns="http://www.w3.org/2000/svg">
<path d="M6.48887 -3.21116C6.18874 -3.61386 5.61898 -3.69702 5.21627 -3.39689C4.81357 -3.09677 4.73041 -2.527 5.03054 -2.12429L6.48887 -3.21116ZM5.03054 -2.12429C15.0005 11.2533 29.6208 33.7066 41.0552 57.5539C46.772 69.4767 51.6833 81.7288 54.8217 93.356C57.9626 104.992 59.312 115.946 57.9585 125.295L59.7585 125.555C61.1616 115.864 59.7515 104.641 56.5776 92.8821C53.4013 81.1144 48.4427 68.7542 42.6952 56.7675C31.2012 32.7961 16.5156 10.2426 6.48887 -3.21116L5.03054 -2.12429Z" fill="#1A1300"/>
<g opacity="0.2">
<path d="M0.403137 -8.8728C21.2493 15.9419 61.2906 78.5362 54.6861 130.396L84.2773 126.704L66.3344 -17.0993L0.403137 -8.8728Z" fill="#1A1300"/>
<path d="M74.1216 -18.0709L92.0645 125.732L112.311 123.206C106.542 95.2796 103.494 26.3471 137.457 -25.9736L74.1216 -18.0709Z" fill="#1A1300"/>
<path d="M66.3344 -17.0993L84.2773 126.704L92.0645 125.732L74.1216 -18.0709L66.3344 -17.0993Z" fill="#FFD970"/>
</g>
<line x1="88.1045" y1="137.777" x2="70.592" y2="-17.2663" stroke="#1A1300" stroke-width="1.3641" stroke-dasharray="0.76 0.76"/>
</svg>
