<svg width="102" height="85" viewBox="0 0 102 85" fill="none" xmlns="http://www.w3.org/2000/svg">
<path d="M-29.9611 -58.7191C-30.0912 -59.2043 -30.5899 -59.4921 -31.075 -59.362C-31.5601 -59.232 -31.8479 -58.7333 -31.7179 -58.2481L-29.9611 -58.7191ZM-31.7179 -58.2481C-27.3974 -42.1332 -22.1097 -15.8663 -20.2975 10.5184C-19.3914 23.7098 -19.3556 36.9096 -20.7362 48.8735C-22.1179 60.8469 -24.9119 71.5238 -29.6244 79.7105L-28.0481 80.6178C-23.1632 72.1315 -20.3256 61.1811 -18.9294 49.082C-17.5321 36.9736 -17.572 23.6559 -18.4829 10.3938C-20.3046 -16.1284 -25.616 -42.5124 -29.9611 -58.7191L-31.7179 -58.2481Z" fill="#1A1300"/>
<path d="M91.4984 -26.6724C68.186 -2.66579 21.6911 54.9655 22.2111 93.438" stroke="#1A1300" stroke-width="1.8188" stroke-linecap="round"/>
<g opacity="0.2">
<path d="M-33.5237 -66.2288C-23.3235 -35.4669 -9.24853 37.4936 -34.5502 83.2414L-5.68932 90.746L30.7805 -49.5079L-33.5237 -66.2288Z" fill="#1A1300"/>
<path d="M38.3755 -47.5331L1.90566 92.7209L21.6526 97.8557C26.612 69.7744 49.2543 4.59546 100.148 -31.4705L38.3755 -47.5331Z" fill="#1A1300"/>
<path d="M30.7805 -49.5079L-5.68932 90.746L1.90566 92.7209L38.3755 -47.5331L30.7805 -49.5079Z" fill="#FFD970"/>
</g>
<line x1="-6.22531" y1="102.45" x2="34.7984" y2="-48.0898" stroke="#1A1300" stroke-width="1.3641" stroke-dasharray="0.76 0.76"/>
</svg>
