<svg width="63" height="46" viewBox="0 0 63 46" fill="none" xmlns="http://www.w3.org/2000/svg">
<path d="M5.15849 -4.69303C4.93539 -4.99238 4.51185 -5.0542 4.21249 -4.8311C3.91313 -4.60799 3.85132 -4.18446 4.07442 -3.8851L5.15849 -4.69303ZM4.07442 -3.8851C11.4857 6.05925 22.3538 22.7501 30.8537 40.4772C35.1033 49.3401 38.7542 58.4479 41.0871 67.0911C43.4219 75.7411 44.425 83.8835 43.4189 90.8329L44.757 91.0267C45.7999 83.8229 44.7517 75.4795 42.3924 66.7388C40.0313 57.9911 36.3452 48.8031 32.0728 39.8927C23.5286 22.0733 12.6119 5.30793 5.15849 -4.69303L4.07442 -3.8851Z" fill="#1A1300"/>
<g opacity="0.2">
<path d="M0.63501 -8.90137C16.1312 9.54487 45.8962 56.0749 40.9867 94.6252L62.9836 91.8806L49.6456 -15.0166L0.63501 -8.90137Z" fill="#1A1300"/>
<path d="M55.4343 -15.7389L68.7723 91.1583L83.8228 89.2804C79.5343 68.5213 77.2689 17.2797 102.515 -21.6134L55.4343 -15.7389Z" fill="#1A1300"/>
<path d="M49.6456 -15.0166L62.9836 91.8806L68.7723 91.1583L55.4343 -15.7389L49.6456 -15.0166Z" fill="#FFD970"/>
</g>
<line x1="65.8287" y1="100.112" x2="52.8106" y2="-15.141" stroke="#1A1300" stroke-width="1.01401" stroke-dasharray="0.56 0.56"/>
</svg>
