<svg width="102" height="46" viewBox="0 0 102 46" fill="none" xmlns="http://www.w3.org/2000/svg">
<path d="M-29.0079 -58.5189C-29.137 -59.0005 -29.6321 -59.2863 -30.1137 -59.1571C-30.5953 -59.028 -30.881 -58.533 -30.7519 -58.0514L-29.0079 -58.5189ZM-30.7519 -58.0514C-26.4628 -42.0536 -21.2136 -15.9779 -19.4146 10.215C-18.5151 23.3104 -18.4796 36.4142 -19.8501 48.2911C-21.2218 60.1773 -23.9955 70.7765 -28.6736 78.9037L-27.1088 79.8044C-22.2594 71.3798 -19.4425 60.509 -18.0565 48.498C-16.6694 36.4776 -16.709 23.2568 -17.6132 10.0912C-19.4217 -16.238 -24.6944 -42.4301 -29.0079 -58.5189L-30.7519 -58.0514Z" fill="#1A1300"/>
<path d="M91.5679 -26.7051C68.425 -2.87314 22.2683 54.3389 22.7846 92.5315" stroke="#1A1300" stroke-width="1.80556" stroke-linecap="round"/>
<g opacity="0.2">
<path d="M-32.5449 -65.9746C-22.4189 -35.4366 -8.44635 36.9933 -33.564 82.4083L-4.91303 89.8583L31.2915 -49.3754L-32.5449 -65.9746Z" fill="#1A1300"/>
<path d="M38.8312 -47.4149L2.62671 91.8188L22.23 96.9162C27.1533 69.0392 49.6309 4.33441 100.154 -31.4692L38.8312 -47.4149Z" fill="#1A1300"/>
<path d="M31.2915 -49.3754L-4.91303 89.8583L2.62671 91.8188L38.8312 -47.4149L31.2915 -49.3754Z" fill="#FFD970"/>
</g>
<line x1="-5.44526" y1="101.478" x2="35.28" y2="-47.967" stroke="#1A1300" stroke-width="1.35417" stroke-dasharray="0.75 0.75"/>
</svg>
