<svg width="16" height="16" viewBox="0 0 16 16" fill="none" xmlns="http://www.w3.org/2000/svg">
<path d="M8 0.5C12.1421 0.5 15.5 3.85786 15.5 8C15.5 12.1421 12.1421 15.5 8 15.5C6.78627 15.5 5.61337 15.2109 4.55964 14.666L1.69028 15.4665C1.19159 15.6057 0.674435 15.3144 0.535183 14.8157C0.489095 14.6507 0.489118 14.4762 0.535213 14.3113L1.33596 11.4441C0.789777 10.3895 0.5 9.21523 0.5 8C0.5 3.85786 3.85786 0.5 8 0.5ZM8 1.625C4.47919 1.625 1.625 4.47919 1.625 8C1.625 9.1022 1.90458 10.1626 2.42977 11.1031L2.54276 11.3054L1.70822 14.2935L4.69816 13.4594L4.90032 13.5721C5.84004 14.0961 6.89915 14.375 8 14.375C11.5208 14.375 14.375 11.5208 14.375 8C14.375 4.47919 11.5208 1.625 8 1.625ZM5.5625 8.75H8.93622C9.24687 8.75 9.49872 9.00185 9.49872 9.3125C9.49872 9.59727 9.28708 9.83263 9.0125 9.8699L8.93622 9.875H5.5625C5.25184 9.875 5 9.62315 5 9.3125C5 9.02773 5.21161 8.79237 5.48617 8.7551L5.5625 8.75ZM5.5625 6.125H10.4409C10.7515 6.125 11.0034 6.37684 11.0034 6.6875C11.0034 6.97227 10.7917 7.20763 10.5172 7.2449L10.4409 7.25H5.5625C5.25184 7.25 5 6.99815 5 6.6875C5 6.40273 5.21161 6.16738 5.48617 6.13014L5.5625 6.125Z" fill="#1A1300"/>
</svg>
