<svg width="42" height="42" viewBox="0 0 42 42" fill="none" xmlns="http://www.w3.org/2000/svg">
<path d="M22.6286 8.16199C23.3212 7.69175 24.2652 7.88397 24.7188 8.58763L26.6569 11.5941C26.8778 11.9367 27.2293 12.174 27.6298 12.2505L31.1431 12.9225C31.9654 13.0798 32.4969 13.8832 32.3201 14.7015L31.5647 18.1978C31.4786 18.5963 31.5594 19.0126 31.7884 19.3499L33.7975 22.3094C34.2678 23.002 34.0756 23.946 33.3719 24.3996L30.3655 26.3377C30.0228 26.5585 29.7856 26.9101 29.709 27.3105L29.037 30.8239C28.8798 31.6461 28.0764 32.1777 27.2581 32.0009L23.7617 31.2454C23.3633 31.1593 22.9469 31.2402 22.6096 31.4692L19.6502 33.4783C18.9575 33.9486 18.0136 33.7563 17.56 33.0527L15.6219 30.0462C15.401 29.7036 15.0494 29.4663 14.649 29.3898L11.1357 28.7178C10.3134 28.5605 9.78183 27.7571 9.95864 26.9388L10.7141 23.4425C10.8002 23.044 10.7193 22.6277 10.4904 22.2904L8.4812 19.331C8.01097 18.6383 8.20319 17.6943 8.90685 17.2407L11.9133 15.3027C12.2559 15.0818 12.4932 14.7302 12.5698 14.3298L13.2417 10.8165C13.399 9.99417 14.2024 9.46261 15.0207 9.63943L18.517 10.3949C18.9155 10.481 19.3318 10.4001 19.6691 10.1711L22.6286 8.16199Z" fill="white"/>
<path d="M15.1729 21.652L18.5769 25.056L27.087 16.5459" stroke="#1A1300" stroke-width="0.779348" stroke-linecap="round" stroke-linejoin="round"/>
<path d="M1.53086 23.3407C1.18139 22.6099 1 21.8101 1 21C1 20.1899 1.18139 19.3901 1.53086 18.6593C1.83471 18.0212 2.3556 17.4092 3.39737 16.1851C3.81407 15.6967 4.02243 15.4537 4.19606 15.1932C4.59552 14.5974 4.87288 13.9284 5.01211 13.2247C5.07288 12.9165 5.09892 12.5975 5.14884 11.9594C5.27689 10.3577 5.33983 9.55682 5.5764 8.88619C5.84657 8.12262 6.28426 7.42922 6.85736 6.85687C7.43046 6.28452 8.12443 5.84774 8.88836 5.57857C9.55682 5.342 10.3577 5.27689 11.9616 5.15101C12.5997 5.09892 12.9165 5.07288 13.2247 5.01211C13.9291 4.87316 14.599 4.59578 15.1954 4.19606C15.4558 4.02243 15.6989 3.81624 16.1851 3.39954C17.4092 2.35777 18.0212 1.83688 18.6593 1.53086C19.3901 1.18139 20.1899 1 21 1C21.8101 1 22.6099 1.18139 23.3407 1.53086C23.981 1.83471 24.593 2.3556 25.8149 3.39954C26.3033 3.81624 26.5463 4.02243 26.8068 4.19606C27.4032 4.59578 28.073 4.87316 28.7775 5.01211C29.0835 5.07288 29.4025 5.09892 30.0406 5.15101C31.6445 5.27689 32.4453 5.342 33.1138 5.57857C33.8773 5.84801 34.5709 6.28492 35.1436 6.85725C35.7163 7.42959 36.1537 8.12284 36.4236 8.88619M5.5764 33.1138C5.84635 33.8772 6.28371 34.5704 6.85642 35.1427C7.42913 35.7151 8.12267 36.152 8.88619 36.4214C9.55465 36.6602 10.3555 36.7231 11.9594 36.849C12.5975 36.9011 12.9144 36.9271 13.2225 36.9879C13.927 37.1268 14.5968 37.4042 15.1932 37.804C15.4537 37.9776 15.6967 38.1838 16.1829 38.6005C17.407 39.6422 18.019 40.1631 18.6571 40.4691C19.3879 40.8186 20.1877 41 20.9978 41C21.8079 41 22.6077 40.8186 23.3386 40.4691C23.9788 40.1653 24.5908 39.6444 25.8128 38.6005C26.1283 38.3167 26.4594 38.0508 26.8046 37.804C27.401 37.4042 28.0709 37.1268 28.7753 36.9879C29.0813 36.9271 29.4003 36.9011 30.0384 36.849C31.6423 36.7231 32.4432 36.658 33.1116 36.4214C33.8752 36.152 34.5687 35.7151 35.1414 35.1427C35.7141 34.5704 36.1515 33.8772 36.4214 33.1138C36.658 32.4453 36.7209 31.6423 36.849 30.0406C36.8989 29.4025 36.925 29.0835 36.9857 28.7753C37.1246 28.0721 37.4024 27.4015 37.8018 26.8068C37.9754 26.5463 38.1838 26.3033 38.5983 25.8149C39.6401 24.5909 40.1631 23.9788 40.4691 23.3407C40.8186 22.6099 41 21.8101 41 21C41 20.1899 40.8186 19.3901 40.4691 18.6593" stroke="white" stroke-width="0.993793" stroke-linecap="round"/>
</svg>
