<svg width="10" height="12" viewBox="0 0 10 12" fill="none" xmlns="http://www.w3.org/2000/svg">
<path d="M1.21013 1.69943L1.2085 2.93783V9.06528C1.2085 10.1123 2.05729 10.9611 3.10433 10.9611L8.13051 10.9613C7.95026 11.4709 7.46416 11.8361 6.89273 11.8361H3.10433C1.57404 11.8361 0.333496 10.5956 0.333496 9.06528V2.93783C0.333496 2.36574 0.699509 1.87915 1.21013 1.69943ZM8.35433 0.166992C9.07918 0.166992 9.66683 0.754619 9.66683 1.47949V9.06283C9.66683 9.78767 9.07918 10.3753 8.35433 10.3753H3.10433C2.37946 10.3753 1.79183 9.78767 1.79183 9.06283V1.47949C1.79183 0.754619 2.37946 0.166992 3.10433 0.166992H8.35433ZM8.35433 1.04199H3.10433C2.86271 1.04199 2.66683 1.23787 2.66683 1.47949V9.06283C2.66683 9.30444 2.86271 9.50033 3.10433 9.50033H8.35433C8.59595 9.50033 8.79183 9.30444 8.79183 9.06283V1.47949C8.79183 1.23787 8.59595 1.04199 8.35433 1.04199Z" fill="white"/>
</svg>
