<svg width="12" height="14" viewBox="0 0 12 14" fill="none" xmlns="http://www.w3.org/2000/svg">
<path d="M1.66837 2.08486L1.6665 3.50016V10.503C1.6665 11.6996 2.63655 12.6696 3.83317 12.6696L9.57737 12.6698C9.37137 13.2523 8.81584 13.6696 8.16277 13.6696H3.83317C2.08427 13.6696 0.666504 12.2519 0.666504 10.503V3.50016C0.666504 2.84636 1.0848 2.29024 1.66837 2.08486ZM6.7521 0.333496C7.1501 0.333496 7.53177 0.491649 7.8131 0.773143L10.892 3.85386C11.1731 4.13514 11.331 4.51653 11.331 4.91421V10.503C11.331 11.3314 10.6595 12.003 9.83104 12.003H3.83478C3.00635 12.003 2.33478 11.3314 2.33478 10.503V1.8335C2.33478 1.00507 3.00635 0.333496 3.83478 0.333496H6.7521ZM6.6661 1.3335H3.83478C3.55863 1.3335 3.33478 1.55736 3.33478 1.8335V10.503C3.33478 10.7791 3.55863 11.003 3.83478 11.003H9.83104C10.1072 11.003 10.331 10.7791 10.331 10.503L10.3308 5.00216L8.1665 5.00276C7.37257 5.00276 6.72277 4.38598 6.66997 3.60546L6.6665 3.50276L6.6661 1.3335ZM7.6661 2.04083L7.6665 3.50276C7.6665 3.75589 7.85464 3.96508 8.09864 3.99819L8.1665 4.00276L9.62677 4.00216L7.6661 2.04083Z" fill="#1A1300"/>
</svg>
