<svg width="12" height="7" viewBox="0 0 12 7" fill="none" xmlns="http://www.w3.org/2000/svg">
<path d="M6.00006 2.25261C7.2887 2.25261 8.3334 3.29729 8.3334 4.58594C8.3334 5.87464 7.2887 6.91927 6.00006 6.91927C4.71138 6.91927 3.66671 5.87464 3.66671 4.58594C3.66671 3.29729 4.71138 2.25261 6.00006 2.25261ZM6.00006 3.1276C5.19465 3.1276 4.54171 3.78053 4.54171 4.58594C4.54171 5.39134 5.19465 6.04427 6.00006 6.04427C6.80547 6.04427 7.4584 5.39134 7.4584 4.58594C7.4584 3.78053 6.80547 3.1276 6.00006 3.1276ZM6.00006 0.208252C8.69127 0.208252 11.0145 2.04576 11.659 4.62082C11.7177 4.8552 11.5753 5.09279 11.3409 5.15148C11.1064 5.2101 10.8689 5.06771 10.8102 4.83327C10.2625 2.6454 8.28749 1.08325 6.00006 1.08325C3.71159 1.08325 1.73594 2.64674 1.18921 4.83595C1.13067 5.07034 0.893171 5.2129 0.658747 5.15439C0.424323 5.09583 0.281744 4.85835 0.340288 4.62391C0.983757 2.04734 3.30766 0.208252 6.00006 0.208252Z" fill="#FFC31F"/>
</svg>
