<svg width="148" height="97" viewBox="0 0 148 97" fill="none" xmlns="http://www.w3.org/2000/svg">
<g clip-path="url(#clip0_1655_5090)">
<path d="M48.1838 17.6491L34.6926 86.9347L32.9395 96.0051L122.881 95.5707C126.921 95.5516 130.503 91.9654 131.795 86.6375L147.749 21.2277C148.736 17.1841 146.571 12.9767 143.507 12.9805L52.4523 13.0757C50.4705 13.0719 48.6945 14.947 48.1838 17.6491Z" fill="#FFD970"/>
<g opacity="0.5">
<path d="M48.1838 17.6491L34.6926 86.9347L32.9395 96.0051L122.881 95.5707C126.921 95.5516 130.503 91.9654 131.795 86.6375L147.749 21.2277C148.736 17.1841 146.571 12.9767 143.507 12.9805L52.4523 13.0757C50.4705 13.0719 48.6945 14.947 48.1838 17.6491Z" fill="black"/>
</g>
<path d="M114.264 82.2321L104.737 5.47282C104.355 2.32867 101.844 -0.0189601 98.8828 -0.00752678L77.998 0.0572611C77.2218 0.0660094 76.4556 0.232716 75.746 0.547221C75.0364 0.861725 74.3983 1.31744 73.8706 1.88658L63.9617 12.4319L5.88065 12.7444C2.33252 12.7634 -0.396226 16.1248 0.0725384 19.8978L8.91809 90.8413C9.2992 93.9817 11.8107 96.3255 14.7643 96.3217L116.006 96.1197C127.279 96.3522 128.358 93.0251 128.358 93.0251C115.415 95.8872 114.264 82.2511 114.264 82.2321Z" fill="#ECAE00"/>
<g opacity="0.5" clip-path="url(#clip1_1655_5090)">
<path d="M65.0725 63.5369C64.8164 63.429 64.5962 63.2503 64.4379 63.0219C64.2795 62.7934 64.1894 62.5246 64.1782 62.2469L63.8616 54.9023C63.8505 54.6741 63.8926 54.4464 63.9846 54.2373C64.0767 54.0282 64.2161 53.8433 64.392 53.6974C64.5678 53.5515 64.7752 53.4486 64.9977 53.3967C65.2203 53.3448 65.4518 53.3455 65.674 53.3986C66.2869 53.5308 66.9203 53.5365 67.5354 53.4154C68.1505 53.2943 68.7344 53.0488 69.2513 52.6942C69.7273 52.3929 70.1365 51.9973 70.4537 51.5317C70.7708 51.0662 70.9892 50.5406 71.0954 49.9874C71.1671 49.4273 71.1256 48.8584 70.9733 48.3146C70.821 47.7708 70.5611 47.2631 70.209 46.8217C69.8381 46.3193 69.3718 45.8951 68.8367 45.5732C68.3016 45.2514 67.7083 45.0382 67.0907 44.9459C65.8454 44.8767 64.6131 45.2297 63.5933 45.9479C62.5735 46.666 61.8259 47.7073 61.4715 48.9032C61.3532 49.2655 61.0998 49.5683 60.7639 49.7484C60.428 49.9285 60.0356 49.9721 59.6683 49.8701C59.3011 49.7681 58.9874 49.5283 58.7925 49.2008C58.5977 48.8732 58.5367 48.4831 58.6223 48.1117C59.1607 46.2308 60.3304 44.5926 61.9346 43.4727C63.5388 42.3528 65.4798 41.8194 67.431 41.9622C68.4466 42.0975 69.4247 42.4355 70.3071 42.9563C71.1894 43.477 71.9581 44.1698 72.5675 44.9934C73.1603 45.7568 73.5939 46.6313 73.8427 47.5653C74.0915 48.4992 74.1503 49.4735 74.0159 50.4306C73.836 51.3864 73.4623 52.2951 72.9178 53.1009C72.3733 53.9067 71.6697 54.5925 70.8501 55.116C69.6627 55.9154 68.2758 56.3676 66.8454 56.4219L67.0907 62.0886C67.0999 62.3376 67.0461 62.5848 66.9343 62.8075C66.8224 63.0301 66.6562 63.2209 66.451 63.3622C66.2458 63.5035 66.0082 63.5906 65.7603 63.6157C65.5125 63.6407 65.2623 63.6027 65.033 63.5053L65.0725 63.5369Z" fill="white"/>
<path d="M67.2411 66.5447C67.2578 66.7837 67.2032 67.0222 67.0842 67.2302C66.9653 67.4382 66.7873 67.6062 66.5728 67.7129C66.3583 67.8197 66.117 67.8605 65.8793 67.83C65.6417 67.7996 65.4184 67.6993 65.2378 67.542C65.0571 67.3846 64.9272 67.1772 64.8645 66.9459C64.8018 66.7147 64.8091 66.4701 64.8854 66.243C64.9618 66.0159 65.1038 65.8165 65.2935 65.6702C65.4832 65.5238 65.712 65.4371 65.9511 65.4208C66.1098 65.409 66.2692 65.4287 66.4202 65.479C66.5712 65.5292 66.7107 65.6089 66.8307 65.7134C66.9507 65.8179 67.0488 65.9452 67.1192 66.0879C67.1897 66.2306 67.2311 66.3858 67.2411 66.5447Z" fill="white"/>
</g>
</g>
<defs>
<clipPath id="clip0_1655_5090">
<rect width="148" height="96.3178" fill="white"/>
</clipPath>
<clipPath id="clip1_1655_5090">
<rect width="15.5281" height="25.8802" fill="white" transform="translate(58.5669 41.9465)"/>
</clipPath>
</defs>
</svg>
