<svg width="74" height="63" viewBox="0 0 74 63" fill="none" xmlns="http://www.w3.org/2000/svg">
<path d="M47.9552 36.398V17.9616H27.066L33.6334 24.9247H40.28V28.4062L19.2325 28.881C15.9092 29.2239 7.75924 27.8523 7.75924 17.9616C8.20762 14.4537 11.13 7.42202 19.2325 7.35872H64.8882L57.846 0H15.2762C9.65825 0.39563 0.258095 5.68125 0.00489209 17.9616C-0.15336 23.8697 3.47061 35.8282 19.2325 36.398H47.9552Z" fill="white"/>
<path d="M20.8941 10.3655L26.3538 16.2208H49.696V36.398H56.4217V16.2208H58.1625C57.3976 14.9548 56.4217 12.6602 58.1625 10.3655H20.8941Z" fill="#1A1300"/>
<path d="M64.8882 16.2208C65.7586 15.0076 66.8663 12.8975 64.8882 10.3655H67.5785L73.4338 16.2208H64.8882Z" fill="#1A1300"/>
<path d="M58.1625 17.9616H64.8882V36.398H58.1625V17.9616Z" fill="white"/>
<circle cx="61.681" cy="13.1721" r="2.56915" fill="white"/>
<path d="M3.48052 58.3036V43.0335H9.56674C11.0647 43.0335 12.2572 43.4334 13.1443 44.2333C14.0314 45.0186 14.475 46.0366 14.475 47.2873C14.475 48.3926 14.155 49.316 13.5152 50.0577C12.8753 50.7994 11.9736 51.3012 10.8102 51.5629L14.5841 58.3036H12.5553L8.80324 51.6938H5.31293V58.3036H3.48052ZM5.31293 50.1014H9.3486C11.5446 50.1014 12.6426 49.1924 12.6426 47.3746C12.6426 45.5422 11.5446 44.6259 9.3486 44.6259H5.31293V50.1014ZM19.2108 58.3036V43.0335H21.0432V58.3036H19.2108ZM26.8671 58.3036V43.0335H31.0773C33.4042 43.0335 35.2802 43.7243 36.7054 45.1059C38.1306 46.4729 38.8432 48.3271 38.8432 50.6685C38.8432 53.01 38.1306 54.8715 36.7054 56.253C35.2802 57.6201 33.4042 58.3036 31.0773 58.3036H26.8671ZM28.6995 56.6675H31.0119C32.8734 56.6675 34.3349 56.1512 35.3966 55.1187C36.4582 54.0861 36.989 52.6028 36.989 50.6685C36.989 48.7343 36.4582 47.2509 35.3966 46.2184C34.3349 45.1858 32.8734 44.6696 31.0119 44.6696H28.6995V56.6675ZM43.7051 58.3036V43.0335H53.238V44.6478H45.5375V49.5996H52.6272V51.2139H45.5375V56.6893H53.3035V58.3036H43.7051ZM57.2456 53.8753L58.8817 53.0245C59.4343 55.6859 60.9104 57.0165 63.31 57.0165C64.4298 57.0165 65.3315 56.7402 66.015 56.1876C66.713 55.6204 67.0621 54.9442 67.0621 54.1588C67.0621 53.3444 66.7203 52.6973 66.0368 52.2174C65.3678 51.7229 64.3425 51.3448 62.961 51.083C59.6306 50.4722 57.9654 49.0179 57.9654 46.7201C57.9654 45.5422 58.4381 44.5823 59.3834 43.8406C60.3432 43.0989 61.5648 42.7281 63.0482 42.7281C64.4007 42.7281 65.5641 43.0626 66.5385 43.7316C67.5129 44.386 68.1964 45.2949 68.5891 46.4584L67.1493 47.3091C66.4513 45.3167 65.0769 44.3205 63.0264 44.3205C62.052 44.3205 61.2594 44.5387 60.6486 44.975C60.0378 45.3967 59.7324 45.9712 59.7324 46.6983C59.7324 47.4545 60.0742 48.0654 60.7577 48.5307C61.4412 48.9961 62.5028 49.3669 63.9426 49.6433C67.2438 50.2686 68.8945 51.7302 68.8945 54.028C68.8945 55.3368 68.3709 56.4275 67.3238 57.3001C66.2913 58.1727 64.9606 58.609 63.3318 58.609C61.6594 58.609 60.2996 58.1727 59.2525 57.3001C58.1909 56.3985 57.5219 55.2568 57.2456 53.8753Z" fill="#1A1300"/>
</svg>
