<svg width="156" height="38" viewBox="0 0 156 38" fill="none" xmlns="http://www.w3.org/2000/svg">
<path d="M43.4783 35.5V18.7848H24.5392L30.4936 25.0978H36.5197V28.2543L17.437 28.6848C14.424 28.9957 7.03487 27.7522 7.03487 18.7848C7.44139 15.6043 10.091 9.22913 17.437 9.17174H58.8305L52.4457 2.5H13.8501C8.75661 2.8587 0.234001 7.65087 0.00443539 18.7848C-0.139043 24.1413 3.14661 34.9835 17.437 35.5H43.4783Z" fill="white"/>
<path d="M18.9436 11.8978L23.8936 17.2065H45.0566V35.5H51.1544V17.2065H52.7327C52.0392 16.0587 51.1544 13.9783 52.7327 11.8978H18.9436Z" fill="#1A1300"/>
<path d="M58.8305 17.2065C59.6197 16.1065 60.624 14.1935 58.8305 11.8978H61.2696L66.5783 17.2065H58.8305Z" fill="#1A1300"/>
<path d="M52.7327 18.7848H58.8305V35.5H52.7327V18.7848Z" fill="white"/>
<circle cx="55.9231" cy="14.4423" r="2.32931" fill="white"/>
<path d="M69.5061 29.552C71.4581 29.296 72.2901 28.816 72.2901 27.44V11.184C72.2901 9.808 71.4581 9.328 69.5061 9.072V8.624H79.8741C85.3141 8.624 88.7701 10.8 88.7701 14.736C88.7701 17.424 87.0421 19.28 84.1301 20.144L88.7701 27.216C89.5701 28.432 91.0741 29.392 92.4501 29.552V30H84.3221C84.2261 29.36 83.8741 28.72 83.4901 28.08L78.9141 20.688H77.2501V27.44C77.2501 28.816 78.0821 29.296 80.0341 29.552V30H69.5061V29.552ZM77.2501 19.792H79.0101C81.9541 19.792 83.6181 17.744 83.6181 14.736C83.6181 11.632 81.9541 9.52 79.0101 9.52H77.2501V19.792ZM93.2026 29.552C94.4186 29.232 94.8666 28.848 94.8666 27.536V17.328C94.8666 16.336 94.2586 15.728 93.0746 15.568L92.5946 15.504V15.056L99.1546 13.232H99.6026V27.536C99.6026 28.848 100.051 29.232 101.267 29.552V30H93.2026V29.552ZM94.1306 8.624C94.1306 7.024 95.4106 5.808 97.1386 5.808C98.8666 5.808 100.147 7.024 100.147 8.624C100.147 10.256 98.8666 11.504 97.1386 11.504C95.4106 11.504 94.1306 10.256 94.1306 8.624ZM110.013 30.48C105.565 30.48 103.197 26.672 103.197 22.416C103.197 16.656 106.621 13.232 110.525 13.232C112.445 13.232 113.757 13.936 114.525 15.024V11.216C114.525 10.128 113.821 9.616 112.765 9.456L112.285 9.392V8.944L118.813 7.12H119.261V26.384C119.261 27.472 119.965 27.984 121.053 28.144L121.533 28.176V28.624L115.197 30.48H114.749L114.557 27.088C113.757 29.2 111.965 30.48 110.013 30.48ZM108.157 21.2C108.157 24.592 109.213 27.92 111.837 27.92C113.053 27.92 114.141 27.184 114.525 26.032V19.728C114.525 16.432 113.629 14.576 111.485 14.576C109.597 14.576 108.157 17.456 108.157 21.2ZM130.762 30.448C125.418 30.448 122.666 26.512 122.666 22.224C122.666 16.848 125.962 13.264 130.954 13.264C135.69 13.264 137.834 16.048 137.866 20.336H127.274V20.432C127.114 24.752 129.546 27.088 133.066 27.088C135.05 27.088 136.618 26 137.482 24.592L137.866 24.72C137.29 27.792 134.954 30.448 130.762 30.448ZM127.338 19.44H133.162C133.098 17.232 132.298 14.16 130.442 14.16C128.522 14.16 127.594 16.656 127.338 19.44ZM147.304 30.448C143.752 30.448 140.936 28.848 139.912 26.832L143.208 25.072C143.848 27.728 145.608 29.552 147.656 29.552C149.224 29.552 150.408 28.624 150.408 27.216C150.408 22.352 140.712 25.04 140.68 18.48C140.68 15.44 143.304 13.264 147.368 13.264C150.28 13.264 152.904 14.384 153.736 16.496L150.696 18.064C149.96 15.76 148.456 14.16 146.76 14.16C145.352 14.16 144.328 15.056 144.328 16.368C144.328 20.656 154.12 18.416 154.152 25.104C154.184 28.304 151.208 30.448 147.304 30.448Z" fill="white"/>
</svg>
