<svg width="12" height="16" viewBox="0 0 12 16" fill="none" xmlns="http://www.w3.org/2000/svg">
<path d="M6 13.293C5.68935 13.293 5.4375 13.5448 5.4375 13.8555C5.4375 14.1661 5.68935 14.418 6 14.418C6.31065 14.418 6.5625 14.1661 6.5625 13.8555C6.5625 13.5448 6.31065 13.293 6 13.293ZM10.125 6.91797V6.16797C10.125 3.88979 8.2782 2.04297 6 2.04297C3.72182 2.04297 1.875 3.88979 1.875 6.16797V6.91797H3.75C4.16421 6.91797 4.5 7.25374 4.5 7.66797V10.668C4.5 11.0822 4.16421 11.418 3.75 11.418H1.875V11.6055C1.875 12.4986 2.56887 13.2297 3.44696 13.2891L3.5625 13.293L4.40859 13.2927C4.64033 12.6375 5.2653 12.168 6 12.168C6.93195 12.168 7.6875 12.9235 7.6875 13.8555C7.6875 14.7874 6.93195 15.543 6 15.543C5.265 15.543 4.6398 15.0731 4.40832 14.4174L3.5625 14.418C2.0593 14.418 0.831547 13.2387 0.7539 11.7549L0.75 11.6055V6.16797C0.75 3.26848 3.10051 0.917969 6 0.917969C8.8995 0.917969 11.25 3.26848 11.25 6.16797V9.91797C11.25 10.7088 10.6381 11.3566 9.86197 11.4138L9.75 11.418H8.25C7.8654 11.418 7.54837 11.1285 7.50502 10.7554L7.5 10.668V7.66797C7.5 7.28337 7.7895 6.96634 8.16255 6.92299L8.25 6.91797H10.125ZM3.375 8.04297H1.875V10.293H3.375V8.04297ZM10.125 8.04297H8.625V10.293H9.75C9.93412 10.293 10.0872 10.1603 10.1189 9.98539L10.125 9.91797V8.04297Z" fill="#ECAE00"/>
</svg>
