<svg width="16" height="14" viewBox="0 0 16 14" fill="none" xmlns="http://www.w3.org/2000/svg">
<path d="M8.61474 1.60182L7.99921 2.2187L7.38174 1.60127C5.80748 0.0269634 3.25502 0.0269634 1.68073 1.60127C0.106424 3.17556 0.106424 5.72801 1.68073 7.30233L7.60224 13.2238C7.82191 13.4435 8.17809 13.4435 8.39776 13.2238L14.3238 7.30121C15.8946 5.72171 15.8973 3.17641 14.3228 1.60182C12.7456 0.0246534 10.1919 0.0246534 8.61474 1.60182ZM13.5261 6.50793L7.99996 12.0306L2.47622 6.50681C1.34125 5.37183 1.34125 3.53172 2.47622 2.39676C3.61118 1.26179 5.45131 1.26179 6.58629 2.39676L7.60434 3.41484C7.82776 3.63824 8.19129 3.63389 8.40924 3.4052L9.41026 2.39732C10.5481 1.25949 12.3894 1.25949 13.5272 2.39732C14.6625 3.53255 14.6606 5.36726 13.5261 6.50793Z" fill="#ECAE00"/>
</svg>
