<svg width="12" height="11" viewBox="0 0 12 11" fill="none" xmlns="http://www.w3.org/2000/svg">
<path d="M10.375 5.5C10.375 3.08375 8.41622 1.125 6 1.125C4.85136 1.125 3.80612 1.56765 3.02554 2.29167H3.8125C4.05412 2.29167 4.25 2.48754 4.25 2.72917C4.25 2.97079 4.05412 3.16667 3.8125 3.16667H2.0625C1.82088 3.16667 1.625 2.97079 1.625 2.72917V0.979167C1.625 0.737544 1.82088 0.541667 2.0625 0.541667C2.30412 0.541667 2.5 0.737544 2.5 0.979167V1.58681C3.42882 0.755493 4.65538 0.25 6 0.25C8.89952 0.25 11.25 2.60051 11.25 5.5C11.25 8.39952 8.89952 10.75 6 10.75C3.10051 10.75 0.75 8.39952 0.75 5.5C0.75 5.22682 0.77086 4.95855 0.811081 4.69663C0.843917 4.48278 1.03363 4.33333 1.24996 4.33333C1.51772 4.33333 1.7116 4.58895 1.67238 4.85384C1.64117 5.06472 1.625 5.28043 1.625 5.5C1.625 7.91622 3.58375 9.875 6 9.875C8.41622 9.875 10.375 7.91622 10.375 5.5ZM6.29167 3.02083C6.29167 2.77921 6.09578 2.58333 5.85417 2.58333C5.61255 2.58333 5.41667 2.77921 5.41667 3.02083V5.64583C5.41667 5.88745 5.61255 6.08333 5.85417 6.08333H7.3125C7.55412 6.08333 7.75 5.88745 7.75 5.64583C7.75 5.40422 7.55412 5.20833 7.3125 5.20833H6.29167V3.02083Z" fill="#ECAE00"/>
</svg>
