<svg width="15" height="14" viewBox="0 0 15 14" fill="none" xmlns="http://www.w3.org/2000/svg">
<path d="M13.125 7C13.125 3.89339 10.6066 1.375 7.5 1.375C6.02318 1.375 4.6793 1.94412 3.6757 2.875H4.6875C4.99816 2.875 5.25 3.12684 5.25 3.4375C5.25 3.74816 4.99816 4 4.6875 4H2.4375C2.12684 4 1.875 3.74816 1.875 3.4375V1.1875C1.875 0.876842 2.12684 0.625 2.4375 0.625C2.74816 0.625 3 0.876842 3 1.1875V1.96876C4.1942 0.89992 5.7712 0.25 7.5 0.25C11.228 0.25 14.25 3.27208 14.25 7C14.25 10.728 11.228 13.75 7.5 13.75C3.77208 13.75 0.75 10.728 0.75 7C0.75 6.64878 0.77682 6.30385 0.828533 5.9671C0.87075 5.69215 1.11467 5.5 1.39281 5.5C1.73707 5.5 1.98634 5.82865 1.93592 6.16922C1.89579 6.44035 1.875 6.7177 1.875 7C1.875 10.1066 4.39339 12.625 7.5 12.625C10.6066 12.625 13.125 10.1066 13.125 7ZM7.875 3.8125C7.875 3.50184 7.62315 3.25 7.3125 3.25C7.00185 3.25 6.75 3.50184 6.75 3.8125V7.1875C6.75 7.49815 7.00185 7.75 7.3125 7.75H9.1875C9.49815 7.75 9.75 7.49815 9.75 7.1875C9.75 6.87685 9.49815 6.625 9.1875 6.625H7.875V3.8125Z" fill="#1A1300"/>
</svg>
