<svg width="14" height="15" viewBox="0 0 14 15" fill="none" xmlns="http://www.w3.org/2000/svg">
<path d="M8.08787 0.899411C7.45945 0.369468 6.54055 0.369468 5.91213 0.899403L0.84964 5.16849C0.469413 5.48913 0.25 5.96116 0.25 6.45853V13.4409C0.25 14.1658 0.837625 14.7534 1.5625 14.7534H12.4375C13.1624 14.7534 13.75 14.1658 13.75 13.4409V6.45853C13.75 5.96116 13.5306 5.48913 13.1504 5.16849L8.08787 0.899411ZM6.63738 1.75944C6.84685 1.58279 7.15315 1.58279 7.36262 1.75944L12.4251 6.02852C12.5519 6.13539 12.625 6.29274 12.625 6.45853V13.4409C12.625 13.5445 12.5411 13.6284 12.4375 13.6284H1.5625C1.45895 13.6284 1.375 13.5445 1.375 13.4409V6.45853C1.375 6.29274 1.44814 6.13539 1.57488 6.02852L6.63738 1.75944ZM7.5625 3.68799C7.5625 3.37733 7.31065 3.12549 7 3.12549C6.68935 3.12549 6.4375 3.37733 6.4375 3.68799V4.81299C6.4375 5.12364 6.68935 5.37549 7 5.37549C7.31065 5.37549 7.5625 5.12364 7.5625 4.81299V3.68799ZM7 6.87549C7.31065 6.87549 7.5625 7.12734 7.5625 7.43799V8.56299C7.5625 8.87364 7.31065 9.12549 7 9.12549C6.68935 9.12549 6.4375 8.87364 6.4375 8.56299V7.43799C6.4375 7.12734 6.68935 6.87549 7 6.87549ZM7.5625 11.188C7.5625 10.8773 7.31065 10.6255 7 10.6255C6.68935 10.6255 6.4375 10.8773 6.4375 11.188V12.313C6.4375 12.6236 6.68935 12.8755 7 12.8755C7.31065 12.8755 7.5625 12.6236 7.5625 12.313V11.188Z" fill="#1A1300"/>
</svg>
