<?xml version="1.0" encoding="UTF-8"?>
<!DOCTYPE svg PUBLIC "-//W3C//DTD SVG 1.1//EN" "http://www.w3.org/Graphics/SVG/1.1/DTD/svg11.dtd">
<svg xmlns="http://www.w3.org/2000/svg" version="1.1" width="64px" height="64px" style="shape-rendering:geometricPrecision; text-rendering:geometricPrecision; image-rendering:optimizeQuality; fill-rule:evenodd; clip-rule:evenodd" xmlns:xlink="http://www.w3.org/1999/xlink">
<g><path style="opacity:0.877" fill="#000000" d="M 28.5,5.5 C 32.458,4.57229 35.1246,5.90562 36.5,9.5C 40.7424,10.9106 43.9091,13.5773 46,17.5C 47.2441,26.0912 47.9108,34.7579 48,43.5C 50.4603,44.755 51.627,46.755 51.5,49.5C 46.8333,49.5 42.1667,49.5 37.5,49.5C 38.8254,54.8273 36.8254,57.494 31.5,57.5C 26.1746,57.494 24.1746,54.8273 25.5,49.5C 20.8333,49.5 16.1667,49.5 11.5,49.5C 11.373,46.755 12.5397,44.755 15,43.5C 15.3333,35.5 15.6667,27.5 16,19.5C 18.0317,14.6352 21.5317,11.3018 26.5,9.5C 27.3624,8.23415 28.0291,6.90082 28.5,5.5 Z M 30.5,13.5 C 35.7827,14.0599 39.616,16.7265 42,21.5C 43.3215,29.4393 43.8215,37.4393 43.5,45.5C 35.5,45.5 27.5,45.5 19.5,45.5C 19.1367,37.4295 19.6367,29.4295 21,21.5C 23.1608,17.4952 26.3275,14.8286 30.5,13.5 Z M 30.5,50.5 C 32.337,50.6395 32.6704,51.3061 31.5,52.5C 30.7025,52.0431 30.3691,51.3764 30.5,50.5 Z"/></g>
</svg>
