<svg width="18" height="18" viewBox="0 0 18 18" fill="none" xmlns="http://www.w3.org/2000/svg">
<rect x="10.8721" y="5.46875" width="5.50459" height="11.0092" rx="2" transform="rotate(32.3463 10.8721 5.46875)" fill="#FFD970"/>
<path d="M8.93182 10.4993L14.8148 10.5004C15.7468 10.5004 16.5023 11.2559 16.5023 12.1879V12.8667C16.5023 13.6869 16.1442 14.4663 15.5219 15.0006C14.3477 16.0086 12.6675 16.5012 10.5 16.5012L10.3658 16.5004C10.541 16.1474 10.5475 15.7321 10.3855 15.3745L10.5 15.3762C12.42 15.3762 13.8434 14.9589 14.789 14.147C15.1625 13.8265 15.3773 13.3589 15.3773 12.8667V12.1879C15.3773 11.8772 15.1255 11.6254 14.8148 11.6254H8.98312C8.9943 11.5015 9 11.3764 9 11.2505C9 10.994 8.9766 10.7429 8.93182 10.4993ZM4.875 7.87547C6.73896 7.87547 8.25 9.3865 8.25 11.2505C8.25 12.0708 7.95727 12.8228 7.47067 13.4077L9.58702 15.5184C9.807 15.7378 9.80745 16.094 9.588 16.3139C9.38858 16.5138 9.07605 16.5323 8.8557 16.3692L8.79255 16.3148L6.61519 14.1428C6.10705 14.4491 5.51161 14.6255 4.875 14.6255C3.01104 14.6255 1.5 13.1144 1.5 11.2505C1.5 9.3865 3.01104 7.87547 4.875 7.87547ZM4.875 9.00047C3.63236 9.00047 2.625 10.0078 2.625 11.2505C2.625 12.4931 3.63236 13.5005 4.875 13.5005C6.11764 13.5005 7.125 12.4931 7.125 11.2505C7.125 10.0078 6.11764 9.00047 4.875 9.00047ZM10.5 1.50391C12.571 1.50391 14.25 3.18284 14.25 5.25391C14.25 7.32498 12.571 9.00392 10.5 9.00392C8.42895 9.00392 6.75 7.32498 6.75 5.25391C6.75 3.18284 8.42895 1.50391 10.5 1.50391ZM10.5 2.62891C9.05025 2.62891 7.875 3.80416 7.875 5.25391C7.875 6.70366 9.05025 7.87892 10.5 7.87892C11.9497 7.87892 13.125 6.70366 13.125 5.25391C13.125 3.80416 11.9497 2.62891 10.5 2.62891Z" fill="#212121"/>
</svg>
