<svg width="67" height="45" viewBox="0 0 67 45" fill="none" xmlns="http://www.w3.org/2000/svg">
<path d="M20.1276 28.6288C15.5937 28.6288 13.9879 32.8794 13.7518 35.0047H25.7951C25.7951 32.8794 24.6616 28.6288 20.1276 28.6288Z" fill="#ECAE00"/>
<path d="M6.66745 13.7518V5.95902H60.5082V10.918M6.66745 13.7518V39.9637H60.5082V10.918M6.66745 13.7518H11.6265V10.918H60.5082M11.6265 8.08431H31.4625M35.7131 18.7108H54.8408M35.7131 22.2529H54.8408M35.7131 25.0867H54.8408M35.7131 28.6288H54.8408M1 13.0433V1H13.7518M1 30.7541V44.2143H15.877M52.007 44.2143H65.4672V30.7541M65.4672 15.1686V1H52.7155M13.7518 35.0047H11.6265V16.5855H27.9204V35.0047H25.7951M13.7518 35.0047C13.9879 32.8794 15.5937 28.6288 20.1276 28.6288C24.6616 28.6288 25.7951 32.8794 25.7951 35.0047M13.7518 35.0047H25.7951" stroke="#FFD970" stroke-width="1.41686" stroke-linecap="round"/>
<circle cx="20.2852" cy="22.4888" r="3.85701" fill="#ECAE00"/>
</svg>
