<svg width="14" height="14" viewBox="0 0 14 14" fill="none" xmlns="http://www.w3.org/2000/svg">
<path d="M2.6875 0.25H11.3125C12.6123 0.25 13.6744 1.26734 13.7462 2.54918L13.75 2.6875V11.3125C13.75 12.6123 12.7326 13.6744 11.4508 13.7462L11.3125 13.75H2.6875C1.38773 13.75 0.325563 12.7326 0.253855 11.4508L0.25 11.3125V2.6875C0.25 1.38773 1.26734 0.325563 2.54918 0.253855L2.6875 0.25ZM4.24376 8.875H1.375V11.3125C1.375 12.0012 1.90533 12.5659 2.57985 12.6206L2.6875 12.625H11.3125C12.0012 12.625 12.5659 12.0947 12.6206 11.4201L12.625 11.3125V8.875H9.75625C9.5053 10.1112 8.44353 11.053 7.15023 11.121L7 11.125C5.68975 11.125 4.58874 10.229 4.27628 9.0163L4.24376 8.875ZM11.3125 1.375H2.6875C1.99887 1.375 1.43411 1.90533 1.37935 2.57985L1.375 2.6875V7.75H4.75C5.03477 7.75 5.27012 7.96165 5.30736 8.23615L5.3125 8.3125C5.3125 9.24445 6.06805 10 7 10C7.89318 10 8.6242 9.3061 8.6836 8.428L8.6875 8.3125C8.6875 8.02773 8.89915 7.79237 9.17365 7.7551L9.25 7.75H12.625V2.6875C12.625 1.99887 12.0947 1.43411 11.4201 1.37935L11.3125 1.375ZM3.0625 5.125H10.9375C11.2481 5.125 11.5 5.37684 11.5 5.6875C11.5 5.97227 11.2884 6.20763 11.0139 6.2449L10.9375 6.25H3.0625C2.75184 6.25 2.5 5.99815 2.5 5.6875C2.5 5.40273 2.71161 5.16738 2.98617 5.13014L3.0625 5.125ZM3.0625 2.875H10.9375C11.2481 2.875 11.5 3.12684 11.5 3.4375C11.5 3.72228 11.2884 3.95762 11.0139 3.99486L10.9375 4H3.0625C2.75184 4 2.5 3.74816 2.5 3.4375C2.5 3.15272 2.71161 2.91738 2.98617 2.88014L3.0625 2.875Z" fill="#1A1300"/>
</svg>
