<svg width="12" height="13" viewBox="0 0 12 13" fill="none" xmlns="http://www.w3.org/2000/svg">
<path d="M6.00026 0.665527C9.22242 0.665527 11.8345 3.2776 11.8345 6.49976C11.8345 9.72192 9.22242 12.334 6.00026 12.334C2.77809 12.334 0.166016 9.72192 0.166016 6.49976C0.166016 3.2776 2.77809 0.665527 6.00026 0.665527ZM6.00026 1.54053C3.26134 1.54053 1.04102 3.76085 1.04102 6.49976C1.04102 9.23869 3.26134 11.459 6.00026 11.459C8.73918 11.459 10.9595 9.23869 10.9595 6.49976C10.9595 3.76085 8.73918 1.54053 6.00026 1.54053ZM5.9981 5.62418C6.21959 5.62406 6.40276 5.78851 6.43187 6.00207L6.43589 6.06139L6.43799 9.27066C6.43817 9.51227 6.2424 9.70833 6.00078 9.70845C5.77929 9.70862 5.59613 9.54412 5.56702 9.33062L5.56299 9.27124L5.56089 6.06197C5.56078 5.82036 5.75648 5.62436 5.9981 5.62418ZM6.00049 3.58383C6.32226 3.58383 6.58307 3.84465 6.58307 4.16639C6.58307 4.48812 6.32226 4.74894 6.00049 4.74894C5.67878 4.74894 5.41798 4.48812 5.41798 4.16639C5.41798 3.84465 5.67878 3.58383 6.00049 3.58383Z" fill="#ECAE00"/>
</svg>
