<svg width="16" height="16" viewBox="0 0 16 16" fill="none" xmlns="http://www.w3.org/2000/svg">
<path d="M11.7495 5.60509C12.2672 5.60509 12.687 5.18536 12.687 4.66759C12.687 4.14982 12.2672 3.73009 11.7495 3.73009C11.2317 3.73009 10.812 4.14982 10.812 4.66759C10.812 5.18536 11.2317 5.60509 11.7495 5.60509ZM5.71191 5.86758C5.71191 3.15692 7.91375 0.955078 10.6244 0.955078C13.3222 0.955078 15.5369 3.06922 15.5369 5.79258C15.5369 6.87212 15.1877 7.87098 14.5962 8.6821C14.4852 8.59158 14.3698 8.50615 14.25 8.42613C14.0548 8.29563 13.8505 8.18125 13.6392 8.08353C14.1239 7.44708 14.4119 6.65299 14.4119 5.79258C14.4119 3.71594 12.7266 2.08008 10.6244 2.08008C8.53505 2.08008 6.8369 3.77824 6.8369 5.86758C6.8369 6.06438 6.86255 6.27172 6.90282 6.50119C6.97617 6.91908 6.85212 7.36038 6.53832 7.67418L1.8615 12.351C1.68568 12.5268 1.58691 12.7653 1.58691 13.0139V14.6426C1.58691 14.7462 1.67086 14.8301 1.77441 14.8301H3.64941C3.75297 14.8301 3.83691 14.7462 3.83691 14.6426V13.5176C3.83691 12.9998 4.25664 12.5801 4.77441 12.5801H6.08691V11.2676C6.08691 10.7799 6.45937 10.3791 6.93537 10.3343L7.74335 11.1422C7.63295 11.2305 7.53717 11.3361 7.46015 11.4551H7.2119V12.7676C7.2119 13.2854 6.7922 13.7051 6.27441 13.7051H4.96191V14.6426C4.96191 15.3675 4.37429 15.9551 3.64941 15.9551H1.77441C1.04954 15.9551 0.461914 15.3675 0.461914 14.6426V13.0139C0.461914 12.4669 0.679212 11.9423 1.066 11.5555L5.74284 6.87866C5.7837 6.83781 5.80812 6.7717 5.79476 6.69559C5.74954 6.43786 5.71191 6.15799 5.71191 5.86758ZM9.33522 7.87795C9.5549 7.65828 9.5549 7.30218 9.33522 7.0825C9.11555 6.86281 8.75945 6.86281 8.53977 7.0825L7.03977 8.5825C6.8201 8.80218 6.8201 9.15828 7.03977 9.37795L8.53977 10.878C8.75945 11.0976 9.11555 11.0976 9.33522 10.878C9.5549 10.6583 9.5549 10.3022 9.33522 10.0825L8.79552 9.54273H11.75C12.2691 9.54273 12.7767 9.6967 13.2084 9.98515C13.6401 10.2735 13.9765 10.6836 14.1752 11.1632C14.3739 11.6428 14.4258 12.1707 14.3245 12.6798C14.2233 13.189 13.9733 13.6568 13.6062 14.0239C13.239 14.391 12.7713 14.641 12.2621 14.7423C11.7529 14.8436 11.2251 14.7916 10.7454 14.5929C10.2658 14.3943 9.8558 14.0578 9.56742 13.6261C9.27897 13.1944 9.125 12.6869 9.125 12.1677C9.125 11.8571 8.87315 11.6052 8.5625 11.6052C8.25185 11.6052 8 11.8571 8 12.1677C8 12.9094 8.2199 13.6344 8.63202 14.2512C9.04407 14.8678 9.62975 15.3485 10.3149 15.6323C11.0001 15.9161 11.7541 15.9904 12.4816 15.8457C13.209 15.701 13.8772 15.3438 14.4016 14.8194C14.9261 14.295 15.2832 13.6268 15.4279 12.8994C15.5727 12.1719 15.4983 11.4179 15.2145 10.7327C14.9307 10.0475 14.4501 9.4618 13.8334 9.04975C13.2167 8.63763 12.4917 8.41773 11.75 8.41773H8.79552L9.33522 7.87795Z" fill="#ECAE00"/>
</svg>
