<svg width="14" height="14" viewBox="0 0 14 14" fill="none" xmlns="http://www.w3.org/2000/svg">
<path d="M8.00856 5.03646C7.82856 5.30033 7.64823 5.54663 7.49083 5.75413C7.24103 6.08348 6.7593 6.08348 6.5095 5.75413C6.34296 5.53457 6.1507 5.27156 5.96036 4.99027C5.8607 4.84291 5.7615 4.69053 5.66683 4.53675C5.29964 3.94037 5.00016 3.32294 5.00016 2.89551C5.00016 1.79094 5.89556 0.666748 7.00016 0.666748C8.10476 0.666748 9.00016 1.79094 9.00016 2.89551C9.00016 3.24614 8.79863 3.72464 8.5235 4.21449C8.3677 4.49189 8.1883 4.77294 8.00856 5.03646ZM7.58096 3.4809C7.83476 3.29953 8.00016 3.00246 8.00016 2.66675C8.00016 2.11446 7.55243 1.66675 7.00016 1.66675C6.4479 1.66675 6.00016 2.11446 6.00016 2.66675C6.00016 3.00246 6.16556 3.29953 6.41936 3.4809C6.5831 3.59789 6.78356 3.66674 7.00016 3.66674C7.21676 3.66674 7.41723 3.59789 7.58096 3.4809ZM3.05193 7.88208L5.50602 5.50666C5.31869 5.23621 5.12724 4.94243 4.95616 4.64715L0.993256 8.48301C0.571569 8.89115 0.333496 9.45295 0.333496 10.0398V12.5001C0.333496 13.3285 1.00507 14.0001 1.8335 14.0001H12.1668C12.9952 14.0001 13.6668 13.3285 13.6668 12.5001V10.0398C13.6668 9.45295 13.4288 8.89115 13.0071 8.48301L9.04416 4.64715C8.8731 4.94243 8.68163 5.23621 8.4943 5.50666L9.88183 6.84975C9.40743 6.90675 8.9597 7.02061 8.53516 7.15901C8.08116 7.30708 7.6129 7.49975 7.17496 7.67988C6.91676 7.78608 6.66916 7.88795 6.44123 7.97381C5.7861 8.22048 5.18938 8.38241 4.5866 8.36181C4.1131 8.34568 3.6091 8.21568 3.05193 7.88208ZM1.68875 9.20155L2.31285 8.59741C3.08452 9.11155 3.82462 9.33641 4.55252 9.36121C5.35389 9.38855 6.09876 9.17128 6.79363 8.90961C7.0857 8.79961 7.3565 8.68768 7.6217 8.57801C8.02423 8.41155 8.41376 8.25048 8.84523 8.10975C9.50623 7.89421 10.1724 7.76408 10.8898 7.82528L12.3116 9.20155C12.5386 9.42135 12.6668 9.72381 12.6668 10.0398V12.5001C12.6668 12.7762 12.443 13.0001 12.1668 13.0001H1.8335C1.55736 13.0001 1.3335 12.7762 1.3335 12.5001V10.0398C1.3335 9.72381 1.46169 9.42135 1.68875 9.20155Z" fill="#5C5C5C"/>
</svg>
