<svg width="12" height="12" viewBox="0 0 12 12" fill="none" xmlns="http://www.w3.org/2000/svg">
<rect x="1.03638" y="6.15918" width="3.66973" height="7.33945" rx="1.83486" transform="rotate(-40.966 1.03638 6.15918)" fill="#FFD970"/>
<path d="M6.96145 1.39225C6.42705 0.869574 5.57295 0.869574 5.03855 1.39225L1.48876 4.86422C1.17619 5.16995 1 5.5887 1 6.02595V9.37496C1 9.99625 1.50368 10.5 2.125 10.5H5.14525C4.98428 10.2834 4.79967 10.0227 4.62745 9.74996H2.125C1.91789 9.74996 1.75 9.58206 1.75 9.37496V6.02595C1.75 5.7905 1.84487 5.565 2.01318 5.4004L2.47903 4.94475C3.05958 5.33265 3.61628 5.50225 4.16377 5.52095C4.76481 5.54145 5.3235 5.37845 5.8446 5.1822C6.06365 5.0997 6.26675 5.01575 6.46565 4.93349C6.76755 4.80866 7.05975 4.68784 7.3833 4.58232C7.8843 4.41893 8.38925 4.32101 8.9338 4.37047L9.9868 5.4004C10.1551 5.565 10.25 5.7905 10.25 6.02595V9.37496C10.25 9.58206 10.0821 9.74996 9.875 9.74996H7.37255C7.20035 10.0227 7.0157 10.2834 6.85475 10.5H9.875C10.4963 10.5 11 9.99625 11 9.37496V6.02595C11 5.5887 10.8238 5.16995 10.5112 4.86422L6.96145 1.39225ZM5.563 1.92843C5.8059 1.69085 6.1941 1.69085 6.437 1.92843L8.18165 3.63483C7.8181 3.67674 7.4754 3.76341 7.1508 3.86927C6.81025 3.98032 6.45905 4.12479 6.1306 4.25991C5.937 4.33955 5.75125 4.41596 5.5803 4.48033C5.089 4.66535 4.64142 4.78679 4.18934 4.77137C3.83173 4.75917 3.45093 4.66039 3.02958 4.40628L5.563 1.92843ZM5.632 10.3155C5.71955 10.4309 5.845 10.4924 5.973 10.5C5.991 10.501 6.009 10.501 6.027 10.5C6.155 10.4924 6.28045 10.4309 6.368 10.3155C6.49145 10.1528 6.63375 9.95816 6.77485 9.74996C7.1414 9.20916 7.5 8.5766 7.5 8.1715C7.5 7.3431 6.82845 6.49995 6 6.49995C5.17155 6.49995 4.5 7.3431 4.5 8.1715C4.5 8.5766 4.85861 9.20916 5.22515 9.74996C5.36625 9.95816 5.50855 10.1528 5.632 10.3155ZM6.75 7.99996C6.75 8.41416 6.4142 8.74996 6 8.74996C5.5858 8.74996 5.25 8.41416 5.25 7.99996C5.25 7.58575 5.5858 7.24996 6 7.24996C6.4142 7.24996 6.75 7.58575 6.75 7.99996Z" fill="#212121"/>
</svg>
