<svg width="16" height="13" viewBox="0 0 16 13" fill="none" xmlns="http://www.w3.org/2000/svg">
<path d="M5.37661 6.04308C5.79171 6.04308 6.12823 6.37961 6.12823 6.79473C6.12823 7.20986 5.79171 7.54631 5.37661 7.54631C4.96151 7.54631 4.625 7.20986 4.625 6.79473C4.625 6.37961 4.96151 6.04308 5.37661 6.04308ZM8 0.683731V5.29308L8.00037 5.67183L13.5815 5.67108L12.2897 4.37828C12.0901 4.17855 12.0719 3.86605 12.2353 3.64586L12.2899 3.58279C12.4896 3.38312 12.802 3.36502 13.0222 3.52845L13.0853 3.58292L15.3328 5.83113C15.5323 6.03071 15.5506 6.34286 15.3875 6.56306L15.3331 6.62613L13.0857 8.87868C12.8663 9.09866 12.5101 9.09903 12.2902 8.87966C12.0903 8.68016 12.0717 8.36771 12.2349 8.14728L12.2893 8.08413L13.574 6.79608L8.00037 6.79683L8 11.8556C8 12.2054 7.6841 12.4704 7.3397 12.4095L0.964662 11.2836C0.695908 11.2361 0.5 11.0025 0.5 10.7296V1.7306C0.5 1.45512 0.699507 1.22018 0.971352 1.17554L7.34637 0.128663C7.68883 0.0724281 8 0.336683 8 0.683731ZM6.875 1.34613L1.625 2.20826V10.2578L6.875 11.1851V1.34613ZM8.75 11.2941L9.3239 11.2942L9.40025 11.289C9.67513 11.2517 9.88685 11.0159 9.8864 10.7307L9.881 7.54308H8.75V11.2941ZM8.7515 4.9181L8.75 3.96211V1.1681L9.30898 1.1681C9.59338 1.1681 9.82858 1.37924 9.86623 1.65344L9.87148 1.72967L9.8765 4.9181H8.7515Z" fill="#ECAE00"/>
</svg>
