<svg width="15" height="16" viewBox="0 0 15 16" fill="none" xmlns="http://www.w3.org/2000/svg">
<path d="M13.875 8C13.875 4.47919 11.0208 1.625 7.5 1.625C3.97919 1.625 1.125 4.47919 1.125 8C1.125 11.5208 3.97919 14.375 7.5 14.375C11.0208 14.375 13.875 11.5208 13.875 8ZM15 8C15 12.1421 11.6421 15.5 7.5 15.5C3.35786 15.5 0 12.1421 0 8C0 3.85786 3.35786 0.5 7.5 0.5C11.6421 0.5 15 3.85786 15 8ZM3.75 8.9375C4.26777 8.9375 4.6875 8.5178 4.6875 8C4.6875 7.4822 4.26777 7.0625 3.75 7.0625C3.23223 7.0625 2.8125 7.4822 2.8125 8C2.8125 8.5178 3.23223 8.9375 3.75 8.9375ZM7.5 8.9375C8.0178 8.9375 8.4375 8.5178 8.4375 8C8.4375 7.4822 8.0178 7.0625 7.5 7.0625C6.9822 7.0625 6.5625 7.4822 6.5625 8C6.5625 8.5178 6.9822 8.9375 7.5 8.9375ZM11.25 8.9375C11.7678 8.9375 12.1875 8.5178 12.1875 8C12.1875 7.4822 11.7678 7.0625 11.25 7.0625C10.7322 7.0625 10.3125 7.4822 10.3125 8C10.3125 8.5178 10.7322 8.9375 11.25 8.9375Z" fill="#1A1300"/>
</svg>
