<svg width="77" height="77" viewBox="0 0 77 77" fill="none" xmlns="http://www.w3.org/2000/svg">
<circle cx="38.5" cy="38.5" r="37.2377" stroke="#FFD970" stroke-width="2.52459"/>
<path d="M24.2499 37.1668C24.2499 28.5604 31.2268 21.5835 39.8333 21.5835C48.4396 21.5835 55.4166 28.5604 55.4166 37.1668C55.4166 45.7732 48.4396 52.7502 39.8333 52.7502C39.642 52.7502 39.4514 52.7467 39.2618 52.7399C38.9566 53.6877 38.5358 54.5837 38.0162 55.4112C38.6139 55.4701 39.2202 55.5002 39.8333 55.5002C49.9584 55.5002 58.1666 47.292 58.1666 37.1668C58.1666 27.0416 49.9584 18.8335 39.8333 18.8335C29.708 18.8335 21.4999 27.0416 21.4999 37.1668C21.4999 37.7799 21.53 38.3862 21.5888 38.9838C22.4164 38.4643 23.3124 38.0435 24.2602 37.7383C24.2534 37.5487 24.2499 37.358 24.2499 37.1668ZM39.8206 27.3553C39.7297 26.6844 39.154 26.1668 38.4583 26.1668C37.6993 26.1668 37.0833 26.7828 37.0833 27.5418V38.5418L37.0959 38.7283C37.1868 39.3993 37.7625 39.9168 38.4583 39.9168H45.7916L45.978 39.9042C46.649 39.8132 47.1666 39.2376 47.1666 38.5418C47.1666 37.7828 46.5506 37.1668 45.7916 37.1668H39.8333V27.5418L39.8206 27.3553ZM37.9999 49.0835C37.9999 54.6524 33.4855 59.1668 27.9166 59.1668C22.3477 59.1668 17.8333 54.6524 17.8333 49.0835C17.8333 43.5146 22.3477 39.0002 27.9166 39.0002C33.4855 39.0002 37.9999 43.5146 37.9999 49.0835ZM27.9166 47.7871L24.8981 44.7686C24.5401 44.4107 23.9597 44.4107 23.6017 44.7686C23.2437 45.1266 23.2437 45.707 23.6017 46.0651L26.6202 49.0835L23.6017 52.1019C23.2437 52.4599 23.2437 53.0404 23.6017 53.3984C23.9597 53.7563 24.5401 53.7563 24.8981 53.3984L27.9166 50.3798L30.9351 53.3984C31.2931 53.7563 31.8734 53.7563 32.2314 53.3984C32.5894 53.0404 32.5894 52.4599 32.2314 52.1019L29.213 49.0835L32.2314 46.0651C32.5894 45.707 32.5894 45.1266 32.2314 44.7686C31.8734 44.4107 31.2931 44.4107 30.9351 44.7686L27.9166 47.7871Z" fill="#ECAE00"/>
</svg>
