<svg width="18" height="19" viewBox="0 0 18 19" fill="none" xmlns="http://www.w3.org/2000/svg">
<path d="M12.7727 8.69069C12.9924 8.47102 12.9924 8.11492 12.7727 7.89522C12.5531 7.67555 12.1969 7.67555 11.9773 7.89522L8.25 11.6224L6.77275 10.1452C6.55308 9.92557 6.19692 9.92557 5.97725 10.1452C5.75758 10.3649 5.75758 10.721 5.97725 10.9407L7.85227 12.8157C8.07195 13.0354 8.42805 13.0354 8.64773 12.8157L12.7727 8.69069ZM11.9955 3.48134C11.932 2.60732 11.2028 1.91797 10.3125 1.91797H7.6875C6.81904 1.91797 6.10381 2.57401 6.01034 3.41755L4.6875 3.41797C3.75552 3.41797 3 4.17349 3 5.10547V15.2305C3 16.1624 3.75552 16.918 4.6875 16.918H13.3125C14.2444 16.918 15 16.1624 15 15.2305V5.10547C15 4.17349 14.2444 3.41797 13.3125 3.41797L11.9897 3.41755C11.992 3.4387 11.9939 3.45996 11.9955 3.48134ZM11.9961 3.48993L12 3.60547C12 3.56663 11.9987 3.52811 11.9961 3.48993ZM7.6875 5.29297H10.3125C10.8975 5.29297 11.4131 4.99527 11.7157 4.54309L13.3125 4.54297C13.6231 4.54297 13.875 4.79481 13.875 5.10547V15.2305C13.875 15.5411 13.6231 15.793 13.3125 15.793H4.6875C4.37684 15.793 4.125 15.5411 4.125 15.2305V5.10547C4.125 4.79481 4.37684 4.54297 4.6875 4.54297L6.28426 4.54312C6.587 4.99529 7.10248 5.29297 7.6875 5.29297ZM7.6875 3.04297H10.3125C10.6231 3.04297 10.875 3.29481 10.875 3.60547C10.875 3.91613 10.6231 4.16797 10.3125 4.16797H7.6875C7.37684 4.16797 7.125 3.91613 7.125 3.60547C7.125 3.29481 7.37684 3.04297 7.6875 3.04297Z" fill="#ECAE00"/>
</svg>
