<svg width="12" height="16" viewBox="0 0 12 16" fill="none" xmlns="http://www.w3.org/2000/svg">
<path d="M9.77273 7.69069C9.9924 7.47102 9.9924 7.11492 9.77273 6.89522C9.55305 6.67555 9.19695 6.67555 8.97727 6.89522L5.25 10.6224L3.77275 9.14524C3.55308 8.92557 3.19692 8.92557 2.97725 9.14524C2.75758 9.36492 2.75758 9.72102 2.97725 9.94069L4.85227 11.8157C5.07195 12.0354 5.42805 12.0354 5.64773 11.8157L9.77273 7.69069ZM8.9955 2.48134C8.93198 1.60732 8.20275 0.917969 7.3125 0.917969H4.6875C3.81904 0.917969 3.10381 1.57401 3.01034 2.41755L1.6875 2.41797C0.75552 2.41797 0 3.17349 0 4.10547V14.2305C0 15.1624 0.75552 15.918 1.6875 15.918H10.3125C11.2444 15.918 12 15.1624 12 14.2305V4.10547C12 3.17349 11.2444 2.41797 10.3125 2.41797L8.98965 2.41755C8.99197 2.4387 8.99393 2.45996 8.9955 2.48134ZM8.9961 2.48993L9 2.60547C9 2.56663 8.99872 2.52811 8.9961 2.48993ZM4.6875 4.29297H7.3125C7.8975 4.29297 8.41305 3.99527 8.71575 3.54309L10.3125 3.54297C10.6231 3.54297 10.875 3.79481 10.875 4.10547V14.2305C10.875 14.5411 10.6231 14.793 10.3125 14.793H1.6875C1.37684 14.793 1.125 14.5411 1.125 14.2305V4.10547C1.125 3.79481 1.37684 3.54297 1.6875 3.54297L3.28426 3.54312C3.587 3.99529 4.10248 4.29297 4.6875 4.29297ZM4.6875 2.04297H7.3125C7.62315 2.04297 7.875 2.29481 7.875 2.60547C7.875 2.91613 7.62315 3.16797 7.3125 3.16797H4.6875C4.37684 3.16797 4.125 2.91613 4.125 2.60547C4.125 2.29481 4.37684 2.04297 4.6875 2.04297Z" fill="#ECAE00"/>
</svg>
