<svg width="16" height="12" viewBox="0 0 16 12" fill="none" xmlns="http://www.w3.org/2000/svg">
<path d="M10.8125 7.875C10.5019 7.875 10.25 8.12685 10.25 8.4375C10.25 8.74815 10.5019 9 10.8125 9H12.6875C12.9981 9 13.25 8.74815 13.25 8.4375C13.25 8.12685 12.9981 7.875 12.6875 7.875H10.8125ZM0.5 3.1875C0.5 1.8413 1.5913 0.75 2.9375 0.75H13.0625C14.4087 0.75 15.5 1.8413 15.5 3.1875V8.8125C15.5 10.1587 14.4087 11.25 13.0625 11.25H2.9375C1.5913 11.25 0.5 10.1587 0.5 8.8125V3.1875ZM14.375 4.125V3.1875C14.375 2.46263 13.7874 1.875 13.0625 1.875H2.9375C2.21263 1.875 1.625 2.46263 1.625 3.1875V4.125H14.375ZM1.625 5.25V8.8125C1.625 9.53738 2.21263 10.125 2.9375 10.125H13.0625C13.7874 10.125 14.375 9.53738 14.375 8.8125V5.25H1.625Z" fill="#ECAE00"/>
</svg>
