<svg width="12" height="13" viewBox="0 0 12 13" fill="none" xmlns="http://www.w3.org/2000/svg">
<path d="M11.2218 1.27789C10.4065 0.462675 9.08479 0.46271 8.26964 1.27798L1.29877 8.24966C1.06174 8.48673 0.895145 8.78487 0.817503 9.11095L0.178409 11.7952C0.143222 11.943 0.187223 12.0984 0.29465 12.2058C0.402082 12.3133 0.557552 12.3573 0.705346 12.3221L3.38941 11.683C3.71561 11.6053 4.01385 11.4387 4.25095 11.2016L11.2218 4.22986C12.0369 3.41466 12.0369 2.09304 11.2218 1.27789ZM8.88839 1.89666C9.36182 1.42314 10.1295 1.42312 10.603 1.89661C11.0765 2.37007 11.0765 3.13769 10.6031 3.61118L10.0832 4.13119L8.36852 2.41657L8.88839 1.89666ZM7.74984 3.03533L9.46449 4.74994L3.6322 10.5829C3.50961 10.7055 3.3554 10.7917 3.18674 10.8318L1.19428 11.3062L1.66871 9.31366C1.70885 9.14502 1.79498 8.9909 1.91752 8.86835L7.74984 3.03533Z" fill="#ECAE00"/>
</svg>
