<svg width="19" height="18" viewBox="0 0 19 18" fill="none" xmlns="http://www.w3.org/2000/svg">
<rect x="0.4021" y="6.83008" width="5.50459" height="11.0092" rx="2" transform="rotate(-25.7525 0.4021 6.83008)" fill="#FFD970"/>
<path d="M15.6689 2.11919L15.7837 2.22748L15.8919 2.34221C16.8304 3.39613 16.7943 5.01231 15.7837 6.02297L6.80737 14.9993C6.59972 15.2069 6.34147 15.3568 6.05815 15.434L2.22138 16.4804C1.80147 16.5949 1.41617 16.2096 1.5307 15.7897L2.57708 11.953C2.65435 11.6696 2.80423 11.4114 3.01188 11.2037L11.9881 2.22748C12.9988 1.21682 14.615 1.18072 15.6689 2.11919ZM11.261 4.54566L3.80737 11.9993C3.73816 12.0685 3.6882 12.1545 3.66244 12.249L2.87506 15.1361L5.76214 14.3486C5.85658 14.3229 5.94266 14.2729 6.01188 14.2037L13.4653 6.74991L11.261 4.54566ZM4.90462 8.24993L3.77962 9.37493L2.07337 9.37523C1.76271 9.37523 1.51087 9.12338 1.51087 8.81273C1.51087 8.50208 1.76271 8.25023 2.07337 8.25023L4.90462 8.24993ZM7.9046 5.24991L6.77962 6.37491L2.07337 6.37523C1.76271 6.37523 1.51087 6.12339 1.51087 5.81273C1.51087 5.50207 1.76271 5.25023 2.07337 5.25023L7.9046 5.24991ZM12.7837 3.02297L12.056 3.7499L14.2603 5.95491L14.9881 5.22748C15.5969 4.61873 15.5969 3.63173 14.9881 3.02297C14.3794 2.41422 13.3924 2.41422 12.7837 3.02297ZM10.9046 2.24991L9.7796 3.3749L2.07337 3.37523C1.76271 3.37523 1.51087 3.12339 1.51087 2.81273C1.51087 2.50207 1.76271 2.25023 2.07337 2.25023L10.9046 2.24991Z" fill="#212121"/>
</svg>
