<svg width="12" height="13" viewBox="0 0 12 13" fill="none" xmlns="http://www.w3.org/2000/svg">
<path d="M8.26964 1.27798L1.29877 8.24966C1.06174 8.48673 0.895145 8.78487 0.817503 9.11095L0.178409 11.7952C0.143222 11.943 0.187223 12.0984 0.29465 12.2058C0.402082 12.3133 0.557552 12.3573 0.705346 12.3221L3.38941 11.683C3.71561 11.6053 4.01385 11.4387 4.25095 11.2016L4.92248 10.53C4.86397 10.2654 4.83317 9.99039 4.83317 9.70817C4.83317 9.59302 4.8383 9.47909 4.84834 9.36657L3.6322 10.5829C3.50961 10.7055 3.3554 10.7917 3.18674 10.8318L1.19428 11.3062L1.66871 9.31366C1.70885 9.14502 1.79498 8.9909 1.91752 8.86835L7.74984 3.03533L9.46449 4.74994L8.28283 5.93173C8.39547 5.92164 8.50957 5.9165 8.62484 5.9165C8.90688 5.9165 9.18174 5.9473 9.44623 6.00569L11.2218 4.22986C12.0369 3.41466 12.0369 2.09304 11.2218 1.27789C10.4065 0.462675 9.08479 0.46271 8.26964 1.27798ZM10.603 1.89661C11.0765 2.37007 11.0765 3.13769 10.6031 3.61118L10.0832 4.13119L8.36852 2.41657L8.88839 1.89666C9.36182 1.42314 10.1295 1.42312 10.603 1.89661ZM11.8332 9.70817C11.8332 11.4801 10.3968 12.9165 8.62484 12.9165C6.8529 12.9165 5.4165 11.4801 5.4165 9.70817C5.4165 7.93624 6.8529 6.49984 8.62484 6.49984C10.3968 6.49984 11.8332 7.93624 11.8332 9.70817ZM7.9561 8.4561C8.06997 8.34218 8.06997 8.1575 7.9561 8.04357C7.84218 7.9297 7.6575 7.9297 7.54357 8.04357L6.66857 8.91857C6.5547 9.03249 6.5547 9.21718 6.66857 9.3311L7.54357 10.2061C7.6575 10.32 7.84218 10.32 7.9561 10.2061C8.06997 10.0922 8.06997 9.90749 7.9561 9.79357L7.57898 9.4165H8.77067C9.49552 9.4165 10.0832 10.0042 10.0832 10.729V10.8748C10.0832 11.0359 10.2138 11.1665 10.3748 11.1665C10.5359 11.1665 10.6665 11.0359 10.6665 10.8748V10.729C10.6665 9.68198 9.81769 8.83317 8.77067 8.83317H7.57898L7.9561 8.4561Z" fill="#ECAE00"/>
</svg>
