<svg width="15" height="14" viewBox="0 0 15 14" fill="none" xmlns="http://www.w3.org/2000/svg">
<path d="M10.7085 6.99984C12.4804 6.99984 13.9168 8.43624 13.9168 10.2082C13.9168 11.9801 12.4804 13.4165 10.7085 13.4165C8.93656 13.4165 7.50016 11.9801 7.50016 10.2082C7.50016 8.43624 8.93656 6.99984 10.7085 6.99984ZM8.521 1.1665C9.24585 1.1665 9.8335 1.75413 9.8335 2.479L9.83361 6.51795C9.52567 6.59069 9.23225 6.70094 8.95844 6.84368L8.9585 2.479C8.9585 2.23738 8.76261 2.0415 8.521 2.0415H4.146C3.90437 2.0415 3.7085 2.23738 3.7085 2.479V11.5207C3.7085 11.7623 3.90437 11.9582 4.146 11.9582L7.3443 11.9588C7.51183 12.2802 7.72416 12.5745 7.9729 12.8336L4.146 12.8332C3.42112 12.8332 2.8335 12.2455 2.8335 11.5207V2.479C2.8335 1.75413 3.42112 1.1665 4.146 1.1665H8.521ZM5.60367 10.2104L6.91683 10.2076C6.91683 10.5093 6.95195 10.8022 7.01827 11.0831L5.60499 11.0854C5.36337 11.0857 5.16719 10.8901 5.16683 10.6485C5.16647 10.4069 5.36205 10.2107 5.60367 10.2104ZM10.1252 8.1665C9.96416 8.1665 9.8335 8.29717 9.8335 8.45817V10.7915C9.8335 10.9525 9.96416 11.0832 10.1252 11.0832H11.876C12.037 11.0832 12.1677 10.9525 12.1677 10.7915C12.1677 10.6305 12.037 10.4998 11.876 10.4998H10.4168V8.45817C10.4168 8.29717 10.2862 8.1665 10.1252 8.1665Z" fill="#ECAE00"/>
</svg>
