<svg width="14" height="15" viewBox="0 0 14 15" fill="none" xmlns="http://www.w3.org/2000/svg">
<path d="M3.625 5.16797C4.86764 5.16797 5.875 4.16061 5.875 2.91797C5.875 1.67533 4.86764 0.667969 3.625 0.667969C2.38236 0.667969 1.375 1.67533 1.375 2.91797C1.375 4.16061 2.38236 5.16797 3.625 5.16797ZM3.625 4.04297C3.00368 4.04297 2.5 3.53929 2.5 2.91797C2.5 2.29665 3.00368 1.79297 3.625 1.79297C4.24632 1.79297 4.75 2.29665 4.75 2.91797C4.75 3.53929 4.24632 4.04297 3.625 4.04297ZM0.25 7.23047C0.25 6.50559 0.837625 5.91797 1.5625 5.91797H5.6875C6.41237 5.91797 7 6.50559 7 7.23047V10.793C7 12.6569 5.48896 14.168 3.625 14.168C1.76104 14.168 0.25 12.6569 0.25 10.793V7.23047ZM1.5625 7.04297C1.45895 7.04297 1.375 7.12689 1.375 7.23047V10.793C1.375 12.0356 2.38236 13.043 3.625 13.043C4.86764 13.043 5.875 12.0356 5.875 10.793V7.23047C5.875 7.12689 5.79108 7.04297 5.6875 7.04297H1.5625ZM5.89547 4.87874C6.22172 5.06289 6.59853 5.16797 6.99992 5.16797C8.24253 5.16797 9.24992 4.16061 9.24992 2.91797C9.24992 1.67533 8.24253 0.667969 6.99992 0.667969C6.59853 0.667969 6.22172 0.773051 5.89547 0.957199C6.14042 1.24056 6.33317 1.57026 6.45887 1.93136C6.61937 1.84314 6.8038 1.79297 6.99992 1.79297C7.62122 1.79297 8.12492 2.29665 8.12492 2.91797C8.12492 3.53929 7.62122 4.04297 6.99992 4.04297C6.8038 4.04297 6.61937 3.99279 6.45887 3.90458C6.33317 4.26568 6.14042 4.59537 5.89547 4.87874ZM6.14515 14.0588C6.41815 14.13 6.70458 14.168 6.99992 14.168C8.86382 14.168 10.3749 12.6569 10.3749 10.793V7.23047C10.3749 6.50559 9.7873 5.91797 9.06242 5.91797H7.27847C7.53565 6.22937 7.70312 6.61757 7.74152 7.04297H9.06242C9.16593 7.04297 9.24992 7.12689 9.24992 7.23047V10.793C9.24992 12.0075 8.2876 12.9973 7.08378 13.0414C6.82998 13.4311 6.51213 13.7752 6.14515 14.0588ZM9.27048 4.87874C9.59672 5.06289 9.97353 5.16797 10.3749 5.16797C11.6175 5.16797 12.6249 4.16061 12.6249 2.91797C12.6249 1.67533 11.6175 0.667969 10.3749 0.667969C9.97353 0.667969 9.59672 0.773051 9.27048 0.957199C9.51542 1.24056 9.70817 1.57026 9.83387 1.93136C9.99437 1.84314 10.1788 1.79297 10.3749 1.79297C10.9962 1.79297 11.4999 2.29665 11.4999 2.91797C11.4999 3.53929 10.9962 4.04297 10.3749 4.04297C10.1788 4.04297 9.99437 3.99279 9.83387 3.90458C9.70817 4.26568 9.51542 4.59537 9.27048 4.87874ZM9.52015 14.0588C9.79315 14.13 10.0796 14.168 10.3749 14.168C12.2388 14.168 13.7499 12.6569 13.7499 10.793V7.23047C13.7499 6.50559 13.1623 5.91797 12.4374 5.91797H10.6535C10.9107 6.22937 11.0781 6.61757 11.1165 7.04297H12.4374C12.5409 7.04297 12.6249 7.12689 12.6249 7.23047V10.793C12.6249 12.0075 11.6626 12.9973 10.4588 13.0414C10.205 13.4311 9.88713 13.7752 9.52015 14.0588Z" fill="#ECAE00"/>
</svg>
