<svg width="12" height="16" viewBox="0 0 12 16" fill="none" xmlns="http://www.w3.org/2000/svg">
<path d="M10.3159 9.91837C11.2474 9.91837 12.0025 10.6735 12.0025 11.605V12.0366C12.0025 12.7073 11.7628 13.3559 11.3267 13.8655C10.1497 15.2406 8.35927 15.9192 6.0003 15.9192C3.64087 15.9192 1.85136 15.2404 0.67664 13.8646C0.241812 13.3555 0.00292969 12.7078 0.00292969 12.0382V11.605C0.00292969 10.6735 0.758067 9.91837 1.68958 9.91837H10.3159ZM10.3159 11.0434H1.68958C1.37939 11.0434 1.12793 11.2948 1.12793 11.605V12.0382C1.12793 12.44 1.27126 12.8286 1.53215 13.1341C2.47213 14.2348 3.94654 14.7942 6.0003 14.7942C8.05402 14.7942 9.52972 14.2348 10.472 13.1339C10.7338 12.8281 10.8775 12.439 10.8775 12.0366V11.605C10.8775 11.2948 10.6261 11.0434 10.3159 11.0434ZM6.0003 0.921875C8.07135 0.921875 9.7503 2.60081 9.7503 4.67188C9.7503 6.74295 8.07135 8.42189 6.0003 8.42189C3.9292 8.42189 2.25027 6.74295 2.25027 4.67188C2.25027 2.60081 3.9292 0.921875 6.0003 0.921875ZM6.0003 2.04688C4.55055 2.04688 3.37527 3.22213 3.37527 4.67188C3.37527 6.12162 4.55055 7.29689 6.0003 7.29689C7.45005 7.29689 8.6253 6.12162 8.6253 4.67188C8.6253 3.22213 7.45005 2.04688 6.0003 2.04688Z" fill="#ECAE00"/>
</svg>
