<svg width="18" height="19" viewBox="0 0 18 19" fill="none" xmlns="http://www.w3.org/2000/svg">
<path d="M13.3159 10.9184C14.2474 10.9184 15.0025 11.6735 15.0025 12.605V13.0366C15.0025 13.7073 14.7628 14.3559 14.3267 14.8655C13.1497 16.2406 11.3593 16.9192 9.0003 16.9192C6.64087 16.9192 4.85136 16.2404 3.67664 14.8646C3.24181 14.3555 3.00293 13.7078 3.00293 13.0382V12.605C3.00293 11.6735 3.75807 10.9184 4.68958 10.9184H13.3159ZM13.3159 12.0434H4.68958C4.37939 12.0434 4.12793 12.2948 4.12793 12.605V13.0382C4.12793 13.44 4.27126 13.8286 4.53215 14.1341C5.47213 15.2348 6.94654 15.7942 9.0003 15.7942C11.054 15.7942 12.5297 15.2348 13.472 14.1339C13.7338 13.8281 13.8775 13.439 13.8775 13.0366V12.605C13.8775 12.2948 13.6261 12.0434 13.3159 12.0434ZM9.0003 1.92188C11.0713 1.92188 12.7503 3.60081 12.7503 5.67188C12.7503 7.74295 11.0713 9.42189 9.0003 9.42189C6.9292 9.42189 5.25027 7.74295 5.25027 5.67188C5.25027 3.60081 6.9292 1.92188 9.0003 1.92188ZM9.0003 3.04688C7.55055 3.04688 6.37527 4.22213 6.37527 5.67188C6.37527 7.12162 7.55055 8.29689 9.0003 8.29689C10.45 8.29689 11.6253 7.12162 11.6253 5.67188C11.6253 4.22213 10.45 3.04688 9.0003 3.04688Z" fill="#ECAE00"/>
</svg>
