<svg width="19" height="18" viewBox="0 0 19 18" fill="none" xmlns="http://www.w3.org/2000/svg">
<rect x="3.15063" y="13.3281" width="5.50459" height="11.0092" rx="2" transform="rotate(-70.3126 3.15063 13.3281)" fill="#FFD970"/>
<path d="M13.3452 10.5004C14.2767 10.5004 15.0318 11.2555 15.0318 12.1871V12.6186C15.0318 13.2893 14.7921 13.9379 14.356 14.4475C13.179 15.8226 11.3886 16.5012 9.02959 16.5012C6.67017 16.5012 4.88066 15.8224 3.70594 14.4467C3.27111 13.9375 3.03223 13.2899 3.03223 12.6203V12.1871C3.03223 11.2555 3.78736 10.5004 4.71888 10.5004H13.3452ZM13.3452 11.6254H4.71888C4.40869 11.6254 4.15723 11.8769 4.15723 12.1871V12.6203C4.15723 13.022 4.30056 13.4106 4.56145 13.7161C5.50143 14.8169 6.97584 15.3762 9.02959 15.3762C11.0833 15.3762 12.559 14.8169 13.5013 13.7159C13.7631 13.4102 13.9068 13.021 13.9068 12.6186V12.1871C13.9068 11.8769 13.6554 11.6254 13.3452 11.6254ZM9.02959 1.50391C11.1006 1.50391 12.7796 3.18284 12.7796 5.25391C12.7796 7.32498 11.1006 9.00392 9.02959 9.00392C6.9585 9.00392 5.27956 7.32498 5.27956 5.25391C5.27956 3.18284 6.9585 1.50391 9.02959 1.50391ZM9.02959 2.62891C7.57984 2.62891 6.40456 3.80416 6.40456 5.25391C6.40456 6.70366 7.57984 7.87892 9.02959 7.87892C10.4793 7.87892 11.6546 6.70366 11.6546 5.25391C11.6546 3.80416 10.4793 2.62891 9.02959 2.62891Z" fill="#0A0A0A"/>
</svg>
