<svg width="12" height="13" viewBox="0 0 12 13" fill="none" xmlns="http://www.w3.org/2000/svg">
<path d="M8.7085 5.99984C10.4804 5.99984 11.9168 7.43624 11.9168 9.20817C11.9168 10.9801 10.4804 12.4165 8.7085 12.4165C6.93656 12.4165 5.50016 10.9801 5.50016 9.20817C5.50016 7.43624 6.93656 5.99984 8.7085 5.99984ZM6.521 0.166504C7.24585 0.166504 7.8335 0.754131 7.8335 1.479L7.83361 5.51795C7.52567 5.59069 7.23225 5.70094 6.95844 5.84368L6.9585 1.479C6.9585 1.23738 6.76261 1.0415 6.521 1.0415H2.146C1.90437 1.0415 1.7085 1.23738 1.7085 1.479V10.5207C1.7085 10.7623 1.90437 10.9582 2.146 10.9582L5.3443 10.9588C5.51183 11.2802 5.72416 11.5745 5.9729 11.8336L2.146 11.8332C1.42112 11.8332 0.833496 11.2455 0.833496 10.5207V1.479C0.833496 0.754131 1.42112 0.166504 2.146 0.166504H6.521ZM3.60367 9.21039L4.91683 9.20759C4.91683 9.50929 4.95195 9.80224 5.01827 10.0831L3.60499 10.0854C3.36337 10.0857 3.16719 9.89015 3.16683 9.64853C3.16647 9.40691 3.36205 9.21074 3.60367 9.21039ZM8.12516 7.1665C7.96416 7.1665 7.8335 7.29717 7.8335 7.45817V9.7915C7.8335 9.9525 7.96416 10.0832 8.12516 10.0832H9.87604C10.037 10.0832 10.1677 9.9525 10.1677 9.7915C10.1677 9.6305 10.037 9.49984 9.87604 9.49984H8.41683V7.45817C8.41683 7.29717 8.28616 7.1665 8.12516 7.1665Z" fill="#ECAE00"/>
</svg>
