<svg width="4" height="15" viewBox="0 0 4 15" fill="none" xmlns="http://www.w3.org/2000/svg">
<path d="M1.83065 3.41129C0.957677 3.41129 0.25 2.70361 0.25 1.83065C0.25 0.957677 0.957677 0.25 1.83065 0.25C2.70361 0.25 3.41129 0.957677 3.41129 1.83065C3.41129 2.70361 2.70361 3.41129 1.83065 3.41129ZM1.83065 8.83064C0.957677 8.83064 0.25 8.12297 0.25 7.25C0.25 6.37703 0.957677 5.66935 1.83065 5.66935C2.70361 5.66935 3.41129 6.37703 3.41129 7.25C3.41129 8.12297 2.70361 8.83064 1.83065 8.83064ZM0.25 12.6694C0.25 13.5423 0.957677 14.25 1.83065 14.25C2.70361 14.25 3.41129 13.5423 3.41129 12.6694C3.41129 11.7964 2.70361 11.0887 1.83065 11.0887C0.957677 11.0887 0.25 11.7964 0.25 12.6694Z" fill="#ECAE00"/>
</svg>
