<svg width="24" height="28" viewBox="0 0 24 28" fill="none" xmlns="http://www.w3.org/2000/svg">
<path d="M15.3333 0.666992C17.7265 0.666992 19.6667 2.60709 19.6667 5.00033C19.6667 5.85973 19.4165 6.6607 18.9849 7.33438L22.3333 7.33366C23.2539 7.33366 24 8.07984 24 9.00033V13.667C24 14.4729 23.428 15.1451 22.6679 15.3001L22.6667 23.0003C22.6667 25.311 20.858 27.1993 18.5792 27.3269L18.3333 27.3337H5.66667C3.35596 27.3337 1.46767 25.525 1.34019 23.2462L1.33333 23.0003L1.3334 15.3003C0.572627 15.1459 0 14.4734 0 13.667V9.00033C0 8.07984 0.746187 7.33366 1.66667 7.33366L5.01501 7.33438C4.58351 6.6607 4.33333 5.85973 4.33333 5.00033C4.33333 2.60709 6.27343 0.666992 8.66667 0.666992C10.0073 0.666992 11.2059 1.27587 12.0008 2.23221C12.7941 1.27587 13.9927 0.666992 15.3333 0.666992ZM11 15.3323H3.33333V23.0003C3.33333 24.2246 4.27615 25.2286 5.47529 25.3259L5.66667 25.3337H11V15.3323ZM20.6667 15.3323H13V25.3337H18.3333C19.5576 25.3337 20.5616 24.3909 20.6589 23.1917L20.6667 23.0003V15.3323ZM11 9.33366H2V13.3337L11 13.3323V9.33366ZM22 13.3337V9.33366H13V13.3323L22 13.3337ZM15.3333 2.66699C14.0447 2.66699 13 3.71166 13 5.00033V7.33233H15.3653L15.5247 7.32593C16.7239 7.22858 17.6667 6.22455 17.6667 5.00033C17.6667 3.71166 16.622 2.66699 15.3333 2.66699ZM8.66667 2.66699C7.378 2.66699 6.33333 3.71166 6.33333 5.00033C6.33333 6.22455 7.27615 7.22858 8.47529 7.32593L8.63467 7.33233H11V5.00033L10.9923 4.80895C10.8949 3.60981 9.89093 2.66699 8.66667 2.66699Z" fill="#ECAE00"/>
</svg>
