<svg width="262" height="36" viewBox="0 0 262 36" fill="none" xmlns="http://www.w3.org/2000/svg">
<rect width="262" height="36" rx="2" fill="white"/>
<path d="M241.5 11.0625C244.503 11.0625 246.938 13.497 246.938 16.5C246.938 17.7989 246.482 18.9914 245.722 19.9266L249.398 23.6023C249.617 23.8219 249.617 24.1781 249.398 24.3977C249.198 24.5975 248.886 24.6156 248.665 24.4522L248.602 24.3977L244.927 20.7221C243.991 21.482 242.799 21.9375 241.5 21.9375C238.497 21.9375 236.062 19.5031 236.062 16.5C236.062 13.497 238.497 11.0625 241.5 11.0625ZM241.5 12.1875C239.118 12.1875 237.188 14.1183 237.188 16.5C237.188 18.8817 239.118 20.8125 241.5 20.8125C243.882 20.8125 245.812 18.8817 245.812 16.5C245.812 14.1183 243.882 12.1875 241.5 12.1875Z" fill="#1A1300"/>
<path d="M11.056 21V12.6H11.776V21H11.056ZM13.7479 21V15.048H14.4439V16.152C14.6599 15.76 14.9559 15.452 15.3319 15.228C15.7079 14.996 16.1079 14.88 16.5319 14.88C17.1319 14.88 17.6279 15.052 18.0199 15.396C18.4199 15.732 18.6199 16.252 18.6199 16.956V21H17.9239V17.028C17.9239 16.54 17.7799 16.16 17.4919 15.888C17.2039 15.616 16.8279 15.48 16.3639 15.48C15.8599 15.48 15.4119 15.692 15.0199 16.116C14.6359 16.532 14.4439 17.036 14.4439 17.628V21H13.7479ZM20.2987 23.448V15.048H20.9947V16.248C21.1867 15.848 21.4787 15.52 21.8707 15.264C22.2707 15.008 22.7147 14.88 23.2027 14.88C23.9947 14.88 24.6587 15.184 25.1947 15.792C25.7387 16.392 26.0107 17.136 26.0107 18.024C26.0107 18.92 25.7427 19.668 25.2067 20.268C24.6787 20.868 24.0067 21.168 23.1907 21.168C22.7027 21.168 22.2627 21.06 21.8707 20.844C21.4867 20.628 21.1947 20.324 20.9947 19.932V23.448H20.2987ZM24.6787 19.86C25.0867 19.38 25.2907 18.768 25.2907 18.024C25.2907 17.28 25.0867 16.672 24.6787 16.2C24.2707 15.72 23.7467 15.48 23.1067 15.48C22.4667 15.48 21.9427 15.72 21.5347 16.2C21.1267 16.68 20.9227 17.288 20.9227 18.024C20.9227 18.76 21.1267 19.368 21.5347 19.848C21.9427 20.328 22.4667 20.568 23.1067 20.568C23.7467 20.568 24.2707 20.332 24.6787 19.86ZM27.33 19.032V15.048H28.026V19.02C28.026 19.508 28.166 19.888 28.446 20.16C28.726 20.432 29.098 20.568 29.562 20.568C30.09 20.568 30.542 20.348 30.918 19.908C31.294 19.468 31.482 18.92 31.482 18.264V15.048H32.178V21H31.482V19.908C31.29 20.284 31.006 20.588 30.63 20.82C30.262 21.052 29.866 21.168 29.442 21.168C28.81 21.168 28.298 20.988 27.906 20.628C27.522 20.26 27.33 19.728 27.33 19.032ZM34.4428 19.572V15.576H33.3988V15.048H34.4428V13.44H35.1388V15.048H36.6148V15.576H35.1388V19.608C35.1388 20.248 35.4228 20.568 35.9908 20.568C36.1268 20.568 36.2748 20.544 36.4348 20.496L36.4948 21.072C36.2868 21.136 36.0708 21.168 35.8468 21.168C35.4228 21.168 35.0828 21.032 34.8268 20.76C34.5708 20.48 34.4428 20.084 34.4428 19.572ZM41.0353 23.412L41.1553 22.776C41.3233 22.84 41.4673 22.872 41.5873 22.872C41.9313 22.872 42.1873 22.66 42.3553 22.236L42.8593 21L40.4233 15.048H41.2033L43.2193 20.1L45.2593 15.048H46.0153L42.9673 22.44C42.8153 22.816 42.6313 23.088 42.4153 23.256C42.2073 23.432 41.9393 23.52 41.6113 23.52C41.4033 23.52 41.2113 23.484 41.0353 23.412ZM47.3097 20.304C46.7257 19.728 46.4337 18.968 46.4337 18.024C46.4337 17.08 46.7257 16.32 47.3097 15.744C47.9017 15.168 48.6257 14.88 49.4817 14.88C50.3377 14.88 51.0577 15.168 51.6417 15.744C52.2337 16.32 52.5297 17.08 52.5297 18.024C52.5297 18.968 52.2337 19.728 51.6417 20.304C51.0577 20.88 50.3377 21.168 49.4817 21.168C48.6257 21.168 47.9017 20.88 47.3097 20.304ZM51.1617 19.848C51.6097 19.36 51.8337 18.752 51.8337 18.024C51.8337 17.296 51.6097 16.692 51.1617 16.212C50.7137 15.724 50.1537 15.48 49.4817 15.48C48.8097 15.48 48.2497 15.724 47.8017 16.212C47.3537 16.692 47.1297 17.296 47.1297 18.024C47.1297 18.752 47.3537 19.36 47.8017 19.848C48.2497 20.328 48.8097 20.568 49.4817 20.568C50.1537 20.568 50.7137 20.328 51.1617 19.848ZM53.8495 19.032V15.048H54.5455V19.02C54.5455 19.508 54.6855 19.888 54.9655 20.16C55.2455 20.432 55.6175 20.568 56.0815 20.568C56.6095 20.568 57.0615 20.348 57.4375 19.908C57.8135 19.468 58.0015 18.92 58.0015 18.264V15.048H58.6975V21H58.0015V19.908C57.8095 20.284 57.5255 20.588 57.1495 20.82C56.7815 21.052 56.3855 21.168 55.9615 21.168C55.3295 21.168 54.8175 20.988 54.4255 20.628C54.0415 20.26 53.8495 19.728 53.8495 19.032ZM60.4589 21V15.048H61.1549V16.176C61.2989 15.8 61.5269 15.492 61.8389 15.252C62.1509 15.004 62.4949 14.88 62.8709 14.88C63.0549 14.88 63.2189 14.9 63.3629 14.94L63.2429 15.54C63.0989 15.5 62.9509 15.48 62.7989 15.48C62.3669 15.48 61.9829 15.708 61.6469 16.164C61.3189 16.62 61.1549 17.148 61.1549 17.748V21H60.4589ZM67.3751 18.024C67.3591 17.152 67.6511 16.408 68.2511 15.792C68.8591 15.168 69.5711 14.864 70.3871 14.88C71.5871 14.88 72.4311 15.384 72.9191 16.392L72.4031 16.716C71.9551 15.908 71.2911 15.504 70.4111 15.504C69.7471 15.504 69.1951 15.736 68.7551 16.2C68.3151 16.664 68.0951 17.272 68.0951 18.024C68.0951 18.776 68.3111 19.384 68.7431 19.848C69.1831 20.312 69.7391 20.544 70.4111 20.544C70.8671 20.544 71.2511 20.448 71.5631 20.256C71.8831 20.064 72.1671 19.772 72.4151 19.38L72.8951 19.704C72.3351 20.68 71.4991 21.168 70.3871 21.168C69.5231 21.168 68.8031 20.872 68.2271 20.28C67.6591 19.68 67.3751 18.928 67.3751 18.024ZM74.287 21V15.048H74.983V21H74.287ZM74.191 13.92V12.96H75.079V13.92H74.191ZM77.2865 19.572V15.576H76.2425V15.048H77.2865V13.44H77.9825V15.048H79.4585V15.576H77.9825V19.608C77.9825 20.248 78.2665 20.568 78.8345 20.568C78.9705 20.568 79.1185 20.544 79.2785 20.496L79.3385 21.072C79.1305 21.136 78.9145 21.168 78.6905 21.168C78.2665 21.168 77.9265 21.032 77.6705 20.76C77.4145 20.48 77.2865 20.084 77.2865 19.572ZM80.8439 23.412L80.9639 22.776C81.1319 22.84 81.2759 22.872 81.3959 22.872C81.7399 22.872 81.9959 22.66 82.1639 22.236L82.6679 21L80.2319 15.048H81.0119L83.0279 20.1L85.0679 15.048H85.8239L82.7759 22.44C82.6239 22.816 82.4399 23.088 82.2239 23.256C82.0159 23.432 81.7479 23.52 81.4199 23.52C81.2119 23.52 81.0199 23.484 80.8439 23.412Z" fill="#1A1300"/>
</svg>
