<svg width="15" height="14" viewBox="0 0 15 14" fill="none" xmlns="http://www.w3.org/2000/svg">
<path d="M6 0.0625C9.00307 0.0625 11.4375 2.49696 11.4375 5.5C11.4375 6.79892 10.982 7.99143 10.2221 8.9266L13.8977 12.6023C14.1174 12.8219 14.1174 13.1781 13.8977 13.3977C13.6981 13.5975 13.3856 13.6156 13.1653 13.4522L13.1023 13.3977L9.4266 9.72213C8.49143 10.482 7.29892 10.9375 6 10.9375C2.99696 10.9375 0.5625 8.50307 0.5625 5.5C0.5625 2.49696 2.99696 0.0625 6 0.0625ZM6 1.1875C3.61827 1.1875 1.6875 3.11827 1.6875 5.5C1.6875 7.8817 3.61827 9.8125 6 9.8125C8.3817 9.8125 10.3125 7.8817 10.3125 5.5C10.3125 3.11827 8.3817 1.1875 6 1.1875Z" fill="#ECAE00"/>
</svg>
