<svg width="14" height="16" viewBox="0 0 14 16" fill="none" xmlns="http://www.w3.org/2000/svg">
<path d="M10.75 0.873535C12.2005 0.873535 13.3764 2.04938 13.3764 3.49986C13.3764 4.95034 12.2005 6.12618 10.75 6.12618C9.9775 6.12618 9.28292 5.79269 8.8024 5.26182L5.38341 7.21512C5.4609 7.46292 5.50262 7.72655 5.50262 7.99985C5.50262 8.27322 5.4609 8.53677 5.38341 8.78457L8.80173 10.7387C9.28225 10.2073 9.97713 9.8735 10.75 9.8735C12.2005 9.8735 13.3764 11.0493 13.3764 12.4998C13.3764 13.9503 12.2005 15.1262 10.75 15.1262C9.2995 15.1262 8.12365 13.9503 8.12365 12.4998C8.12365 12.2265 8.16542 11.9629 8.2429 11.7151L4.82463 9.76107C4.34405 10.2924 3.64917 10.6262 2.87633 10.6262C1.42585 10.6262 0.25 9.45035 0.25 7.99985C0.25 6.54935 1.42585 5.37354 2.87633 5.37354C3.6488 5.37354 4.34338 5.70703 4.82394 6.2379L8.2429 4.28459C8.16542 4.03678 8.12365 3.7732 8.12365 3.49986C8.12365 2.04938 9.2995 0.873535 10.75 0.873535ZM10.75 10.9985C9.92087 10.9985 9.24865 11.6707 9.24865 12.4998C9.24865 13.329 9.92087 14.0012 10.75 14.0012C11.5791 14.0012 12.2514 13.329 12.2514 12.4998C12.2514 11.6707 11.5791 10.9985 10.75 10.9985ZM2.87633 6.49854C2.04716 6.49854 1.375 7.17072 1.375 7.99985C1.375 8.82905 2.04716 9.5012 2.87633 9.5012C3.70548 9.5012 4.37766 8.82905 4.37766 7.99985C4.37766 7.17072 3.70548 6.49854 2.87633 6.49854ZM10.75 1.99854C9.92087 1.99854 9.24865 2.6707 9.24865 3.49986C9.24865 4.32902 9.92087 5.00118 10.75 5.00118C11.5791 5.00118 12.2514 4.32902 12.2514 3.49986C12.2514 2.6707 11.5791 1.99854 10.75 1.99854Z" fill="#ECAE00"/>
</svg>
