<svg width="306" height="133" viewBox="0 0 306 133" fill="none" xmlns="http://www.w3.org/2000/svg">
<g opacity="0.5">
<path d="M11.7393 -90.9874C11.1939 -91.948 9.97317 -92.2846 9.0126 -91.7393C8.05203 -91.1939 7.71541 -89.9732 8.26073 -89.0126L11.7393 -90.9874ZM8.26073 -89.0126C26.3758 -57.1034 52.1681 -4.1216 70.6284 51.0348C79.8578 78.6109 87.2396 106.687 90.9226 132.916C94.6084 159.165 94.5707 183.437 89.0714 203.471L92.9286 204.529C98.6293 183.763 98.6082 158.885 94.8837 132.359C91.1562 105.813 83.7005 77.4891 74.4216 49.7652C55.8652 -5.67839 29.9575 -58.8966 11.7393 -90.9874L8.26073 -89.0126Z" fill="#ECAE00"/>
<path d="M288 -90C251.667 -26 184.6 122.4 207 204" stroke="#ECAE00" stroke-width="4" stroke-linecap="round"/>
<g opacity="0.2">
<path d="M0 -105C38.7364 -45.1696 109.075 102.335 80.541 213.712H146.124L146.124 -105L0 -105Z" fill="#ECAE00"/>
<path d="M163.383 -105L163.383 213.712H208.256C203.27 151.197 215.39 -0.0666428 303.754 -105L163.383 -105Z" fill="#ECAE00"/>
<path d="M146.124 -105L146.124 213.712H163.383L163.383 -105H146.124Z" fill="#FFD970"/>
</g>
<line x1="151.461" y1="238.921" x2="155.461" y2="-104.205" stroke="#ECAE00" stroke-width="3" stroke-dasharray="1.66 1.66"/>
</g>
</svg>
