<svg width="122" height="122" viewBox="0 0 122 122" fill="none" xmlns="http://www.w3.org/2000/svg">
<path d="M64.3564 24.4828C67.1443 22.5901 70.9438 23.3638 72.7695 26.196L77.1267 32.955C78.0157 34.3341 79.4308 35.289 81.0425 35.5973L88.9411 37.1079C92.2507 37.7409 94.3903 40.9746 93.6786 44.2683L91.9802 52.1286C91.6337 53.7325 91.9591 55.4083 92.8808 56.7659L97.3977 63.4192C99.2904 66.2071 98.5167 70.0066 95.6845 71.8323L88.9255 76.1895C87.5463 77.0785 86.5914 78.4936 86.2832 80.1053L84.7725 88.0038C84.1395 91.3135 80.9058 93.4531 77.6122 92.7414L69.7518 91.043C68.148 90.6965 66.4721 91.0219 65.1145 91.9436L58.4612 96.4605C55.6733 98.3532 51.8739 97.5795 50.0481 94.7473L45.691 87.9883C44.8019 86.6091 43.3868 85.6542 41.7751 85.346L33.8766 83.8353C30.5669 83.2023 28.4274 79.9686 29.1391 76.675L30.8374 68.8146C31.184 67.2108 30.8585 65.5349 29.9369 64.1773L25.42 57.524C23.5273 54.7361 24.301 50.9367 27.1332 49.1109L33.8922 44.7538C35.2713 43.8647 36.2262 42.4496 36.5345 40.8379L38.0451 32.9394C38.6781 29.6297 41.9118 27.4902 45.2055 28.2018L53.0658 29.9002C54.6697 30.2468 56.3455 29.9213 57.7031 28.9997L64.3564 24.4828Z" fill="#FFD970"/>
<path d="M44 62.9001L53.9334 72.8335L78.7669 48" stroke="#1A1300" stroke-width="3.13686" stroke-linecap="round" stroke-linejoin="round"/>
<path d="M4.18999 67.8276C3.17019 65.6949 2.64087 63.361 2.64087 60.9971C2.64087 58.6331 3.17019 56.2992 4.18999 54.1666C5.07666 52.3046 6.59666 50.5186 9.63666 46.9466C10.8527 45.5216 11.4607 44.8122 11.9673 44.0522C13.133 42.3137 13.9424 40.3613 14.3487 38.3079C14.526 37.4086 14.602 36.4776 14.7477 34.6156C15.1213 29.9416 15.305 27.6046 15.9953 25.6476C16.7837 23.4194 18.061 21.396 19.7333 19.7258C21.4057 18.0556 23.4308 16.781 25.66 15.9956C27.6107 15.3052 29.9477 15.1152 34.628 14.7479C36.49 14.5959 37.4147 14.5199 38.314 14.3426C40.3696 13.9371 42.3242 13.1277 44.0647 11.9612C44.8247 11.4546 45.534 10.8529 46.9526 9.63689C50.5246 6.59689 52.3107 5.07689 54.1727 4.18389C56.3053 3.16409 58.6392 2.63477 61.0031 2.63477C63.3671 2.63477 65.701 3.16409 67.8336 4.18389C69.702 5.07055 71.488 6.59055 75.0536 9.63689C76.4786 10.8529 77.188 11.4546 77.948 11.9612C79.6884 13.1277 81.6431 13.9371 83.6986 14.3426C84.5916 14.5199 85.5226 14.5959 87.3846 14.7479C92.065 15.1152 94.402 15.3052 96.3526 15.9956C98.5807 16.7818 100.605 18.0568 102.276 19.7269C103.947 21.397 105.223 23.42 106.011 25.6476M15.9953 96.3466C16.7831 98.5741 18.0593 100.597 19.7306 102.267C21.4018 103.937 23.4256 105.212 25.6537 105.999C27.6043 106.695 29.9413 106.879 34.6217 107.246C36.4837 107.398 37.4083 107.474 38.3077 107.652C40.3632 108.057 42.3179 108.866 44.0583 110.033C44.8183 110.54 45.5277 111.141 46.9463 112.357C50.5183 115.397 52.3043 116.917 54.1663 117.81C56.299 118.83 58.6329 119.359 60.9968 119.359C63.3607 119.359 65.6947 118.83 67.8273 117.81C69.6956 116.924 71.4817 115.404 75.0473 112.357C75.9681 111.529 76.9343 110.753 77.9417 110.033C79.6821 108.866 81.6367 108.057 83.6923 107.652C84.5853 107.474 85.5163 107.398 87.3783 107.246C92.0587 106.879 94.3956 106.689 96.3463 105.999C98.5743 105.212 100.598 103.937 102.269 102.267C103.941 100.597 105.217 98.5741 106.005 96.3466C106.695 94.3959 106.879 92.0526 107.252 87.3786C107.398 85.5166 107.474 84.5856 107.651 83.6862C108.057 81.6342 108.867 79.6772 110.033 77.9419C110.539 77.1819 111.147 76.4726 112.357 75.0476C115.397 71.4756 116.923 69.6896 117.816 67.8276C118.836 65.6949 119.365 63.361 119.365 60.9971C119.365 58.6331 118.836 56.2992 117.816 54.1666" stroke="#1A1300" stroke-width="4" stroke-linecap="round"/>
</svg>
