<svg width="356" height="352" viewBox="0 0 356 352" fill="none" xmlns="http://www.w3.org/2000/svg">
<g clip-path="url(#clip0_301_3585)">
<path d="M340.015 233.92C340.015 233.92 348.063 232.757 349.938 230.318C351.812 227.879 353.539 220.396 353.539 220.396C353.539 220.396 353.983 227.577 357.141 230.318C360.298 233.06 367.063 233.92 367.063 233.92C367.063 233.92 359.304 234.074 357.141 237.522C354.978 240.969 353.539 247.442 353.539 247.442C353.539 247.442 352.809 239.839 349.938 237.522C347.066 235.205 340.015 233.92 340.015 233.92Z" fill="#ECAE00"/>
<path d="M309.46 230.919C309.46 230.919 313.127 232.211 314.462 231.595C315.797 230.979 318.19 228.184 318.19 228.184C318.19 228.184 316.789 231.329 317.515 233.186C318.242 235.043 320.917 236.915 320.917 236.915C320.917 236.915 317.595 235.259 315.915 236.241C314.234 237.224 312.183 239.643 312.183 239.643C312.183 239.643 313.564 236.241 312.855 234.64C312.147 233.04 309.46 230.919 309.46 230.919Z" fill="#ECAE00"/>
<path d="M323.17 202.454C323.17 202.454 324.294 202.292 324.57 201.952C324.846 201.612 325.072 200.569 325.072 200.569C325.072 200.569 325.131 201.57 325.571 201.952C326.011 202.334 326.955 202.454 326.955 202.454C326.955 202.454 325.871 202.476 325.571 202.956C325.345 203.395 325.177 203.861 325.072 204.343C325.072 204.343 324.968 203.281 324.57 202.956C324.172 202.632 323.17 202.454 323.17 202.454Z" fill="#ECAE00"/>
<path d="M340.72 311.716C340.72 311.716 344.387 313.011 345.722 312.391C347.056 311.77 349.449 308.989 349.449 308.989C349.449 308.989 348.049 312.131 348.773 313.991C349.497 315.852 352.175 317.721 352.175 317.721C352.175 317.721 348.855 316.064 347.172 317.047C345.49 318.029 343.449 320.448 343.449 320.448C343.449 320.448 344.825 317.059 344.117 315.446C343.409 313.833 340.72 311.716 340.72 311.716Z" fill="#ECAE00"/>
<path d="M322.419 261.834C322.419 261.834 323.82 260.42 323.82 259.665C323.82 258.911 323.058 257.198 323.058 257.198C323.058 257.198 324.204 258.533 325.227 258.599C326.249 258.665 327.692 257.837 327.692 257.837C327.692 257.837 326.201 259.013 326.291 260.005C326.381 260.998 327.055 262.473 327.055 262.473C327.055 262.473 325.787 261.094 324.889 261.072C323.99 261.05 322.419 261.834 322.419 261.834Z" fill="#ECAE00"/>
<path d="M336.302 282.122C336.302 282.122 337.424 281.96 337.684 281.619C337.944 281.279 338.186 280.235 338.186 280.235C338.186 280.235 338.25 281.235 338.687 281.619C339.123 282.004 340.075 282.122 340.075 282.122C340.075 282.122 338.993 282.142 338.687 282.624C338.46 283.062 338.292 283.527 338.186 284.009C338.186 284.009 338.086 282.946 337.684 282.624C337.282 282.302 336.302 282.122 336.302 282.122Z" fill="#ECAE00"/>
<path d="M356.246 54.2685C356.246 54.2685 357.847 46.297 356.166 43.7139C354.486 41.1307 348.019 36.9989 348.019 36.9989C348.019 36.9989 354.932 38.9858 358.567 36.9249C362.203 34.8639 365.284 28.7812 365.284 28.7812C365.284 28.7812 362.835 36.1425 365.36 39.3359C367.886 42.5293 373.506 46.0489 373.506 46.0489C373.506 46.0489 366.085 44.1901 362.949 46.1249C359.814 48.0598 356.246 54.2685 356.246 54.2685Z" fill="#ECAE00"/>
<path d="M279.588 100.077C279.588 100.077 282.033 97.0495 281.893 95.5828C281.753 94.1162 279.935 90.9268 279.935 90.9268C279.935 90.9268 282.426 93.3038 284.427 93.2378C286.427 93.1718 289.083 91.2749 289.083 91.2749C289.083 91.2749 286.411 93.8521 286.77 95.7689C287.128 97.6858 288.736 100.423 288.736 100.423C288.736 100.423 285.999 97.9879 284.24 98.1119C282.482 98.236 279.588 100.077 279.588 100.077Z" fill="#ECAE00"/>
<path d="M253.899 16.7497C253.899 16.7497 253.033 14.9589 252.328 14.6988C251.624 14.4387 249.747 14.5948 249.747 14.5948C249.747 14.5948 251.384 13.9605 251.792 13.0221C252.2 12.0836 251.9 10.4409 251.9 10.4409C251.9 10.4409 252.5 12.2417 253.473 12.4858C254.445 12.7299 256.056 12.5939 256.056 12.5939C256.056 12.5939 254.333 13.3282 254.007 14.1706C253.681 15.0129 253.899 16.7497 253.899 16.7497Z" fill="#ECAE00"/>
<path d="M235.655 54.5566C235.655 54.5566 235.879 53.4421 235.641 53.084C235.403 52.7258 234.504 52.1455 234.504 52.1455C234.504 52.1455 235.471 52.4237 235.979 52.1355C236.487 51.8474 236.915 50.999 236.915 50.999C236.915 50.999 236.571 52.0275 236.927 52.4717C237.263 52.8328 237.645 53.1477 238.064 53.4081C238.064 53.4081 237.03 53.148 236.591 53.4081C236.153 53.6682 235.655 54.5566 235.655 54.5566Z" fill="#ECAE00"/>
<path d="M351.274 119.544C351.274 119.544 353.719 116.518 353.585 115.052C353.451 113.585 351.618 110.397 351.618 110.397C351.618 110.397 354.113 112.775 356.11 112.708C358.107 112.642 360.768 110.744 360.768 110.744C360.768 110.744 358.093 113.323 358.459 115.236C358.826 117.148 360.424 119.892 360.424 119.892C360.424 119.892 357.689 117.457 355.93 117.581C354.171 117.705 351.274 119.544 351.274 119.544Z" fill="#ECAE00"/>
<path d="M315.552 84.3297C315.552 84.3297 314.686 82.541 313.98 82.2828C313.273 82.0247 311.396 82.1768 311.396 82.1768C311.396 82.1768 313.045 81.5425 313.443 80.6041C313.842 79.6657 313.549 78.0229 313.549 78.0229C313.549 78.0229 314.15 79.8237 315.128 80.0719C316.107 80.32 317.709 80.1779 317.709 80.1779C317.709 80.1779 315.985 80.9122 315.658 81.7506C315.332 82.589 315.552 84.3297 315.552 84.3297Z" fill="#ECAE00"/>
<path d="M309.354 22.0643C309.354 22.0643 310.326 21.4841 310.438 21.0639C310.55 20.6437 310.366 19.5952 310.366 19.5952C310.366 19.5952 310.814 20.4956 311.366 20.6777C311.919 20.8598 312.837 20.6077 312.837 20.6077C312.837 20.6077 311.837 21.0479 311.755 21.6081C311.711 22.0997 311.732 22.5949 311.819 23.0808C311.819 23.0808 311.318 22.1383 310.818 21.9943C310.318 21.8502 309.354 22.0643 309.354 22.0643Z" fill="#ECAE00"/>
<path d="M349.9 12.2421C349.9 12.2421 350.872 11.6619 350.982 11.2417C351.092 10.8215 350.914 9.76904 350.914 9.76904C350.914 9.76904 351.356 10.6694 351.914 10.8535C352.473 11.0376 353.387 10.7855 353.387 10.7855C353.387 10.7855 352.387 11.2237 352.305 11.7859C352.264 12.2777 352.287 12.7726 352.373 13.2586C352.373 13.2586 351.868 12.3182 351.372 12.1741C350.876 12.03 349.9 12.2421 349.9 12.2421Z" fill="#ECAE00"/>
<path d="M61.5097 59.2506C61.5097 59.2506 54.9068 54.5145 54.3605 51.4851C53.8143 48.4558 55.7292 41.0205 55.7292 41.0205C55.7292 41.0205 52.0275 47.1952 47.9617 48.1717C43.8959 49.1481 37.4971 46.8051 37.4971 46.8051C37.4971 46.8051 44.3121 50.5127 44.6482 54.5665C44.9844 58.6203 43.2836 65.0352 43.2836 65.0352C43.2836 65.0352 47.4335 58.6123 51.0491 57.882C54.6647 57.1517 61.5097 59.2506 61.5097 59.2506Z" fill="#ECAE00"/>
<path d="M90.0324 70.652C90.0324 70.652 86.1747 70.1097 85.2763 68.9452C84.3779 67.7807 83.5335 64.2031 83.5335 64.2031C83.5335 64.2031 83.3334 67.6407 81.8267 68.9592C80.3201 70.2778 77.0826 70.702 77.0826 70.702C77.0826 70.702 80.8003 70.76 81.8408 72.4068C82.8812 74.0535 83.5835 77.1489 83.5835 77.1489C83.5835 77.1489 83.9157 73.5032 85.2883 72.3948C86.6609 71.2863 90.0324 70.652 90.0324 70.652Z" fill="#ECAE00"/>
<path d="M57.8901 4.96664C57.8901 4.96664 57.2898 3.07581 57.63 2.40351C57.9701 1.73121 59.4428 0.562692 59.4428 0.562692C59.4428 0.562692 57.8141 1.22298 56.8717 0.812803C55.9292 0.402621 55.0328 -1 55.0328 -1C55.0328 -1 55.8152 0.728766 55.289 1.56514C54.7627 2.40151 53.4882 3.40395 53.4882 3.40395C53.4882 3.40395 55.2289 2.76567 56.0433 3.16585C56.8577 3.56602 57.8901 4.96664 57.8901 4.96664Z" fill="#ECAE00"/>
<path d="M90.9507 39.0758C90.9507 39.0758 90.0263 38.4175 89.9502 37.9934C89.8742 37.5692 90.1503 36.5327 90.1503 36.5327C90.1503 36.5327 89.6361 37.3931 89.0678 37.5332C88.4996 37.6732 87.6012 37.3331 87.6012 37.3331C87.6012 37.3331 88.5536 37.8513 88.6016 38.4156C88.598 38.9097 88.5307 39.4013 88.4016 39.8782C88.4016 39.8782 88.9818 38.9818 89.486 38.8778C89.9903 38.7737 90.9507 39.0758 90.9507 39.0758Z" fill="#ECAE00"/>
<path d="M25.0996 128.005C25.0996 128.005 21.2439 127.465 20.3455 126.3C19.4471 125.136 18.5987 121.558 18.5987 121.558C18.5987 121.558 18.3986 124.996 16.892 126.314C15.3853 127.633 12.1519 128.057 12.1519 128.057C12.1519 128.057 15.8695 128.119 16.908 129.764C17.9464 131.408 18.6527 134.506 18.6527 134.506C18.6527 134.506 18.9869 130.86 20.3575 129.75C21.7281 128.639 25.0996 128.005 25.0996 128.005Z" fill="#ECAE00"/>
<path d="M64.293 92.1332C64.293 92.1332 63.7047 90.2344 64.0449 89.5641C64.385 88.8938 65.8557 87.7233 65.8557 87.7233C65.8557 87.7233 64.225 88.3816 63.2865 87.9734C62.3481 87.5652 61.4497 86.1626 61.4497 86.1626C61.4497 86.1626 62.2301 87.8894 61.6938 88.7277C61.1576 89.5661 59.879 90.5706 59.879 90.5706C59.879 90.5706 61.6458 89.9323 62.4522 90.3224C63.2585 90.7126 64.293 92.1332 64.293 92.1332Z" fill="#ECAE00"/>
<path d="M42.6393 103.762C42.6393 103.762 41.7169 103.1 41.6389 102.676C41.5608 102.252 41.839 101.217 41.839 101.217C41.839 101.217 41.3267 102.08 40.7605 102.218C40.1942 102.356 39.2938 102.018 39.2938 102.018C39.2938 102.018 40.2462 102.532 40.2943 103.1C40.2974 103.593 40.2334 104.083 40.1042 104.559C40.1042 104.559 40.6864 103.664 41.1887 103.558C41.6909 103.452 42.6393 103.762 42.6393 103.762Z" fill="#ECAE00"/>
<path d="M31.7925 30.798C31.7925 30.798 30.682 31.0401 30.3158 30.808C29.9497 30.5759 29.3634 29.6875 29.3634 29.6875C29.3634 29.6875 29.6556 30.6499 29.3774 31.1602C29.0993 31.6704 28.2529 32.1146 28.2529 32.1146C28.2529 32.1146 29.2754 31.7584 29.7276 32.1026C30.0931 32.4345 30.4139 32.8125 30.682 33.2271C30.682 33.2271 30.4079 32.1926 30.672 31.7524C30.9361 31.3122 31.7925 30.798 31.7925 30.798Z" fill="#ECAE00"/>
<path d="M19.6531 81.4845C19.6531 81.4845 18.5486 81.7246 18.1825 81.4985C17.8163 81.2724 17.228 80.374 17.228 80.374C17.228 80.374 17.5202 81.3365 17.2421 81.8467C16.9639 82.3569 16.1176 82.8031 16.1176 82.8031C16.1176 82.8031 17.142 82.4429 17.5902 82.7871C17.9567 83.1175 18.2771 83.4957 18.5426 83.9116C18.5426 83.9116 18.2705 82.8791 18.5426 82.4409C18.8148 82.0027 19.6531 81.4845 19.6531 81.4845Z" fill="#ECAE00"/>
<path d="M28.493 216.909C28.493 216.909 24.4132 209.878 25.1635 206.892C25.9139 203.907 30.708 197.914 30.708 197.914C30.708 197.914 24.8054 202.022 20.7036 201.242C16.6017 200.461 11.7176 195.697 11.7176 195.697C11.7176 195.697 16.4097 201.88 15.0531 205.702C13.6964 209.523 9.50659 214.684 9.50659 214.684C9.50659 214.684 15.9274 210.532 19.511 211.354C23.0946 212.177 28.493 216.909 28.493 216.909Z" fill="#ECAE00"/>
<path d="M90.8252 185.55C90.8252 185.55 87.5378 183.473 87.1896 182.04C86.8415 180.608 87.5498 177 87.5498 177C87.5498 177 85.9611 180.055 84.0462 180.638C82.1314 181.22 79 180.277 79 180.277C79 180.277 82.3675 181.856 82.6376 183.785C82.9077 185.714 82.2815 188.827 82.2815 188.827C82.2815 188.827 84.0823 185.64 85.789 185.192C87.4958 184.743 90.8252 185.55 90.8252 185.55Z" fill="#ECAE00"/>
<path d="M87.173 156.482C87.173 156.482 87.4191 154.509 88.0034 154.037C88.5877 153.564 90.4045 153.104 90.4045 153.104C90.4045 153.104 88.6477 153.034 87.9594 152.276C87.2711 151.517 87.025 149.865 87.025 149.865C87.025 149.865 87.025 151.766 86.1966 152.312C85.3682 152.858 83.7955 153.244 83.7955 153.244C83.7955 153.244 85.6624 153.382 86.2386 154.073C86.8149 154.763 87.173 156.482 87.173 156.482Z" fill="#ECAE00"/>
<path d="M116.634 186.393C116.634 186.393 116.064 185.411 116.168 184.992C116.272 184.574 116.942 183.74 116.942 183.74C116.942 183.74 116.118 184.31 115.542 184.204C114.965 184.098 114.291 183.43 114.291 183.43C114.291 183.43 114.945 184.292 114.753 184.83C114.551 185.28 114.291 185.701 113.979 186.083C113.979 186.083 114.873 185.505 115.38 185.619C115.886 185.733 116.634 186.393 116.634 186.393Z" fill="#ECAE00"/>
<path d="M28.1249 285.177C28.1249 285.177 24.8294 283.098 24.4893 281.665C24.1491 280.233 24.8474 276.625 24.8474 276.625C24.8474 276.625 23.2467 279.684 21.3399 280.265C19.433 280.845 16.2957 279.904 16.2957 279.904C16.2957 279.904 19.6611 281.483 19.9373 283.412C20.2134 285.341 19.5791 288.45 19.5791 288.45C19.5791 288.45 21.3799 285.265 23.0867 284.817C24.7934 284.368 28.1249 285.177 28.1249 285.177Z" fill="#ECAE00"/>
<path d="M14.4708 351.995C14.4708 351.995 14.7129 350.02 15.2992 349.552C15.8854 349.083 17.7002 348.617 17.7002 348.617C17.7002 348.617 15.9435 348.545 15.2592 347.787C14.5749 347.028 14.3227 345.386 14.3227 345.386C14.3227 345.386 14.3227 347.283 13.4924 347.829C12.662 348.375 11.0913 348.763 11.0913 348.763C11.0913 348.763 12.9561 348.901 13.5384 349.594C14.1207 350.286 14.4708 351.995 14.4708 351.995Z" fill="#ECAE00"/>
<path d="M50.5929 240.327C50.5929 240.327 50.837 238.352 51.4192 237.882C52.0015 237.412 53.8343 236.95 53.8343 236.95C53.8343 236.95 52.0715 236.88 51.3812 236.121C50.6909 235.363 50.4528 233.72 50.4528 233.72C50.4528 233.72 50.4528 235.619 49.6245 236.165C48.7961 236.712 47.2234 237.1 47.2234 237.1C47.2234 237.1 49.0882 237.238 49.6685 237.928C50.2487 238.618 50.5929 240.327 50.5929 240.327Z" fill="#ECAE00"/>
<path d="M36.3945 179.388C36.3945 179.388 35.284 179.15 35.0439 178.788C34.8038 178.425 34.6438 177.375 34.6438 177.375C34.6438 177.375 34.5117 178.375 34.0435 178.722C33.5753 179.068 32.6309 179.134 32.6309 179.134C32.6309 179.134 33.7113 179.226 33.9815 179.724C34.1763 180.177 34.3108 180.654 34.3816 181.143C34.3816 181.143 34.5577 180.086 34.9819 179.794C35.4061 179.502 36.3945 179.388 36.3945 179.388Z" fill="#ECAE00"/>
<path d="M195.524 46C192.374 46 192.374 50.8896 195.524 50.8896C198.675 50.8896 198.677 46 195.524 46Z" fill="#ECAE00"/>
<path d="M342.422 83.4224C339.538 83.4224 339.538 87.8996 342.422 87.8996C345.306 87.8996 345.311 83.4224 342.422 83.4224Z" fill="#ECAE00"/>
<path d="M0.642838 119.589C-2.33098 119.589 -2.33098 124.2 0.642838 124.2C3.61666 124.2 3.60723 119.589 0.642838 119.589Z" fill="#ECAE00"/>
<path d="M70.6713 99.1538C70.6383 99.01 70.603 98.8639 70.5723 98.7225C70.0374 96.3802 66.392 96.3802 65.8595 98.7225C65.8265 98.8639 65.7935 99.01 65.7605 99.1538C65.4792 99.7413 65.4182 100.41 65.5885 101.039C66.2601 103.647 70.1717 103.647 70.848 101.039C71.0181 100.41 70.9554 99.7403 70.6713 99.1538Z" fill="#ECAE00"/>
<path d="M255.274 46.7402C251.81 46.7402 251.81 52.1105 255.274 52.1105C258.738 52.1105 258.729 46.7402 255.274 46.7402Z" fill="#ECAE00"/>
<path d="M214.722 143.224C211.482 143.224 211.482 148.25 214.722 148.25C217.962 148.25 217.965 143.224 214.722 143.224Z" fill="#ECAE00"/>
<path d="M190.237 168.686C186.994 168.686 186.994 173.714 190.237 173.714C193.479 173.714 193.481 168.686 190.237 168.686Z" fill="#ECAE00"/>
<path d="M244.31 166.058C243.63 165.684 242.84 165.56 242.078 165.707L241.468 165.804C239.027 166.19 239.027 170.328 241.468 170.717L241.939 170.79C242.744 170.964 243.584 170.849 244.312 170.465C245.978 169.652 245.978 166.871 244.31 166.058Z" fill="#ECAE00"/>
<path d="M220.599 198.871C217.135 198.871 217.135 204.244 220.599 204.244C224.063 204.244 224.066 198.871 220.599 198.871Z" fill="#ECAE00"/>
<path d="M176.532 151.804C175.087 151.804 173.704 153.057 173.777 154.558C173.795 155.032 173.844 155.505 173.923 155.972C174.38 158.564 178.681 158.564 179.138 155.972C179.217 155.505 179.266 155.032 179.286 154.558C179.362 153.05 177.983 151.804 176.532 151.804Z" fill="#ECAE00"/>
<path d="M98.5714 107.286C94.8836 107.286 94.8836 113 98.5714 113C102.259 113 102.259 107.286 98.5714 107.286Z" fill="#ECAE00"/>
<path d="M165.167 137.988C161.926 137.988 161.926 143.017 165.167 143.017C168.407 143.017 168.409 137.988 165.167 137.988Z" fill="#ECAE00"/>
<path d="M67.2309 179.12C63.9885 179.12 63.9885 184.148 67.2309 184.148C70.4734 184.148 70.4781 179.12 67.2309 179.12Z" fill="#ECAE00"/>
</g>
<defs>
<clipPath id="clip0_301_3585">
<rect width="415" height="352.994" fill="white" transform="translate(-10 -1)"/>
</clipPath>
</defs>
</svg>
