<svg width="16" height="16" viewBox="0 0 16 16" fill="none" xmlns="http://www.w3.org/2000/svg">
<rect x="10.5732" y="5.65967" width="4.89297" height="9.78594" rx="2" transform="rotate(51.9233 10.5732 5.65967)" fill="#FFD970"/>
<path d="M11.6668 4.33325C11.6668 4.79349 11.2938 5.16659 10.8335 5.16659C10.3732 5.16659 10.0002 4.79349 10.0002 4.33325C10.0002 3.87301 10.3732 3.49992 10.8335 3.49992C11.2938 3.49992 11.6668 3.87301 11.6668 4.33325ZM7.00523 1.93203C7.40823 1.54768 7.94376 1.33325 8.50063 1.33325H12.1666C13.1791 1.33325 13.9999 2.15407 13.9999 3.16659V6.46835C13.9999 7.04905 13.7668 7.60545 13.3529 8.01272L8.72263 12.5689C8.1365 13.1457 7.1953 13.143 6.61246 12.5629L2.44139 8.41172C1.84336 7.81652 1.85369 6.84539 2.46425 6.26304L7.00523 1.93203ZM8.50063 2.33325C8.20076 2.33325 7.91243 2.44871 7.69543 2.65567L3.15442 6.98665C2.9509 7.18079 2.94746 7.50452 3.1468 7.70292L7.3179 11.8541C7.51216 12.0475 7.8259 12.0484 8.0213 11.8561L12.6516 7.29992C12.8744 7.08059 12.9999 6.78105 12.9999 6.46835V3.16659C12.9999 2.70635 12.6268 2.33325 12.1666 2.33325H8.50063ZM13.8208 8.48792L12.8374 9.45552C12.8108 9.49172 12.781 9.52619 12.748 9.55865L9.19236 13.0443C9.05263 13.1813 8.89896 13.2955 8.73596 13.3871C7.9109 13.8534 6.84596 13.7356 6.14244 13.0354L4.85486 11.754L3.24735 10.1633C3.22154 10.1378 3.19776 10.111 3.17599 10.0831L2.09013 9.00239C1.88266 9.64039 2.03407 10.3696 2.54398 10.8741L5.44825 13.748C6.67803 14.9649 8.6569 14.9695 9.89243 13.7584L13.448 10.2728C13.9634 9.76752 14.1154 9.03612 13.9087 8.39739C13.8802 8.42812 13.8508 8.45832 13.8208 8.48792Z" fill="#1A1300"/>
</svg>
