<svg width="16" height="16" viewBox="0 0 16 16" fill="none" xmlns="http://www.w3.org/2000/svg">
<rect x="0.793701" y="6.34717" width="4.89297" height="9.78594" rx="2" transform="rotate(-12.3583 0.793701 6.34717)" fill="#FFD970"/>
<path d="M10.9997 3.46855C10.9997 1.84059 10.2396 0.669434 8.99539 0.669434C8.31125 0.669434 8.07652 1.07034 7.83125 2.00248C7.78118 2.19505 7.75658 2.28881 7.73058 2.38121C7.66325 2.62037 7.54605 3.02753 7.37925 3.60188C7.37479 3.61727 7.36819 3.63177 7.35965 3.64515L5.44846 6.63559C4.99642 7.34289 4.32944 7.88656 3.54552 8.18669L3.23 8.30749C2.39885 8.62576 1.9163 9.49489 2.08572 10.3686L2.35538 11.7594C2.51633 12.5894 3.14544 13.25 3.96665 13.4513L9.05178 14.6976C10.7393 15.1112 12.4449 14.088 12.8741 12.4044L13.8174 8.70496C14.1131 7.54543 13.4127 6.36579 12.2532 6.07015C12.0783 6.02554 11.8985 6.00297 11.7179 6.00297H10.5023C10.8331 4.91438 10.9997 4.07453 10.9997 3.46855ZM3.06743 10.1783C2.99043 9.78116 3.20977 9.38603 3.58757 9.24143L3.90309 9.12056C4.88683 8.74396 5.72382 8.06169 6.29108 7.17409L8.20225 4.18367C8.26225 4.08974 8.30852 3.9877 8.33958 3.88065C8.50712 3.30399 8.62492 2.89466 8.69318 2.65207C8.72192 2.5499 8.74919 2.44627 8.79832 2.25695C8.92492 1.77581 8.98719 1.66943 8.99539 1.66943C9.57385 1.66943 9.99965 2.32547 9.99965 3.46855C9.99965 4.05821 9.78245 5.02551 9.34379 6.34527C9.23619 6.66896 9.47712 7.00296 9.81825 7.00296H11.7179C11.8151 7.00296 11.9119 7.01509 12.0061 7.03916C12.6305 7.19836 13.0076 7.83356 12.8484 8.45789L11.9051 12.1573C11.6114 13.3092 10.4445 14.0094 9.28985 13.7264L4.2047 12.48C3.76251 12.3716 3.42377 12.016 3.3371 11.569L3.06743 10.1783Z" fill="#1A1300"/>
</svg>
