<svg width="16" height="16" viewBox="0 0 16 16" fill="none" xmlns="http://www.w3.org/2000/svg">
<rect x="0.793701" y="6.34717" width="4.89297" height="9.78594" rx="2" transform="rotate(-12.3583 0.793701 6.34717)" fill="#02C20F"/>
<path d="M10.9997 3.46831C10.9997 1.84035 10.2396 0.669189 8.99539 0.669189C8.31125 0.669189 8.07652 1.0701 7.83125 2.00224C7.78118 2.1948 7.75658 2.28856 7.73058 2.38096C7.66325 2.62012 7.54605 3.02729 7.37925 3.60164C7.37479 3.61702 7.36819 3.63152 7.35965 3.64491L5.44846 6.63535C4.99642 7.34265 4.32944 7.88632 3.54552 8.18645L3.23 8.30725C2.39885 8.62552 1.9163 9.49465 2.08572 10.3684L2.35538 11.7591C2.51633 12.5892 3.14544 13.2498 3.96665 13.451L9.05178 14.6974C10.7393 15.111 12.4449 14.0877 12.8741 12.4042L13.8174 8.70472C14.1131 7.54518 13.4127 6.36555 12.2532 6.0699C12.0783 6.0253 11.8985 6.00273 11.7179 6.00273H10.5023C10.8331 4.91414 10.9997 4.07428 10.9997 3.46831ZM3.06743 10.1781C2.99043 9.78092 3.20977 9.38578 3.58757 9.24118L3.90309 9.12032C4.88683 8.74372 5.72382 8.06145 6.29108 7.17385L8.20225 4.18342C8.26225 4.0895 8.30852 3.98746 8.33958 3.88041C8.50712 3.30374 8.62492 2.89442 8.69318 2.65182C8.72192 2.54966 8.74919 2.44602 8.79832 2.25671C8.92492 1.77557 8.98719 1.66919 8.99539 1.66919C9.57385 1.66919 9.99965 2.32523 9.99965 3.46831C9.99965 4.05797 9.78245 5.02527 9.34379 6.34502C9.23619 6.66872 9.47712 7.00272 9.81825 7.00272H11.7179C11.8151 7.00272 11.9119 7.01485 12.0061 7.03892C12.6305 7.19812 13.0076 7.83332 12.8484 8.45765L11.9051 12.1571C11.6114 13.309 10.4445 14.0091 9.28985 13.7261L4.2047 12.4798C3.76251 12.3714 3.42377 12.0157 3.3371 11.5687L3.06743 10.1781Z" fill="#1A1300"/>
</svg>
