<svg width="14" height="14" viewBox="0 0 14 14" fill="none" xmlns="http://www.w3.org/2000/svg">
<g clip-path="url(#clip0_1279_6131)">
<rect x="13.1769" y="8.4165" width="4.19397" height="8.38795" rx="2" transform="rotate(167.642 13.1769 8.4165)" fill="#333333"/>
<path d="M4.42885 10.884C4.42885 12.2794 5.08034 13.2832 6.1468 13.2832C6.7332 13.2832 6.9344 12.9396 7.14462 12.1406C7.18754 11.9755 7.20862 11.8952 7.23091 11.816C7.28862 11.611 7.38908 11.262 7.53205 10.7697C7.53588 10.7565 7.54154 10.7441 7.54885 10.7326L9.18702 8.16935C9.57448 7.56309 10.1462 7.09709 10.8181 6.83984L11.0885 6.73629C11.801 6.46349 12.2146 5.71852 12.0694 4.96961L11.8382 3.77755C11.7003 3.06607 11.161 2.49984 10.4571 2.32732L6.09845 1.25904C4.65205 0.904523 3.19011 1.78161 2.82217 3.22464L2.01365 6.39561C1.76022 7.38949 2.36051 8.40061 3.3544 8.65402C3.50434 8.69225 3.65845 8.7116 3.81325 8.7116H4.85514C4.57165 9.64468 4.42885 10.3646 4.42885 10.884ZM11.2279 5.13275C11.2939 5.47315 11.1059 5.81184 10.7821 5.93578L10.5116 6.03938C9.66842 6.36218 8.951 6.94698 8.46477 7.70778L6.82662 10.271C6.7752 10.3515 6.73554 10.439 6.70891 10.5307C6.56531 11.025 6.46434 11.3759 6.40582 11.5838C6.3812 11.6714 6.35782 11.7602 6.31571 11.9225C6.2072 12.3349 6.15382 12.4261 6.1468 12.4261C5.65097 12.4261 5.286 11.8637 5.286 10.884C5.286 10.3785 5.47217 9.54942 5.84817 8.4182C5.9404 8.14075 5.73388 7.85447 5.44148 7.85447H3.81325C3.72988 7.85447 3.64691 7.84407 3.56617 7.82344C3.03097 7.68698 2.70777 7.14252 2.84422 6.60738L3.65274 3.43647C3.90451 2.44909 4.90474 1.84898 5.8944 2.09155L10.2531 3.15984C10.6321 3.25275 10.9225 3.55761 10.9968 3.94075L11.2279 5.13275Z" fill="#1A1300"/>
</g>
<defs>
<clipPath id="clip0_1279_6131">
<rect width="13.7143" height="13.7143" fill="white" transform="matrix(-1 0 0 -1 13.8572 13.8569)"/>
</clipPath>
</defs>
</svg>
