<svg width="16" height="13" viewBox="0 0 16 13" fill="none" xmlns="http://www.w3.org/2000/svg">
<path d="M3.03087 1.93779C3.27559 1.04048 4.09061 0.417969 5.02069 0.417969H8.6438C9.3734 0.417969 10.0487 0.803416 10.4197 1.43162L12.3009 4.6168L13.9375 5.02582C14.8558 5.25524 15.5 6.08024 15.5 7.02674V8.29297C15.5 9.11977 15.0136 9.83287 14.3113 10.1618C14.0596 11.2399 13.0923 12.043 11.9375 12.043C10.853 12.043 9.93388 11.3347 9.61753 10.3555H6.00744C5.6911 11.3347 4.77202 12.043 3.6875 12.043C2.44039 12.043 1.41203 11.1064 1.26741 9.89827C0.799348 9.52019 0.5 8.94149 0.5 8.29297V6.60547C0.5 5.54969 1.29333 4.67914 2.3164 4.5575L3.03087 1.93779ZM9.52865 9.23047C9.70903 8.06234 10.7188 7.16797 11.9375 7.16797C12.9966 7.16797 13.8981 7.84349 14.2343 8.78722C14.3235 8.64374 14.375 8.47439 14.375 8.29297V7.02674C14.375 6.59654 14.0822 6.22154 13.6647 6.11722L11.867 5.66797H2.5625C2.04473 5.66797 1.625 6.08767 1.625 6.60547V8.29297L1.62508 8.30572C2.05684 7.62202 2.81914 7.16797 3.6875 7.16797C4.90617 7.16797 5.91595 8.06234 6.09633 9.23047H9.52865ZM7.25 4.54297H10.9507L9.45103 2.00372C9.28242 1.71818 8.97545 1.54297 8.6438 1.54297H7.25V4.54297ZM6.125 1.54297H5.02069C4.59792 1.54297 4.22746 1.82593 4.11623 2.23379L3.48645 4.54297H6.125V1.54297ZM3.6875 8.29297C2.96263 8.29297 2.375 8.88059 2.375 9.60547C2.375 10.3303 2.96263 10.918 3.6875 10.918C4.41237 10.918 5 10.3303 5 9.60547C5 8.88059 4.41237 8.29297 3.6875 8.29297ZM10.625 9.60547C10.625 10.3303 11.2126 10.918 11.9375 10.918C12.6624 10.918 13.25 10.3303 13.25 9.60547C13.25 8.88059 12.6624 8.29297 11.9375 8.29297C11.2126 8.29297 10.625 8.88059 10.625 9.60547Z" fill="#ECAE00"/>
</svg>
