<svg width="34" height="15" viewBox="0 0 34 15" fill="none" xmlns="http://www.w3.org/2000/svg">
<g clip-path="url(#clip0_340_4738)">
<path d="M0.0886269 9.94134C0.151943 9.71916 0.203747 8.73605 0.326923 8.52883C0.4501 8.32162 0.976192 7.5768 0.976192 7.5768C1.14321 7.26076 1.19374 6.89604 1.11894 6.54649C1.00382 5.91218 1.40558 4.72186 2.03989 4.21418C2.67419 3.70651 3.40289 2.37228 3.40289 2.37228C3.40289 2.37228 2.9758 2.02693 2.95854 1.84964C2.94127 1.67236 3.48348 1.56415 4.57826 1.56415C4.78432 1.56415 5.31156 1.52156 6.05983 1.464L6.08516 1.3201C5.27012 0.294392 5.19644 -0.00146484 5.19644 -0.00146484L6.29698 1.36499C6.63068 1.33011 6.96711 1.33011 7.30081 1.36499L7.15116 1.38111C10.7198 1.11519 16.8925 0.774435 19.5483 1.87267C23.1872 3.36921 25.8948 5.25601 27.4075 5.18233C27.4075 5.18233 31.5955 5.9755 32.9919 7.59407C32.9919 7.59407 33.4673 8.10174 33.3257 8.4989L33.5629 8.63935C33.5629 8.63935 34.0544 9.38531 33.8967 10.2107C33.8967 10.2107 32.9113 10.6551 32.5314 11.6704C32.5314 11.6704 33.6262 11.7637 33.9266 11.4632C33.9266 11.4632 33.975 11.9398 33.785 11.9709C33.5951 12.002 32.8641 12.2713 32.8641 12.2713C32.811 12.416 32.722 12.5447 32.6053 12.6455C32.4887 12.7462 32.3484 12.8155 32.1975 12.8469C31.6749 12.9621 31.1972 12.8631 31.1338 12.5142L30.9911 12.5292C30.9911 12.5292 31.6266 8.38493 27.9301 8.4045C24.2336 8.42407 24.7413 12.6086 24.7413 12.6086L8.46351 12.4187C8.46351 12.4187 8.80887 8.45286 5.16421 8.45286C1.51955 8.45286 2.2448 12.0377 2.2448 12.0377C2.2448 12.0377 0.562916 12.1182 0.199139 11.6923V10.3661C0.150883 10.3076 0.11599 10.2393 0.0969009 10.166C0.0778084 10.0926 0.0749855 10.0159 0.0886269 9.94134ZM2.97465 3.91948C2.92285 3.95401 1.70835 4.75985 1.64273 5.52193C1.57711 6.28402 1.45279 7.00696 1.45279 7.00696L1.27895 7.39261H2.07097C2.07097 7.39261 3.33728 6.29898 3.91287 5.85462C4.48846 5.41027 3.24864 5.31472 2.83421 5.07757C2.41978 4.84043 2.95048 3.95517 2.97465 3.91948ZM5.05945 2.25832C4.29622 2.40221 3.51456 2.0442 3.47427 2.02808C3.61817 2.39991 4.55178 2.59677 4.55178 2.59677C5.01225 2.53345 10.9616 1.7092 15.0276 1.79093C18.8979 1.87152 21.1496 3.2587 21.3511 3.38878C16.4608 -0.0555693 5.8365 2.10406 5.05945 2.25256V2.25832ZM6.02184 4.23606C6.33842 4.44787 6.52952 4.28901 6.52952 4.28901L7.13159 2.93521C7.37334 2.39301 5.02837 2.88226 4.58401 2.93521C4.13965 2.98817 5.70411 4.01848 6.02184 4.2303V4.23606ZM14.4554 10.3995C14.5084 10.0979 15.031 7.0438 14.7467 5.22723L20.1412 5.57834C20.1412 5.57834 11.8699 4.65739 8.42322 4.9072L14.2816 5.22723C14.2816 5.22723 14.8491 7.98662 14.4554 10.3938V10.3995ZM15.0794 6.59138C15.0794 6.63993 15.0987 6.68648 15.133 6.72081C15.1673 6.75514 15.2139 6.77442 15.2624 6.77442H16.9892C17.0374 6.77442 17.0837 6.75526 17.1178 6.72115C17.1519 6.68704 17.1711 6.64078 17.1711 6.59254C17.1711 6.5443 17.1519 6.49803 17.1178 6.46392C17.0837 6.42981 17.0374 6.41065 16.9892 6.41065H15.2624C15.2152 6.41032 15.1696 6.42839 15.1355 6.46106C15.1013 6.49372 15.0812 6.5384 15.0794 6.58563V6.59138ZM13.4781 4.64818V2.05571C13.4781 2.05571 10.8131 2.13629 10.0993 2.17083C9.38561 2.20536 9.73327 4.48701 9.73327 4.48701L13.4781 4.64818ZM21.4213 3.71227C21.0886 3.39454 17.2655 1.82432 15.0748 2.18924L15.5191 4.80704L20.239 5.22723C20.239 5.22723 20.224 3.7917 21.6446 4.42139C21.6734 4.2935 21.6684 4.1603 21.6301 4.03494C21.5917 3.90957 21.5213 3.79637 21.4259 3.70651L21.4213 3.71227ZM21.4938 4.624C21.4938 4.624 21.0805 4.7115 21.16 5.60827C21.16 5.60827 22.4136 5.79822 22.7313 5.63935C23.0491 5.48049 22.9259 4.69077 21.4927 4.61825L21.4938 4.624ZM32.7282 7.63551C32.2871 7.18742 31.7513 6.84371 31.1601 6.62957C30.5689 6.41544 29.9373 6.33631 29.3115 6.39798C29.3115 6.39798 29.0157 6.68348 31.1534 7.82546C31.1534 7.82546 32.8226 8.29514 33.1047 8.4989C33.0206 8.41947 32.1734 7.60328 32.7282 7.63551ZM31.7014 10.2268C31.7014 10.2268 32.5797 10.586 33.0229 10.586C33.0229 10.586 33.3683 10.1739 33.5985 10.1255L33.2071 9.83083C33.2071 9.83083 33.8978 9.15278 33.503 8.82584C33.1081 8.4989 32.7375 9.44518 31.3929 9.02154C31.0087 8.51406 30.5089 8.10566 29.935 7.83034C29.3611 7.55502 28.7298 7.42074 28.0936 7.43866C25.8568 7.46629 24.7781 8.74641 24.7781 8.74641C24.7781 8.74641 29.4485 5.72109 31.7014 10.2268ZM25.8372 6.20573C25.98 6.1735 25.9086 6.07105 25.9086 6.07105L22.7359 4.0346C22.7359 4.0346 22.9581 4.94749 23.0917 5.38264C23.2252 5.81779 23.734 6.06529 23.734 6.06529L25.8372 6.20573ZM24.0771 6.40719C24.0932 6.47511 24.3775 7.66084 24.3303 8.32392C24.4317 8.00548 24.4616 7.66858 24.4178 7.33727C24.374 7.00595 24.2577 6.68837 24.0771 6.40719ZM10.5909 11.7476C12.6527 11.8132 22.8741 12.0353 22.8741 12.0353C22.8741 12.0353 24.5076 12.1919 24.1772 10.9878C24.1772 10.9878 24.2463 11.7499 22.8741 11.7499C21.5019 11.7499 10.1742 11.5196 10.1742 11.5196C10.1742 11.5196 8.96773 11.4632 8.87218 10.9889C8.87679 10.9878 8.52798 11.6865 10.5909 11.7476ZM8.84571 6.30589C8.89368 6.30216 8.93848 6.28047 8.97116 6.24515C9.00383 6.20983 9.02198 6.16349 9.02198 6.11537C9.02198 6.06725 9.00383 6.02091 8.97116 5.98559C8.93848 5.95027 8.89368 5.92858 8.84571 5.92485H7.27434C7.22636 5.92858 7.18157 5.95027 7.14889 5.98559C7.11621 6.02091 7.09806 6.06725 7.09806 6.11537C7.09806 6.16349 7.11621 6.20983 7.14889 6.24515C7.18157 6.28047 7.22636 6.30216 7.27434 6.30589H8.84571ZM5.17457 7.50658C7.38946 7.60903 8.27587 8.63589 8.33573 8.70842C8.27472 8.61402 7.22253 7.04725 4.95239 7.2326C2.61663 7.42254 1.5161 9.01924 1.5161 9.01924C1.13982 9.04979 0.765022 8.94487 0.459309 8.72338C0.459309 8.72338 0.442039 9.49468 1.54718 9.52922C1.54718 9.52922 2.88025 7.40297 5.17457 7.50888V7.50658ZM0.56982 10.3281C0.56982 10.3281 1.57251 10.1762 1.52416 9.8999C1.47581 9.62361 0.740196 9.70995 0.518017 9.8999C0.295837 10.0898 0.317711 10.3304 0.566368 10.3304L0.56982 10.3281Z" fill="#1A1300"/>
<path d="M29.7545 6.72759C29.9087 6.98545 31.2314 7.64854 31.2314 7.64854C30.992 7.5219 30.5695 6.78054 30.5695 6.78054C30.5695 6.78054 29.6014 6.46857 29.7545 6.72759Z" fill="#1A1300"/>
<path d="M32.3594 10.8557C32.3594 10.8557 32.0958 11.1722 31.3406 11.0928C31.3406 11.0928 31.8586 10.3019 32.2903 10.1431L32.3594 10.8557Z" fill="#1A1300"/>
<path d="M21.3626 5.046L22.5161 5.18759L21.4375 4.9021L21.3626 5.046Z" fill="#1A1300"/>
<path d="M27.8329 9.56885C28.2078 9.57022 28.5739 9.68264 28.885 9.89193C29.1961 10.1012 29.4382 10.398 29.5807 10.7448C29.7232 11.0915 29.7598 11.4728 29.6858 11.8403C29.6119 12.2079 29.4306 12.5453 29.165 12.8099C28.8994 13.0746 28.5614 13.2546 28.1936 13.3272C27.8257 13.3998 27.4446 13.3619 27.0984 13.2181C26.7521 13.0743 26.4562 12.8311 26.2481 12.5193C26.0399 12.2075 25.9288 11.8409 25.9288 11.466C25.9293 11.2164 25.9789 10.9694 26.0748 10.7389C26.1708 10.5085 26.3111 10.2993 26.4879 10.1231C26.6648 9.94692 26.8745 9.8073 27.1053 9.7122C27.3361 9.61711 27.5833 9.5684 27.8329 9.56885ZM27.2159 9.97752L27.8329 11.0274L28.3452 9.97752C27.8882 9.59187 27.2159 9.97752 27.2159 9.97752ZM27.6142 11.466C27.6135 11.5169 27.628 11.5669 27.6557 11.6096C27.6835 11.6522 27.7234 11.6857 27.7702 11.7056C27.8171 11.7256 27.8688 11.7312 27.9188 11.7217C27.9688 11.7121 28.0149 11.688 28.0512 11.6522C28.0874 11.6164 28.1122 11.5707 28.1224 11.5208C28.1326 11.4709 28.1277 11.4191 28.1084 11.372C28.089 11.3249 28.0561 11.2846 28.0139 11.2563C27.9716 11.2279 27.9218 11.2128 27.8709 11.2127C27.8374 11.2124 27.8041 11.2188 27.7731 11.2313C27.742 11.2439 27.7138 11.2625 27.6899 11.286C27.6661 11.3096 27.6471 11.3376 27.6341 11.3685C27.6211 11.3994 27.6143 11.4325 27.6142 11.466ZM28.9611 10.2757L28.3095 11.3048L29.4768 11.2795C29.6103 10.6959 28.9611 10.2757 28.9611 10.2757ZM29.3962 11.8079L28.1794 11.7791L28.8022 12.7668C29.3709 12.5815 29.3962 11.8079 29.3962 11.8079ZM28.4004 13.0362L27.8064 11.9737L27.2723 13.0097C27.7178 13.4081 28.4004 13.0362 28.4004 13.0362ZM26.8245 12.7841L27.4737 11.748L26.3064 11.7768C26.174 12.3685 26.8245 12.7841 26.8245 12.7841ZM27.4208 11.2692L26.6679 10.377C26.1303 10.6383 26.2074 11.4131 26.2074 11.4131L27.4208 11.2692Z" fill="#1A1300"/>
<path d="M27.8704 8.88282C28.3914 8.8851 28.9 9.04167 29.332 9.33277C29.764 9.62387 30.1001 10.0365 30.2978 10.5184C30.4956 11.0004 30.5461 11.5301 30.443 12.0408C30.3399 12.5514 30.0878 13.0201 29.7185 13.3876C29.3493 13.7551 28.8794 14.0049 28.3683 14.1056C27.8571 14.2062 27.3276 14.1532 26.8466 13.9531C26.3656 13.7531 25.9546 13.415 25.6656 12.9816C25.3766 12.5482 25.2225 12.0388 25.2227 11.5179C25.2234 11.171 25.2925 10.8276 25.426 10.5075C25.5595 10.1873 25.7548 9.89653 26.0006 9.65182C26.2465 9.40712 26.5382 9.21325 26.859 9.08131C27.1798 8.94936 27.5235 8.88191 27.8704 8.88282ZM27.8324 13.5532C28.2449 13.5518 28.6478 13.4283 28.9901 13.1981C29.3324 12.9679 29.5988 12.6415 29.7557 12.26C29.9126 11.8785 29.953 11.4591 29.8717 11.0547C29.7904 10.6503 29.591 10.2791 29.2989 9.98786C29.0067 9.69666 28.6348 9.49857 28.2302 9.4186C27.8255 9.33862 27.4062 9.38036 27.0252 9.53853C26.6443 9.69669 26.3187 9.9642 26.0897 10.3073C25.8606 10.6503 25.7384 11.0536 25.7384 11.4661C25.7396 12.0204 25.9609 12.5516 26.3535 12.943C26.7461 13.3343 27.2781 13.5538 27.8324 13.5532Z" fill="#1A1300"/>
<path d="M27.8329 9.56885C28.2078 9.57022 28.5739 9.68264 28.885 9.89193C29.1961 10.1012 29.4382 10.398 29.5807 10.7448C29.7232 11.0915 29.7598 11.4728 29.6858 11.8403C29.6119 12.2079 29.4306 12.5453 29.165 12.8099C28.8994 13.0746 28.5614 13.2546 28.1936 13.3272C27.8257 13.3998 27.4446 13.3619 27.0984 13.2181C26.7521 13.0743 26.4562 12.8311 26.2481 12.5193C26.0399 12.2075 25.9288 11.8409 25.9288 11.466C25.9293 11.2164 25.9789 10.9694 26.0748 10.7389C26.1708 10.5085 26.3111 10.2993 26.4879 10.1231C26.6648 9.94692 26.8745 9.8073 27.1053 9.7122C27.3361 9.61711 27.5833 9.5684 27.8329 9.56885ZM27.2159 9.97752L27.8329 11.0274L28.3452 9.97752C27.8882 9.59187 27.2159 9.97752 27.2159 9.97752ZM27.6142 11.466C27.6135 11.5169 27.628 11.5669 27.6557 11.6096C27.6835 11.6522 27.7234 11.6857 27.7702 11.7056C27.8171 11.7256 27.8688 11.7312 27.9188 11.7217C27.9688 11.7121 28.0149 11.688 28.0512 11.6522C28.0874 11.6164 28.1122 11.5707 28.1224 11.5208C28.1326 11.4709 28.1277 11.4191 28.1084 11.372C28.089 11.3249 28.0561 11.2846 28.0139 11.2563C27.9716 11.2279 27.9218 11.2128 27.8709 11.2127C27.8374 11.2124 27.8041 11.2188 27.7731 11.2313C27.742 11.2439 27.7138 11.2625 27.6899 11.286C27.6661 11.3096 27.6471 11.3376 27.6341 11.3685C27.6211 11.3994 27.6143 11.4325 27.6142 11.466ZM28.9611 10.2757L28.3095 11.3048L29.4768 11.2795C29.6103 10.6959 28.9611 10.2757 28.9611 10.2757ZM29.3962 11.8079L28.1794 11.7791L28.8022 12.7668C29.3709 12.5815 29.3962 11.8079 29.3962 11.8079ZM28.4004 13.0362L27.8064 11.9737L27.2723 13.0097C27.7178 13.4081 28.4004 13.0362 28.4004 13.0362ZM26.8245 12.7841L27.4737 11.748L26.3064 11.7768C26.174 12.3685 26.8245 12.7841 26.8245 12.7841ZM27.4208 11.2692L26.6679 10.377C26.1303 10.6383 26.2074 11.4131 26.2074 11.4131L27.4208 11.2692Z" fill="#1A1300"/>
<path d="M27.8329 9.56885C28.2078 9.57022 28.5739 9.68264 28.885 9.89193C29.1961 10.1012 29.4382 10.398 29.5807 10.7448C29.7232 11.0915 29.7598 11.4728 29.6858 11.8403C29.6119 12.2079 29.4306 12.5453 29.165 12.8099C28.8994 13.0746 28.5614 13.2546 28.1936 13.3272C27.8257 13.3998 27.4446 13.3619 27.0984 13.2181C26.7521 13.0743 26.4562 12.8311 26.2481 12.5193C26.0399 12.2075 25.9288 11.8409 25.9288 11.466C25.9293 11.2164 25.9789 10.9694 26.0748 10.7389C26.1708 10.5085 26.3111 10.2993 26.4879 10.1231C26.6648 9.94692 26.8745 9.8073 27.1053 9.7122C27.3361 9.61711 27.5833 9.5684 27.8329 9.56885ZM27.2159 9.97752L27.8329 11.0274L28.3452 9.97752C27.8882 9.59187 27.2159 9.97752 27.2159 9.97752ZM27.6142 11.466C27.6135 11.5169 27.628 11.5669 27.6557 11.6096C27.6835 11.6522 27.7234 11.6857 27.7702 11.7056C27.8171 11.7256 27.8688 11.7312 27.9188 11.7217C27.9688 11.7121 28.0149 11.688 28.0512 11.6522C28.0874 11.6164 28.1122 11.5707 28.1224 11.5208C28.1326 11.4709 28.1277 11.4191 28.1084 11.372C28.089 11.3249 28.0561 11.2846 28.0139 11.2563C27.9716 11.2279 27.9218 11.2128 27.8709 11.2127C27.8374 11.2124 27.8041 11.2188 27.7731 11.2313C27.742 11.2439 27.7138 11.2625 27.6899 11.286C27.6661 11.3096 27.6471 11.3376 27.6341 11.3685C27.6211 11.3994 27.6143 11.4325 27.6142 11.466ZM28.9611 10.2757L28.3095 11.3048L29.4768 11.2795C29.6103 10.6959 28.9611 10.2757 28.9611 10.2757ZM29.3962 11.8079L28.1794 11.7791L28.8022 12.7668C29.3709 12.5815 29.3962 11.8079 29.3962 11.8079ZM28.4004 13.0362L27.8064 11.9737L27.2723 13.0097C27.7178 13.4081 28.4004 13.0362 28.4004 13.0362ZM26.8245 12.7841L27.4737 11.748L26.3064 11.7768C26.174 12.3685 26.8245 12.7841 26.8245 12.7841ZM27.4208 11.2692L26.6679 10.377C26.1303 10.6383 26.2074 11.4131 26.2074 11.4131L27.4208 11.2692Z" fill="#1A1300"/>
<path d="M5.14637 9.56885C5.5213 9.57022 5.88741 9.68264 6.19849 9.89193C6.50956 10.1012 6.75165 10.398 6.89418 10.7448C7.03672 11.0915 7.0733 11.4728 6.99932 11.8403C6.92534 12.2079 6.74411 12.5453 6.47852 12.8099C6.21292 13.0746 5.87487 13.2546 5.50705 13.3272C5.13923 13.3998 4.75813 13.3619 4.41187 13.2181C4.06561 13.0743 3.76972 12.8311 3.56157 12.5193C3.35341 12.2075 3.24231 11.8409 3.24231 11.466C3.24276 11.2164 3.29237 10.9694 3.3883 10.7389C3.48424 10.5085 3.62462 10.2993 3.80143 10.1231C3.97823 9.94692 4.18801 9.8073 4.41878 9.7122C4.64954 9.61711 4.89678 9.5684 5.14637 9.56885ZM4.52934 9.97752L5.14637 11.0274L5.65865 9.97752C5.20163 9.59187 4.52934 9.97752 4.52934 9.97752ZM4.92765 11.466C4.92696 11.5169 4.94143 11.5669 4.96922 11.6096C4.99701 11.6522 5.03686 11.6857 5.08371 11.7056C5.13055 11.7256 5.18227 11.7312 5.23229 11.7217C5.28232 11.7121 5.32838 11.688 5.36463 11.6522C5.40088 11.6164 5.42567 11.5707 5.43586 11.5208C5.44605 11.4709 5.44117 11.4191 5.42185 11.372C5.40252 11.3249 5.36963 11.2846 5.32734 11.2563C5.28505 11.2279 5.23528 11.2128 5.18436 11.2127C5.15085 11.2124 5.11762 11.2188 5.08656 11.2313C5.0555 11.2439 5.02724 11.2625 5.00338 11.286C4.97953 11.3096 4.96056 11.3376 4.94756 11.3685C4.93457 11.3994 4.9278 11.4325 4.92765 11.466ZM6.27339 10.2757L5.62297 11.3048L6.79027 11.2795C6.92381 10.6959 6.27339 10.2757 6.27339 10.2757ZM6.70853 11.8079L5.49288 11.7791L6.11452 12.7668C6.68321 12.5815 6.70853 11.8079 6.70853 11.8079ZM5.71045 13.0362L5.11644 11.9737L4.58229 13.0097C5.03125 13.4081 5.71045 13.0362 5.71045 13.0362ZM4.13793 12.7841L4.78605 11.748L3.61875 11.7768C3.48751 12.3685 4.13793 12.7841 4.13793 12.7841ZM4.73425 11.2692L3.98137 10.377C3.44377 10.6383 3.5209 11.4131 3.5209 11.4131L4.73425 11.2692Z" fill="#1A1300"/>
<path d="M5.18389 8.88282C5.70483 8.8851 6.21343 9.04167 6.64546 9.33277C7.07749 9.62387 7.41359 10.0365 7.61132 10.5184C7.80905 11.0004 7.85955 11.5301 7.75644 12.0408C7.65333 12.5514 7.40124 13.0201 7.03199 13.3876C6.66274 13.7551 6.19289 14.0049 5.68175 14.1056C5.17062 14.2062 4.64111 14.1532 4.1601 13.9531C3.67908 13.7531 3.26812 13.415 2.97909 12.9816C2.69006 12.5482 2.53593 12.0388 2.53616 11.5179C2.53691 11.171 2.60601 10.8276 2.73949 10.5075C2.87297 10.1873 3.06823 9.89653 3.31411 9.65182C3.55999 9.40712 3.85167 9.21325 4.1725 9.08131C4.49332 8.94936 4.83699 8.88191 5.18389 8.88282ZM5.1459 13.5532C5.55839 13.5518 5.96123 13.4283 6.30354 13.1981C6.64585 12.9679 6.91229 12.6415 7.0692 12.26C7.22611 11.8785 7.26645 11.4591 7.18514 11.0547C7.10383 10.6503 6.90451 10.2791 6.61235 9.98786C6.32019 9.69666 5.9483 9.49857 5.54363 9.4186C5.13896 9.33862 4.71967 9.38036 4.3387 9.53853C3.95774 9.69669 3.63218 9.9642 3.40315 10.3073C3.17412 10.6503 3.05189 11.0536 3.05189 11.4661C3.05311 12.0204 3.27434 12.5516 3.66698 12.943C4.05961 13.3343 4.59154 13.5538 5.1459 13.5532Z" fill="#1A1300"/>
<path d="M5.14637 9.56885C5.5213 9.57022 5.88741 9.68264 6.19849 9.89193C6.50956 10.1012 6.75165 10.398 6.89418 10.7448C7.03672 11.0915 7.0733 11.4728 6.99932 11.8403C6.92534 12.2079 6.74411 12.5453 6.47852 12.8099C6.21292 13.0746 5.87487 13.2546 5.50705 13.3272C5.13923 13.3998 4.75813 13.3619 4.41187 13.2181C4.06561 13.0743 3.76972 12.8311 3.56157 12.5193C3.35341 12.2075 3.24231 11.8409 3.24231 11.466C3.24276 11.2164 3.29237 10.9694 3.3883 10.7389C3.48424 10.5085 3.62462 10.2993 3.80143 10.1231C3.97823 9.94692 4.18801 9.8073 4.41878 9.7122C4.64954 9.61711 4.89678 9.5684 5.14637 9.56885ZM4.52934 9.97752L5.14637 11.0274L5.65865 9.97752C5.20163 9.59187 4.52934 9.97752 4.52934 9.97752ZM4.92765 11.466C4.92696 11.5169 4.94143 11.5669 4.96922 11.6096C4.99701 11.6522 5.03686 11.6857 5.08371 11.7056C5.13055 11.7256 5.18227 11.7312 5.23229 11.7217C5.28232 11.7121 5.32838 11.688 5.36463 11.6522C5.40088 11.6164 5.42567 11.5707 5.43586 11.5208C5.44605 11.4709 5.44117 11.4191 5.42185 11.372C5.40252 11.3249 5.36963 11.2846 5.32734 11.2563C5.28505 11.2279 5.23528 11.2128 5.18436 11.2127C5.15085 11.2124 5.11762 11.2188 5.08656 11.2313C5.0555 11.2439 5.02724 11.2625 5.00338 11.286C4.97953 11.3096 4.96056 11.3376 4.94756 11.3685C4.93457 11.3994 4.9278 11.4325 4.92765 11.466ZM6.27339 10.2757L5.62297 11.3048L6.79027 11.2795C6.92381 10.6959 6.27339 10.2757 6.27339 10.2757ZM6.70853 11.8079L5.49288 11.7791L6.11452 12.7668C6.68321 12.5815 6.70853 11.8079 6.70853 11.8079ZM5.71045 13.0362L5.11644 11.9737L4.58229 13.0097C5.03125 13.4081 5.71045 13.0362 5.71045 13.0362ZM4.13793 12.7841L4.78605 11.748L3.61875 11.7768C3.48751 12.3685 4.13793 12.7841 4.13793 12.7841ZM4.73425 11.2692L3.98137 10.377C3.44377 10.6383 3.5209 11.4131 3.5209 11.4131L4.73425 11.2692Z" fill="#1A1300"/>
<path d="M5.14637 9.56885C5.5213 9.57022 5.88741 9.68264 6.19849 9.89193C6.50956 10.1012 6.75165 10.398 6.89418 10.7448C7.03672 11.0915 7.0733 11.4728 6.99932 11.8403C6.92534 12.2079 6.74411 12.5453 6.47852 12.8099C6.21292 13.0746 5.87487 13.2546 5.50705 13.3272C5.13923 13.3998 4.75813 13.3619 4.41187 13.2181C4.06561 13.0743 3.76972 12.8311 3.56157 12.5193C3.35341 12.2075 3.24231 11.8409 3.24231 11.466C3.24276 11.2164 3.29237 10.9694 3.3883 10.7389C3.48424 10.5085 3.62462 10.2993 3.80143 10.1231C3.97823 9.94692 4.18801 9.8073 4.41878 9.7122C4.64954 9.61711 4.89678 9.5684 5.14637 9.56885ZM4.52934 9.97752L5.14637 11.0274L5.65865 9.97752C5.20163 9.59187 4.52934 9.97752 4.52934 9.97752ZM4.92765 11.466C4.92696 11.5169 4.94143 11.5669 4.96922 11.6096C4.99701 11.6522 5.03686 11.6857 5.08371 11.7056C5.13055 11.7256 5.18227 11.7312 5.23229 11.7217C5.28232 11.7121 5.32838 11.688 5.36463 11.6522C5.40088 11.6164 5.42567 11.5707 5.43586 11.5208C5.44605 11.4709 5.44117 11.4191 5.42185 11.372C5.40252 11.3249 5.36963 11.2846 5.32734 11.2563C5.28505 11.2279 5.23528 11.2128 5.18436 11.2127C5.15085 11.2124 5.11762 11.2188 5.08656 11.2313C5.0555 11.2439 5.02724 11.2625 5.00338 11.286C4.97953 11.3096 4.96056 11.3376 4.94756 11.3685C4.93457 11.3994 4.9278 11.4325 4.92765 11.466ZM6.27339 10.2757L5.62297 11.3048L6.79027 11.2795C6.92381 10.6959 6.27339 10.2757 6.27339 10.2757ZM6.70853 11.8079L5.49288 11.7791L6.11452 12.7668C6.68321 12.5815 6.70853 11.8079 6.70853 11.8079ZM5.71045 13.0362L5.11644 11.9737L4.58229 13.0097C5.03125 13.4081 5.71045 13.0362 5.71045 13.0362ZM4.13793 12.7841L4.78605 11.748L3.61875 11.7768C3.48751 12.3685 4.13793 12.7841 4.13793 12.7841ZM4.73425 11.2692L3.98137 10.377C3.44377 10.6383 3.5209 11.4131 3.5209 11.4131L4.73425 11.2692Z" fill="#1A1300"/>
</g>
<defs>
<clipPath id="clip0_340_4738">
<rect width="33.8587" height="14.1538" fill="white" transform="matrix(-1 0 0 1 33.9326 0)"/>
</clipPath>
</defs>
</svg>
