<svg width="12" height="12" viewBox="0 0 12 12" fill="none" xmlns="http://www.w3.org/2000/svg">
<path d="M7.0792 1.7998C7.0792 1.2199 6.60908 0.749805 6.0292 0.749805C5.4493 0.749805 4.9792 1.2199 4.9792 1.7998H7.0792ZM4.2792 1.7998C4.2792 0.833308 5.0627 0.0498047 6.0292 0.0498047C6.99569 0.0498047 7.7792 0.833308 7.7792 1.7998H11.2792C11.4725 1.7998 11.6292 1.95651 11.6292 2.1498C11.6292 2.3431 11.4725 2.4998 11.2792 2.4998H10.5411L9.97573 7.3998H9.27111L9.8365 2.4998H2.22191L3.04812 9.66024C3.12962 10.3667 3.72777 10.8998 4.43889 10.8998H6.08898C6.05027 11.0093 6.0292 11.1271 6.0292 11.2498C6.0292 11.3725 6.05027 11.4903 6.08898 11.5998H4.43889C3.37222 11.5998 2.47499 10.8001 2.35273 9.74053L1.51726 2.4998H0.779199C0.585901 2.4998 0.429199 2.3431 0.429199 2.1498C0.429199 1.95651 0.585901 1.7998 0.779199 1.7998H4.2792ZM7.0792 8.0998C6.88593 8.0998 6.7292 8.25653 6.7292 8.4498C6.7292 8.64307 6.88593 8.7998 7.0792 8.7998H11.2792C11.4725 8.7998 11.6292 8.64307 11.6292 8.4498C11.6292 8.25653 11.4725 8.0998 11.2792 8.0998H7.0792ZM7.0792 9.4998C6.88593 9.4998 6.7292 9.65653 6.7292 9.8498C6.7292 10.0431 6.88593 10.1998 7.0792 10.1998H11.2792C11.4725 10.1998 11.6292 10.0431 11.6292 9.8498C11.6292 9.65653 11.4725 9.4998 11.2792 9.4998H7.0792ZM7.0792 10.8998C6.88593 10.8998 6.7292 11.0565 6.7292 11.2498C6.7292 11.4431 6.88593 11.5998 7.0792 11.5998H11.2792C11.4725 11.5998 11.6292 11.4431 11.6292 11.2498C11.6292 11.0565 11.4725 10.8998 11.2792 10.8998H7.0792Z" fill="#ECAE00"/>
</svg>
