<svg width="19" height="17" viewBox="0 0 19 17" fill="none" xmlns="http://www.w3.org/2000/svg">
<path d="M17.1785 0.753151C17.3148 0.513008 17.62 0.428852 17.8601 0.565183C18.1003 0.701514 18.1844 1.00671 18.0481 1.24685L17.1785 0.753151ZM18.0481 1.24685C17.1441 2.83928 15.8538 5.48987 14.9316 8.24513C14.4707 9.62224 14.1055 11.0145 13.924 12.3068C13.7419 13.6042 13.7496 14.7688 14.0071 15.7068L13.0428 15.9715C12.735 14.8502 12.7419 13.534 12.9338 12.1677C13.1263 10.7962 13.51 9.34179 13.9833 7.92774C14.9295 5.10067 16.2486 2.391 17.1785 0.753151L18.0481 1.24685Z" fill="#1A1300"/>
<path d="M0.984375 1C2.81823 4.23028 6.2033 11.7205 5.0727 15.8391" stroke="#1A1300" stroke-linecap="round"/>
<line y1="-0.5" x2="14.8393" y2="-0.5" transform="matrix(1.15263e-07 1 1 -1.65767e-08 9.29883 1)" stroke="#1A1300" stroke-dasharray="0.53 0.53"/>
</svg>
