<svg width="13" height="13" viewBox="0 0 13 13" fill="none" xmlns="http://www.w3.org/2000/svg">
<path d="M4.2652 2.14911C4.25509 2.07301 4.24988 1.99537 4.24988 1.9165C4.24988 0.950008 5.03335 0.166504 5.99988 0.166504C6.9664 0.166504 7.74988 0.950008 7.74988 1.9165C7.74988 1.99538 7.74468 2.07304 7.73453 2.14915L9.41249 1.43691C10.0793 1.15385 10.8521 1.46279 11.14 2.12754C11.4289 2.79457 11.1202 3.5668 10.4511 3.85083L8.33467 4.74918V5.5176C8.02684 5.59016 7.73348 5.70029 7.45967 5.8428V4.65266C7.45967 4.36005 7.63461 4.09578 7.90393 3.98146L10.1092 3.04539C10.3312 2.95116 10.4329 2.69661 10.3371 2.4753C10.2402 2.25171 9.97867 2.14714 9.75438 2.24235L6.85463 3.47322C6.76159 3.51271 6.66651 3.54549 6.57002 3.57153C6.39129 3.63308 6.19949 3.6665 5.99988 3.6665C5.80014 3.6665 5.60822 3.63304 5.42943 3.57141C5.33307 3.54539 5.2381 3.51266 5.14517 3.47322L2.24545 2.24235C2.02116 2.14714 1.7596 2.25171 1.66276 2.4753C1.5669 2.69661 1.66867 2.95116 1.89067 3.04539L4.09875 3.98266C4.36809 4.09699 4.54301 4.36126 4.54301 4.65387V6.93399C4.54301 7.01478 4.52958 7.09499 4.50328 7.17135L3.39926 10.3776C3.3206 10.6061 3.44203 10.8551 3.67049 10.9337C3.89895 11.0124 4.14793 10.891 4.22659 10.6625L5.45644 7.09079C5.58565 6.71524 6.00553 6.61298 6.29434 6.78174C5.74618 7.43927 5.41642 8.28522 5.41642 9.20817C5.41642 9.4002 5.43072 9.58885 5.45825 9.77319L5.05394 10.9474C4.81792 11.6328 4.071 11.9971 3.38562 11.7611C2.70024 11.5251 2.33594 10.7782 2.57193 10.0928L3.66801 6.90955V4.75039L1.54878 3.85083C0.879643 3.5668 0.57092 2.79457 0.859833 2.12754C1.14776 1.46279 1.92051 1.15385 2.58735 1.43691L4.2652 2.14911ZM5.12488 1.9165C5.12488 2.29052 5.35955 2.60973 5.68966 2.73492C5.89342 2.78449 6.10616 2.78451 6.30992 2.73498C6.64014 2.60982 6.87488 2.29058 6.87488 1.9165C6.87488 1.43325 6.48311 1.0415 5.99988 1.0415C5.51664 1.0415 5.12488 1.43325 5.12488 1.9165ZM12.4164 9.20817C12.4164 10.9801 10.98 12.4165 9.20809 12.4165C7.43616 12.4165 5.99976 10.9801 5.99976 9.20817C5.99976 7.43624 7.43616 5.99984 9.20809 5.99984C10.98 5.99984 12.4164 7.43624 12.4164 9.20817ZM11.1644 7.83524C11.0504 7.72137 10.8657 7.72137 10.7518 7.83524L8.62476 9.96236L7.66436 9.0019C7.55043 8.88804 7.36575 8.88804 7.25183 9.0019C7.13796 9.11583 7.13796 9.30051 7.25183 9.41444L8.41849 10.5811C8.53242 10.695 8.7171 10.695 8.83103 10.5811L11.1644 8.24777C11.2782 8.13384 11.2782 7.94916 11.1644 7.83524Z" fill="#1A1300"/>
</svg>
