<svg width="39" height="36" viewBox="0 0 39 36" fill="none" xmlns="http://www.w3.org/2000/svg">
<path d="M21.3739 27.8748C21.3739 26.8405 20.5356 26.0022 19.5014 26.0022C18.4673 26.0022 17.629 26.8405 17.629 27.8748C17.629 28.9088 18.4673 29.7471 19.5014 29.7471C20.5356 29.7471 21.3739 28.9088 21.3739 27.8748ZM20.8879 13.1498C20.7942 12.4635 20.2054 11.9349 19.4935 11.9355C18.7169 11.9361 18.0878 12.5662 18.0884 13.3429L18.0951 21.7834L18.1081 21.9741C18.2018 22.6606 18.7906 23.1891 19.5025 23.1886C20.2791 23.1878 20.9082 22.5578 20.9076 21.7812L20.9009 13.3406L20.8879 13.1498ZM23.1927 2.86016C21.5871 -0.0419632 17.4149 -0.0419257 15.8095 2.86026L1.28713 29.113C-0.268296 31.9248 1.76537 35.3738 4.9787 35.3738H34.0244C37.2377 35.3738 39.2714 31.9248 37.7159 29.1128L23.1927 2.86016ZM18.2706 4.22165C18.8057 3.25427 20.1964 3.25425 20.7316 4.22162L35.2549 30.4744C35.7734 31.4116 35.0956 32.5613 34.0244 32.5613H4.9787C3.90759 32.5613 3.2297 31.4116 3.74818 30.4744L18.2706 4.22165Z" fill="#ECAE00"/>
</svg>
