<svg width="22" height="22" viewBox="0 0 22 22" fill="none" xmlns="http://www.w3.org/2000/svg">
<g clip-path="url(#clip0_565_3831)">
<path d="M18.9804 10.7732C19.4599 10.084 19.6524 9.43427 19.1832 9.04068C18.7862 8.70724 18.2018 8.64365 17.4799 9.47724C17.4799 9.47724 15.3229 11.9832 14.5804 12.6793C14.412 12.8357 14.2023 12.8597 14.0115 12.6621C13.8499 12.4936 13.9084 12.3476 14.0459 12.1465C14.0459 12.1465 17.0863 7.62615 17.4851 7.07443C18.1503 6.15146 17.8942 5.55505 17.5865 5.27146C17.1585 4.87443 16.4057 4.79537 15.7062 5.75443L12.0246 10.6821C11.9129 10.8007 11.7324 10.8179 11.6001 10.7251L11.5485 10.689C11.4128 10.5927 11.3732 10.4088 11.4557 10.2644C12.1003 9.14209 14.6646 4.6699 15.041 3.85521C15.4742 2.91505 15.2885 2.43724 14.8296 2.16052C14.2848 1.83224 13.7726 1.8563 13.1607 2.76552C12.4973 3.75552 9.92088 7.92349 9.26603 9.04412C9.18009 9.19021 8.99619 9.24521 8.84494 9.1713C8.84322 9.16959 8.83978 9.16959 8.83806 9.16787C8.69369 9.0974 8.56306 8.95474 8.62322 8.75193C8.98072 7.57287 10.7356 3.90162 11.1034 3.05771C11.607 1.90443 11.3612 1.51255 10.8404 1.24787C10.2938 0.971148 9.72494 1.18943 9.33822 1.95943C9.07697 2.48193 4.48963 10.8299 4.48963 10.8299C4.55666 9.58552 4.24213 8.7038 3.974 7.81865C3.48588 6.20818 2.30509 5.37115 1.44916 5.74755C1.004 5.94349 0.92322 6.33365 0.971344 6.63271C1.06759 7.21365 1.47666 9.01318 1.55572 10.4226C1.74134 13.726 0.74275 17.533 4.46384 19.9255C6.95431 21.5274 9.62353 21.2455 11.387 20.0132C13.5251 18.5196 18.5885 11.3369 18.9804 10.7732Z" fill="#FFCA28"/>
<path d="M1.77359 8.89784C2.08469 10.2058 2.12594 11.8111 2.11562 12.4952C2.07437 15.161 2.08812 17.4675 4.76078 19.5747C5.08906 19.8343 6.11859 20.4668 7.31656 20.7968C7.70156 20.9016 7.55547 21.0253 7.31828 20.9978C6.01031 20.8466 5.01859 20.2828 4.46688 19.9271C0.747501 17.5346 1.66187 13.7533 1.47625 10.4499C1.39719 9.0405 0.967499 6.82331 0.974375 6.63253C0.982967 6.44175 1.4625 7.58988 1.77359 8.89784ZM8.67438 9.03534C8.67438 9.03534 8.94078 9.03706 9.19344 8.68472C9.95141 7.63113 12.3284 3.65222 13.0125 2.67597C13.7928 1.56222 14.5198 1.98847 14.6848 2.07784C14.6848 2.07784 14.0867 2.09847 13.7567 2.58831C13.083 3.58691 10.5289 8.06253 9.72281 9.02331C9.20203 9.64378 8.67438 9.03534 8.67438 9.03534ZM18.0966 9.37394C17.8628 9.62488 15.8106 12.0603 15.0544 12.7393C14.4047 13.3219 13.92 12.5794 13.92 12.5794C13.92 12.5794 14.1589 12.6121 14.4855 12.3663C15.2967 11.7527 17.2183 9.56472 17.6514 9.10409C18.2942 8.42003 18.8923 8.848 19.0195 8.92534C19.0178 8.92534 18.65 8.78269 18.0966 9.37394ZM11.4141 10.5289C11.4141 10.5289 11.6341 10.6888 12.038 10.2161C12.3319 9.87066 15.7058 5.75425 15.7058 5.75425C16.5514 4.72128 17.2166 5.02894 17.3541 5.108C17.3541 5.108 16.9295 5.08566 16.4328 5.658C16.2059 5.91925 12.6052 10.51 12.4608 10.6664C11.9331 11.2422 11.445 10.7472 11.4141 10.5289Z" fill="#EDA600"/>
<path d="M4.50353 9.93929C4.50353 9.93929 8.974 2.44382 9.25932 1.93335C9.89354 0.800694 10.6309 1.14788 10.7563 1.2046C10.7563 1.2046 10.3456 1.08772 9.8626 1.90929C9.60478 2.34585 6.32025 8.25148 5.27182 10.1387C5.18932 10.491 5.19619 10.9499 5.46088 11.2455C6.40963 12.3094 7.61963 13.3957 7.26385 16.089C7.17447 16.7713 6.92182 17.4176 6.73447 17.7287C6.49729 18.1188 6.224 17.971 6.34432 17.6788C6.4251 17.4812 6.554 17.0154 6.57978 16.816C6.7001 15.8879 7.10572 14.2654 5.28729 12.3198C4.97963 11.9949 4.1976 11.0135 4.50353 9.93929Z" fill="#EDA600"/>
<path d="M4.21257 5.3214C4.45148 4.47405 4.82273 3.69718 5.30398 3.02343C5.7371 2.41671 6.26132 1.89421 6.85944 1.47484C6.93507 1.42155 7.03132 1.25655 6.94882 1.09671C6.86632 0.936867 6.68757 0.957492 6.62054 0.984992C5.87288 1.29265 5.26101 1.82374 4.75569 2.55249C4.15585 3.41874 3.85851 4.23515 3.70554 5.1478C3.68835 5.24749 3.69179 5.45718 3.90491 5.51218C4.11632 5.56718 4.18851 5.4039 4.21257 5.3214ZM5.38132 6.23062C5.62022 5.38327 5.99148 4.6064 6.47273 3.93265C6.90585 3.32593 7.43007 2.80343 8.02819 2.38405C8.10382 2.33077 8.20007 2.16577 8.11757 2.00593C8.03507 1.84437 7.85632 1.86671 7.78929 1.89421C7.04163 2.20187 6.42976 2.73296 5.92444 3.46171C5.3246 4.32796 5.02726 5.14437 4.87429 6.05702C4.8571 6.15671 4.86054 6.3664 5.07366 6.4214C5.28335 6.4764 5.35726 6.31484 5.38132 6.23062ZM20.5287 13.3136C20.233 14.1437 19.8119 14.8931 19.2877 15.5342C18.8151 16.11 18.2582 16.5981 17.6343 16.978C17.5552 17.0261 17.4487 17.1842 17.5208 17.3492C17.593 17.5159 17.7718 17.5056 17.8423 17.4833C18.6088 17.2255 19.2551 16.7356 19.8068 16.0412C20.4616 15.2162 20.814 14.4222 21.0271 13.5216C21.0512 13.4219 21.0615 13.2139 20.8518 13.1451C20.6421 13.0764 20.5579 13.2328 20.5287 13.3136ZM19.4235 12.3287C19.1279 13.1589 18.7068 13.9083 18.1826 14.5494C17.7099 15.1251 17.153 15.6133 16.5291 15.9931C16.4501 16.0412 16.3435 16.1994 16.4157 16.3644C16.4879 16.5311 16.6666 16.5208 16.7371 16.4984C17.5037 16.2406 18.1499 15.7508 18.7016 15.0564C19.3565 14.2314 19.7088 13.4373 19.9219 12.5367C19.946 12.437 19.9563 12.2291 19.7466 12.1603C19.5369 12.0898 19.4527 12.248 19.4235 12.3287Z" fill="#B0BEC5"/>
</g>
<defs>
<clipPath id="clip0_565_3831">
<rect width="22" height="22" fill="white" transform="matrix(-1 0 0 1 22 0)"/>
</clipPath>
</defs>
</svg>
